<svg width="41" height="41" viewBox="0 0 41 41" fill="none" xmlns="http://www.w3.org/2000/svg">
<rect width="41" height="41" rx="9" fill="#323D55"/>
<path d="M20.5013 30.0834C25.7942 30.0834 30.0846 25.793 30.0846 20.5001C30.0846 15.2072 25.7942 10.9167 20.5013 10.9167C15.2084 10.9167 10.918 15.2072 10.918 20.5001C10.918 25.793 15.2084 30.0834 20.5013 30.0834Z" stroke="white" stroke-width="1.4375" stroke-linecap="round" stroke-linejoin="round"/>
<path d="M10.918 20.5001H30.0846" stroke="white" stroke-width="1.4375" stroke-linecap="round" stroke-linejoin="round"/>
<path d="M20.5013 30.0834C22.6183 30.0834 24.3346 25.793 24.3346 20.5001C24.3346 15.2072 22.6183 10.9167 20.5013 10.9167C18.3843 10.9167 16.668 15.2072 16.668 20.5001C16.668 25.793 18.3843 30.0834 20.5013 30.0834Z" stroke="white" stroke-width="1.4375" stroke-linecap="round" stroke-linejoin="round"/>
<path d="M13.7266 13.8599C14.6155 14.7511 15.6717 15.4579 16.8346 15.9396C17.9975 16.4213 19.2442 16.6685 20.5029 16.6668C21.7617 16.6685 23.0083 16.4213 24.1712 15.9396C25.3342 15.4579 26.3904 14.7511 27.2793 13.8599M27.2793 27.1404C26.3904 26.2492 25.3342 25.5424 24.1712 25.0607C23.0083 24.579 21.7617 24.3319 20.5029 24.3335C19.2442 24.3319 17.9975 24.579 16.8346 25.0607C15.6717 25.5424 14.6155 26.2492 13.7266 27.1404" stroke="white" stroke-width="1.4375" stroke-linecap="round" stroke-linejoin="round"/>
</svg>
