<svg width="34" height="26" viewBox="0 0 34 26" fill="none" xmlns="http://www.w3.org/2000/svg">
<g clip-path="url(#clip0_4731_38266)" filter="url(#filter0_d_4731_38266)">
<path d="M3.88281 9.00732V17.5001H6.56814V14.4353H8.42997L9.15322 12.5734H6.56814V10.8548H9.71893L10.4064 9.00732H3.88281Z" fill="#005390"/>
<path d="M11.2201 9.0072L11.2129 17.5H13.8696V9.0072H11.2201Z" fill="#005390"/>
<path d="M24.2764 14.7287L25.3004 11.1913L26.3602 14.7287H24.2764ZM26.7183 9.0072H23.9685L20.918 17.5H23.4816L23.811 16.3614H26.797L27.1408 17.5H29.7831L26.7183 9.0072Z" fill="#005390"/>
<path d="M15.7012 9.0072V17.5H18.3865V14.4351H20.2483L20.9787 12.5733H18.3865V10.8547H21.5373L22.2319 9.0072H15.7012Z" fill="#005390"/>
<path d="M29.2148 9.90943H29.401C29.4296 9.90943 29.4582 9.90943 29.4869 9.90227C29.5155 9.90227 29.537 9.88795 29.5585 9.88079C29.58 9.86647 29.5943 9.85214 29.6086 9.83066C29.6229 9.80918 29.6301 9.78054 29.6301 9.74473C29.6301 9.70893 29.6229 9.68744 29.6086 9.66596C29.5943 9.64448 29.58 9.63016 29.5585 9.623C29.537 9.60867 29.5084 9.60151 29.4869 9.60151C29.4582 9.60151 29.4368 9.59435 29.4081 9.59435H29.2219V9.90943H29.2148ZM29 9.42965H29.4224C29.5585 9.42965 29.6659 9.45114 29.7304 9.50126C29.802 9.55139 29.8378 9.63732 29.8378 9.75905C29.8378 9.85214 29.8163 9.92375 29.759 9.97388C29.7089 10.024 29.6373 10.0526 29.5442 10.0598L29.8449 10.5539H29.6301L29.3365 10.067H29.2148V10.5539H29V9.42965ZM29.3866 10.7974C29.4941 10.7974 29.5871 10.7759 29.6802 10.7401C29.7733 10.6971 29.8521 10.647 29.9165 10.5754C29.981 10.5038 30.0383 10.4179 30.0812 10.3248C30.117 10.2245 30.1385 10.1171 30.1385 10.0025C30.1385 9.88795 30.117 9.78054 30.0812 9.68028C30.0383 9.58003 29.9882 9.50126 29.9165 9.42965C29.8449 9.35804 29.7733 9.30076 29.6802 9.26495C29.5871 9.22915 29.4941 9.20766 29.3866 9.20766C29.2792 9.20766 29.1861 9.22915 29.093 9.26495C29 9.30792 28.9212 9.35804 28.8567 9.42965C28.7923 9.50126 28.735 9.58719 28.6992 9.68028C28.6634 9.78054 28.6419 9.88795 28.6419 10.0025C28.6419 10.1171 28.6634 10.2245 28.6992 10.3248C28.7422 10.425 28.7923 10.5038 28.8567 10.5754C28.9283 10.647 29.0071 10.7043 29.093 10.7401C29.179 10.7759 29.2792 10.7974 29.3866 10.7974ZM29.3866 10.9907C29.2506 10.9907 29.1217 10.9621 29 10.912C28.8782 10.8618 28.778 10.7902 28.6849 10.6971C28.5989 10.6112 28.5273 10.5038 28.4772 10.382C28.4271 10.2603 28.3984 10.1314 28.3984 9.99536C28.3984 9.8593 28.4271 9.73041 28.4772 9.60867C28.5273 9.48694 28.5989 9.38669 28.6849 9.2936C28.778 9.2005 28.8782 9.13606 29 9.07877C29.1217 9.02148 29.2506 9 29.3866 9C29.5227 9 29.6516 9.02148 29.7733 9.07877C29.8951 9.1289 29.9953 9.2005 30.0884 9.2936C30.1743 9.38669 30.2531 9.48694 30.3032 9.60867C30.3534 9.73041 30.382 9.8593 30.382 9.99536C30.382 10.1314 30.3534 10.2603 30.3032 10.382C30.2531 10.5038 30.1815 10.604 30.0884 10.6971C30.0025 10.7902 29.8951 10.8618 29.7733 10.912C29.6516 10.9621 29.5227 10.9907 29.3866 10.9907Z" fill="#005390"/>
</g>
<defs>
<filter id="filter0_d_4731_38266" x="0" y="0" width="34" height="34" filterUnits="userSpaceOnUse" color-interpolation-filters="sRGB">
<feFlood flood-opacity="0" result="BackgroundImageFix"/>
<feColorMatrix in="SourceAlpha" type="matrix" values="0 0 0 0 0 0 0 0 0 0 0 0 0 0 0 0 0 0 127 0" result="hardAlpha"/>
<feOffset dy="4"/>
<feGaussianBlur stdDeviation="2"/>
<feComposite in2="hardAlpha" operator="out"/>
<feColorMatrix type="matrix" values="0 0 0 0 0 0 0 0 0 0 0 0 0 0 0 0 0 0 0.25 0"/>
<feBlend mode="normal" in2="BackgroundImageFix" result="effect1_dropShadow_4731_38266"/>
<feBlend mode="normal" in="SourceGraphic" in2="effect1_dropShadow_4731_38266" result="shape"/>
</filter>
<clipPath id="clip0_4731_38266">
<rect width="26" height="26" fill="white" transform="translate(4)"/>
</clipPath>
</defs>
</svg>
