<svg width="44" height="43" viewBox="0 0 44 43" fill="none" xmlns="http://www.w3.org/2000/svg">
<circle cx="22.1526" cy="21.2308" r="21.2308" fill="#293347"/>
<g clip-path="url(#clip0_4732_38281)">
<path d="M5.80612 19.2288C6.4194 18.964 7.13687 18.9558 7.79419 19.075C8.29227 19.1808 8.82084 19.4306 9.00889 19.8791C9.19694 20.3959 9.15628 20.9472 9.15713 21.482C8.55995 21.4797 7.96276 21.482 7.36642 21.4812C7.3538 21.0372 7.39353 20.5909 7.34186 20.1484C7.35287 19.8424 6.74044 19.8446 6.74891 20.1506C6.68453 20.8467 6.73366 21.5472 6.7185 22.2456C6.7329 22.691 6.68199 23.1426 6.7617 23.5844C6.81083 23.7614 7.06156 23.7749 7.21996 23.7149C7.34186 23.6377 7.34448 23.4959 7.35719 23.3766C7.37667 23.0451 7.36143 22.7136 7.36651 22.3821C7.96445 22.3806 8.56164 22.3813 9.15967 22.3813C9.14188 22.8846 9.19271 23.4201 8.95383 23.8904C8.5574 24.4717 7.73066 24.69 7.00218 24.6698C6.3601 24.6646 5.62485 24.5333 5.22588 24.0435C4.94041 23.6474 4.95058 23.1539 4.92771 22.7009C4.93194 21.8975 4.89721 21.0927 4.9599 20.2909C4.98616 19.8296 5.34362 19.4223 5.80612 19.2288ZM10.1211 19.102C10.9885 19.0915 11.8567 19.0923 12.7241 19.102C13.0537 20.9217 13.406 22.7383 13.7415 24.5572C13.1833 24.5557 12.625 24.5572 12.0668 24.5557C12.0177 24.2151 11.9813 23.873 11.9211 23.5333C11.722 23.5363 11.5221 23.5363 11.323 23.5355C11.3586 23.231 11.3975 22.9265 11.4348 22.6219C11.5576 22.6219 11.6796 22.6212 11.8024 22.6212C11.6906 21.8419 11.6068 21.0588 11.4721 20.2825C11.2976 21.7091 11.0875 23.1321 10.8961 24.5572C10.3363 24.5565 9.77549 24.5565 9.21558 24.5565C9.51375 22.7384 9.82886 20.9217 10.1211 19.102ZM14.0481 19.0968C14.6419 19.0953 15.2366 19.096 15.8312 19.096C15.832 20.5512 15.8312 22.0055 15.832 23.4606C16.1954 23.4622 16.5588 23.4614 16.9222 23.4614C16.9239 23.8267 16.9231 24.1911 16.9231 24.5565C15.965 24.5573 15.007 24.5557 14.049 24.5565C14.0473 22.7368 14.049 20.9164 14.0481 19.0968ZM17.3466 19.0968C17.9421 19.0953 18.5384 19.096 19.1348 19.096C19.1365 20.5512 19.1348 22.0055 19.1356 23.4606C19.4956 23.4622 19.8556 23.4614 20.2156 23.4614C20.2165 23.8267 20.2165 24.1911 20.2165 24.5565H17.3475C17.3458 22.7368 17.3474 20.9164 17.3466 19.0968ZM22.4341 19.0968C23.2219 19.0915 24.0105 19.0968 24.7973 19.1275C25.2116 19.1538 25.6453 19.1793 26.0147 19.3646C26.3476 19.5416 26.5517 19.8769 26.555 20.2196C26.6093 21.1692 26.578 22.1218 26.5814 23.0721C26.5602 23.4644 26.6068 23.9205 26.2857 24.2332C25.9282 24.5227 25.415 24.537 24.9568 24.5535C24.1165 24.5617 23.2753 24.5535 22.4341 24.5565C22.4333 22.7368 22.4341 20.9164 22.4341 19.0968ZM24.2223 20.0359C24.2231 21.2345 24.2231 22.4324 24.2223 23.6309C24.3925 23.5979 24.6517 23.6287 24.727 23.4502C24.8321 23.0564 24.7762 22.6454 24.7906 22.2433C24.7762 21.5862 24.822 20.9262 24.7643 20.2699C24.7398 20.0336 24.4197 20.0434 24.2223 20.0359ZM27.0278 19.0968C27.6207 19.0952 28.2137 19.0968 28.8066 19.096C28.8075 20.4222 28.8066 21.7483 28.8066 23.0744C28.8101 23.2499 28.8058 23.4269 28.843 23.6002C28.8701 23.7989 29.2657 23.7899 29.2828 23.5904C29.3225 23.4195 29.3183 23.2439 29.3208 23.0706C29.3191 21.746 29.3216 20.4214 29.3191 19.0968C29.912 19.0945 30.505 19.0968 31.0988 19.096C31.0971 20.3711 31.104 21.6463 31.0954 22.9206C31.0768 23.2716 31.1208 23.6579 30.8854 23.9632C30.6049 24.3794 30.0604 24.5909 29.5334 24.6404C28.866 24.7079 28.1401 24.6383 27.581 24.2826C27.2295 24.0614 27.0456 23.6803 27.0498 23.3037C27.0074 21.902 27.0371 20.4994 27.0278 19.0968ZM31.4824 19.096H35.3984C35.3993 19.4613 35.3984 19.8259 35.3993 20.1911C35.0452 20.1911 34.6912 20.1904 34.338 20.1919V24.5565C33.7399 24.5565 33.1418 24.5573 32.5439 24.5557V20.1919C32.1915 20.1911 31.8391 20.1904 31.4867 20.1919C31.4791 19.8266 31.4833 19.4613 31.4824 19.096ZM35.7196 19.096C36.2684 19.102 36.8174 19.0833 37.3663 19.1058C37.7033 20.0861 38.0719 21.0575 38.4208 22.0348C38.5013 22.2764 38.6334 22.5126 38.6249 22.7699C38.6207 23.3751 38.6241 23.9805 38.6225 24.5857C38.0727 24.5866 37.5237 24.5866 36.974 24.5857C36.974 24.0053 36.9715 23.4247 36.9758 22.8434C36.9775 22.713 36.968 22.5802 36.9215 22.4548C36.5184 21.3365 36.121 20.2159 35.7196 19.096ZM38.2853 19.0968C38.8308 19.0952 39.3764 19.0968 39.9219 19.096C39.5372 20.1296 39.1578 21.1647 38.7732 22.1982C38.5292 21.5082 38.2557 20.8249 38.0345 20.1296C38.0863 19.7808 38.2058 19.4418 38.2853 19.0968Z" fill="#677AA3"/>
<path d="M20.0126 20.4053C20.326 20.283 20.7952 20.4015 20.8469 20.736C20.8816 21.1396 20.885 21.5491 20.8435 21.9526C20.7487 22.4168 19.8719 22.4387 19.7339 21.9886C19.6661 21.6279 19.7042 21.2566 19.7025 20.892C19.6924 20.6948 19.7966 20.4825 20.0126 20.4053ZM20.226 20.6633C20.1887 21.1096 20.204 21.5581 20.2167 22.0051L20.3361 21.9706C20.3895 21.5588 20.3734 21.1366 20.3471 20.7233C20.3175 20.7083 20.2565 20.6783 20.226 20.6633ZM21.0324 20.4015C21.3026 20.4008 21.572 20.4 21.8414 20.4015C21.8405 20.5253 21.8397 20.6498 21.8397 20.7743L21.5119 20.7765C21.5119 20.8958 21.511 21.0151 21.511 21.1343C21.6084 21.1351 21.7067 21.1358 21.8058 21.1373C21.8058 21.2513 21.8058 21.3653 21.8067 21.4793L21.5119 21.4816C21.5119 21.7464 21.511 22.0103 21.5119 22.2752C21.3518 22.2752 21.1925 22.276 21.0334 22.2767C21.0324 21.6511 21.0333 21.0263 21.0324 20.4015Z" fill="#677AA3"/>
<path d="M39.2659 24.0681C39.3808 24.0681 39.4755 24.1001 39.5497 24.164C39.624 24.2281 39.6611 24.3036 39.6611 24.3907C39.6611 24.4794 39.6234 24.5554 39.548 24.6186C39.4725 24.6817 39.3818 24.7134 39.2759 24.7134C39.1692 24.7134 39.0784 24.6819 39.0033 24.6188C38.9281 24.5557 38.8906 24.4797 38.8906 24.3907C38.8906 24.3281 38.9104 24.2706 38.9502 24.2182C38.99 24.1658 39.0397 24.1277 39.0994 24.1038C39.1591 24.08 39.2146 24.0681 39.2659 24.0681ZM39.2849 24.1308C39.1905 24.1308 39.1138 24.157 39.0551 24.2092C38.9965 24.2614 38.9671 24.322 38.9671 24.3908C38.9671 24.462 38.9974 24.5232 39.0582 24.574C39.1188 24.6248 39.1918 24.6503 39.2769 24.6503C39.3617 24.6503 39.4344 24.6248 39.4952 24.574C39.5558 24.5231 39.5862 24.462 39.5862 24.3908C39.5862 24.3417 39.5709 24.2964 39.5404 24.2549C39.5099 24.2134 39.4707 24.1824 39.4227 24.1618C39.3748 24.1412 39.3289 24.1308 39.2849 24.1308ZM39.1065 24.5631V24.2207H39.3001C39.348 24.2207 39.3829 24.23 39.4047 24.2487C39.4265 24.2673 39.4373 24.2903 39.4373 24.3175C39.4373 24.3439 39.4283 24.3651 39.41 24.3811C39.3917 24.3972 39.3641 24.4079 39.3272 24.4137C39.344 24.4189 39.3573 24.4262 39.3672 24.4353C39.3771 24.4444 39.3929 24.4642 39.4143 24.4945L39.462 24.5632H39.3599L39.3258 24.508C39.3053 24.4752 39.2873 24.4528 39.2717 24.4408C39.2561 24.429 39.2356 24.423 39.2106 24.423H39.189V24.5632H39.1065V24.5631ZM39.189 24.3684H39.2563C39.2902 24.3684 39.3142 24.3647 39.3285 24.3573C39.3427 24.3498 39.3498 24.3377 39.3498 24.3209C39.3502 24.314 39.3484 24.3072 39.3447 24.3012C39.341 24.2952 39.3355 24.2902 39.3288 24.2868C39.3147 24.2791 39.2934 24.2754 39.2649 24.2754H39.189V24.3684H39.189Z" fill="#677AA3"/>
</g>
<defs>
<clipPath id="clip0_4732_38281">
<rect width="35" height="6" fill="white" transform="translate(4.92188 18.9998)"/>
</clipPath>
</defs>
</svg>
