<svg width="79" height="79" viewBox="0 0 79 79" fill="none" xmlns="http://www.w3.org/2000/svg">
<g filter="url(#filter0_d_4546_22186)">
<circle cx="39.2308" cy="35.2308" r="20.5673" stroke="url(#paint0_linear_4546_22186)" stroke-width="1.32692" shape-rendering="crispEdges"/>
</g>
<path fill-rule="evenodd" clip-rule="evenodd" d="M40.2208 42.9468L41.8679 46.47L44.3648 41.0586C45.3626 38.8993 47.3515 35.5156 49.7563 35.4088H49.8131H49.7563C47.3541 35.3004 45.3592 31.9149 44.3673 29.7573L39.4253 19.0001L37.7773 22.5233L43.2377 34.4704C43.2377 34.4704 44.8624 35.371 45.7458 35.408C44.8624 35.445 43.2377 36.3447 43.2377 36.3447L40.2208 42.9468Z" fill="url(#paint1_linear_4546_22186)"/>
<path fill-rule="evenodd" clip-rule="evenodd" d="M38.5949 27.8685L36.9478 24.3445L34.4509 29.7558C33.4504 31.9152 31.4607 35.2988 29.0568 35.4056H29H29.0568C31.4607 35.5115 33.4548 38.8935 34.4475 41.0545L39.3904 51.8117L41.0375 48.2877L35.4772 36.1702C35.4772 36.1702 33.9533 35.4435 33.0664 35.4065C33.9498 35.3694 35.4385 34.7048 35.4385 34.7048L38.5949 27.8685Z" fill="url(#paint2_linear_4546_22186)"/>
<path fill-rule="evenodd" clip-rule="evenodd" d="M39.4145 31.116L40.4055 33.2641L41.3965 35.4123L40.4055 37.5605L39.4145 39.7086L38.4226 37.5605L37.4316 35.4123L38.4226 33.2641L39.4145 31.116Z" fill="url(#paint3_linear_4546_22186)"/>
<defs>
<filter id="filter0_d_4546_22186" x="0.307692" y="0.730769" width="77.8456" height="77.8462" filterUnits="userSpaceOnUse" color-interpolation-filters="sRGB">
<feFlood flood-opacity="0" result="BackgroundImageFix"/>
<feColorMatrix in="SourceAlpha" type="matrix" values="0 0 0 0 0 0 0 0 0 0 0 0 0 0 0 0 0 0 127 0" result="hardAlpha"/>
<feOffset dy="4.42308"/>
<feGaussianBlur stdDeviation="8.84615"/>
<feComposite in2="hardAlpha" operator="out"/>
<feColorMatrix type="matrix" values="0 0 0 0 0.694118 0 0 0 0 0.596078 0 0 0 0 0.384314 0 0 0 0.3 0"/>
<feBlend mode="normal" in2="BackgroundImageFix" result="effect1_dropShadow_4546_22186"/>
<feBlend mode="normal" in="SourceGraphic" in2="effect1_dropShadow_4546_22186" result="shape"/>
</filter>
<linearGradient id="paint0_linear_4546_22186" x1="20.6538" y1="14" x2="48.0769" y2="56.4615" gradientUnits="userSpaceOnUse">
<stop stop-color="#FFD888" stop-opacity="0.62"/>
<stop offset="1" stop-color="#A26F07"/>
</linearGradient>
<linearGradient id="paint1_linear_4546_22186" x1="34.9846" y1="18.969" x2="58.8931" y2="28.873" gradientUnits="userSpaceOnUse">
<stop stop-color="#F8D17F"/>
<stop offset="1" stop-color="#B0801C"/>
</linearGradient>
<linearGradient id="paint2_linear_4546_22186" x1="26.2068" y1="24.3133" x2="50.1172" y2="34.2204" gradientUnits="userSpaceOnUse">
<stop stop-color="#F8D17F"/>
<stop offset="1" stop-color="#B0801C"/>
</linearGradient>
<linearGradient id="paint3_linear_4546_22186" x1="36.5116" y1="31.1062" x2="44.2638" y2="34.4881" gradientUnits="userSpaceOnUse">
<stop stop-color="#F8D17F"/>
<stop offset="1" stop-color="#B0801C"/>
</linearGradient>
</defs>
</svg>
