<svg width="41" height="41" viewBox="0 0 41 41" fill="none" xmlns="http://www.w3.org/2000/svg">
<rect width="41" height="41" rx="9" fill="#323D55"/>
<path fill-rule="evenodd" clip-rule="evenodd" d="M29.5 11H14.04C13.71 11 13.39 11.17 13.21 11.45L11.67 13.75C11.56 13.91 11.5 14.11 11.5 14.3V27C11.5 27.55 11.95 28 12.5 28H14.5C15.05 28 15.5 28.45 15.5 29V30C15.5 30.55 15.95 31 16.5 31H17.96C18.29 31 18.61 30.83 18.79 30.55L20.2 28.44C20.39 28.16 20.7 27.99 21.03 27.99H25.08C25.35 27.99 25.6 27.88 25.79 27.7L30.2 23.29C30.39 23.1 30.49 22.85 30.49 22.58V12C30.5 11.45 30.05 11 29.5 11ZM19.79 21.86C19.79 22.18 19.53 22.43 19.22 22.43H18.08C17.76 22.43 17.51 22.17 17.51 21.86V16.15C17.51 15.83 17.77 15.58 18.08 15.58H19.22C19.54 15.58 19.79 15.84 19.79 16.15V21.86ZM25.5 21.86C25.5 22.18 25.24 22.43 24.93 22.43H23.79C23.47 22.43 23.22 22.17 23.22 21.86V16.15C23.22 15.83 23.48 15.58 23.79 15.58H24.93C25.25 15.58 25.5 15.84 25.5 16.15V21.86Z" fill="white"/>
</svg>
