<svg width="18" height="20" viewBox="0 0 18 20" fill="none" xmlns="http://www.w3.org/2000/svg">
<path fill-rule="evenodd" clip-rule="evenodd" d="M17.0275 0.888916H2.42635C2.11468 0.888916 1.81247 1.04948 1.64247 1.31393L0.18802 3.48614C0.0841308 3.63725 0.0274658 3.82613 0.0274658 4.00557V16C0.0274658 16.5195 0.452466 16.9445 0.97191 16.9445H2.8608C3.38024 16.9445 3.80524 17.3695 3.80524 17.8889V18.8334C3.80524 19.3528 4.23024 19.7778 4.74969 19.7778H6.12858C6.44025 19.7778 6.74246 19.6172 6.91246 19.3528L8.24413 17.36C8.42357 17.0956 8.71635 16.935 9.02802 16.935H12.853C13.108 16.935 13.3441 16.8312 13.5236 16.6611L17.6886 12.4961C17.868 12.3167 17.9625 12.0806 17.9625 11.8256V1.83336C17.9719 1.31392 17.5469 0.888916 17.0275 0.888916ZM7.8569 11.1456C7.8569 11.4478 7.61136 11.6839 7.31858 11.6839H6.24191C5.93969 11.6839 5.70357 11.4383 5.70357 11.1456V5.7528C5.70357 5.45058 5.94913 5.21446 6.24191 5.21446H7.31858C7.6208 5.21446 7.8569 5.46002 7.8569 5.7528V11.1456ZM13.2497 11.1456C13.2497 11.4478 13.0041 11.6839 12.7113 11.6839H11.6347C11.3325 11.6839 11.0964 11.4383 11.0964 11.1456V5.7528C11.0964 5.45058 11.3419 5.21446 11.6347 5.21446H12.7113C13.0136 5.21446 13.2497 5.46002 13.2497 5.7528V11.1456Z" fill="white"/>
</svg>
