<svg width="43" height="43" viewBox="0 0 43 43" fill="none" xmlns="http://www.w3.org/2000/svg">
<circle cx="21.6917" cy="21.2308" r="21.2308" fill="#293347"/>
<path fill-rule="evenodd" clip-rule="evenodd" d="M14.9333 23.8251L18.4524 27.7672C18.7786 28.1324 18.565 28.7122 18.0794 28.7809L15.1574 29.1964C14.9955 29.2197 14.8317 29.1774 14.7012 29.0799L12.83 27.6826C12.6029 27.5128 12.5216 27.2106 12.6336 26.9508L13.9078 23.9906C14.0851 23.5781 14.6335 23.4892 14.9333 23.8251ZM26.9026 13.4477L28.6557 14.3205C28.8976 14.4406 29.0318 14.7041 28.9874 14.9695L28.5984 17.2948C28.5264 17.7256 28.037 17.9451 27.6652 17.714L24.3752 15.6663C23.9855 15.4236 23.9904 14.8567 24.385 14.6214L26.311 13.471C26.4908 13.3631 26.7142 13.3545 26.9026 13.4477ZM14.0586 13.2975C14.2894 13.2975 14.4747 13.3074 14.7511 13.5274C15.0989 13.8044 28.0327 22.9162 30.5035 24.6568C30.7411 24.8241 30.8267 25.1287 30.7116 25.3947C30.3404 26.2533 29.5562 28.0809 29.2201 28.8636C29.1241 29.0891 28.9025 29.2326 28.6563 29.2326H26.8706C26.6982 29.2326 26.5339 29.1608 26.4175 29.0346L13.0202 14.5356C12.7309 14.223 12.8411 13.718 13.2356 13.555C13.5625 13.4195 13.9017 13.2975 14.0586 13.2975ZM16.2857 10.4029C16.1718 10.2926 16.0216 10.2331 15.8622 10.2331H10.5962C10.2712 10.3949 9.98063 10.5825 9.98063 11.2291V15.4426V16.8302C9.98063 16.9252 10.0028 17.019 10.0459 17.1042L10.4589 17.9267C10.5457 18.0995 10.5457 18.3024 10.4589 18.4746L9.98063 19.4264V20.0393L10.5962 20.6522V21.2651L10.161 21.6984C10.0453 21.8136 9.98063 21.9693 9.98063 22.1317V24.0757C9.98063 24.2382 10.0453 24.3944 10.161 24.5091L10.4158 24.7628C10.5315 24.878 10.5962 25.0337 10.5962 25.1961V27.0911C10.5962 27.2726 10.5131 27.4478 10.3721 27.5624C9.96032 27.8977 9.98063 28.0816 9.98063 28.6197V31.2152C9.98063 31.4886 10.1665 31.7282 10.43 31.8048C11.4407 32.0978 11.6044 32.297 13.0584 32.297C14.5129 32.297 15.5205 32.297 15.5205 32.297C15.8985 32.297 16.2764 31.9881 16.5116 31.8097C16.6741 31.6866 16.8957 31.64 17.0791 31.7295C17.3703 31.8723 17.7464 32.297 18.2376 32.297C18.6327 32.297 19.2618 31.6841 19.5991 31.6841C19.8134 31.6841 20.3556 32.1205 20.3556 32.1205C20.4147 32.1499 20.4689 32.1885 20.5157 32.2351L20.8801 32.7303C20.9958 32.8455 21.1522 32.9099 21.3153 32.9099H22.0496C22.1924 32.9099 22.3315 32.8633 22.4399 32.7707C22.6479 32.5924 23.0548 32.3056 23.5226 32.297H26.4385C26.537 32.297 26.6324 32.2749 26.7198 32.229C26.889 32.1407 27.2048 31.8661 27.4566 31.7442C27.6979 31.6271 27.9872 31.6798 28.1712 31.8729C28.2057 31.909 28.2396 31.9458 28.2709 31.9795C28.3873 32.1064 28.551 32.297 28.7228 32.297H30.0388C30.2019 32.297 30.3589 32.2326 30.474 32.1174L30.6457 31.8649C30.8082 31.7031 31.0452 31.6436 31.265 31.7135C31.465 31.7766 32.0978 32.1621 32.6179 32.2817C33.0033 32.3699 33.3714 32.0782 33.3714 31.6841V23.7166C33.3714 23.3783 33.0956 23.1037 32.7558 23.1037H32.1403L32.5755 22.6704C32.6912 22.5552 32.7558 22.3995 32.7558 22.2371V20.1839C32.7558 20.0889 32.7336 19.9952 32.6906 19.91L32.3385 19.2088C32.2203 18.9729 32.2664 18.6879 32.4536 18.5016L32.7558 18.2006V17.5877L33.191 17.1544C33.3067 17.0392 33.3714 16.8835 33.3714 16.7211V14.5987C33.3714 14.5484 33.3652 14.4988 33.3529 14.4498L32.8401 12.4083C32.7878 12.1999 32.8494 11.9786 33.002 11.8266L33.3714 11.4589V10.846L32.8998 10.3765C32.8063 10.2834 32.685 10.2227 32.5539 10.2037L30.61 9.91994L30.1225 10.2674L29.8615 9.88746C29.7464 9.72014 29.5568 9.62024 29.3531 9.62024H25.9848C25.605 9.62024 25.3699 9.86355 25.3699 10.2288C25.3699 10.3177 25.3693 10.846 24.7537 10.846C24.1382 10.846 24.1382 10.2331 24.1382 10.2331C24.1382 10.2331 24.1382 9.62024 23.4309 9.62024H19.553C19.3462 9.62024 19.1535 9.72198 19.0402 9.8942C18.8026 10.2552 18.3791 10.846 18.1538 10.846C17.8288 10.846 17.7488 10.846 17.3672 10.846C16.8366 10.846 16.4734 10.5843 16.2857 10.4029Z" fill="#677AA3"/>
</svg>
