<svg width="24" height="24" viewBox="0 0 24 24" fill="none" xmlns="http://www.w3.org/2000/svg">
<path fill-rule="evenodd" clip-rule="evenodd" d="M5.39425 14.825L8.91332 18.767C9.23956 19.1323 9.02596 19.7121 8.5403 19.7807L5.61831 20.1963C5.45642 20.2196 5.29268 20.1773 5.16219 20.0798L3.29093 18.6824C3.06379 18.5127 2.98254 18.2105 3.09457 17.9507L4.36875 14.9904C4.54603 14.578 5.09448 14.4891 5.39425 14.825ZM17.3635 4.44758L19.1166 5.32033C19.3585 5.44046 19.4927 5.704 19.4484 5.96938L19.0594 8.29466C18.9873 8.72552 18.498 8.94493 18.1262 8.71388L14.8361 6.66623C14.4465 6.42352 14.4514 5.85661 14.8459 5.62126L16.772 4.47087C16.9517 4.36301 17.1752 4.35442 17.3635 4.44758ZM4.51956 4.29743C4.75039 4.29743 4.93567 4.30723 5.21205 4.52726C5.55983 4.80428 18.4937 13.916 20.9645 15.6566C21.2021 15.824 21.2876 16.1286 21.1725 16.3946C20.8013 17.2532 20.0171 19.0808 19.6811 19.8635C19.585 20.089 19.3634 20.2324 19.1172 20.2324H17.3315C17.1592 20.2324 16.9948 20.1607 16.8785 20.0345L3.48113 5.53545C3.19183 5.22288 3.30201 4.71787 3.69657 4.55484C4.02343 4.41939 4.36259 4.29743 4.51956 4.29743ZM6.7466 1.40277C6.63272 1.29245 6.48253 1.233 6.3231 1.233H1.05712C0.732107 1.3948 0.44157 1.58235 0.44157 2.22894V6.44252V7.8301C0.44157 7.92509 0.46373 8.01886 0.506818 8.10406L0.919849 8.92655C1.00664 9.09938 1.00664 9.30225 0.919849 9.47447L0.44157 10.4263V11.0392L1.05712 11.652V12.2649L0.621925 12.6982C0.506202 12.8135 0.44157 12.9691 0.44157 13.1315V15.0756C0.44157 15.238 0.506202 15.3943 0.621925 15.5089L0.87676 15.7627C0.992483 15.8779 1.05712 16.0336 1.05712 16.196V18.091C1.05712 18.2724 0.974017 18.4477 0.833057 18.5623C0.421257 18.8976 0.44157 19.0814 0.44157 19.6196V22.2151C0.44157 22.4885 0.627465 22.7281 0.890918 22.8047C1.90164 23.0977 2.06538 23.2969 3.5193 23.2969C4.97383 23.2969 5.98148 23.2969 5.98148 23.2969C6.35942 23.2969 6.73737 22.988 6.9725 22.8096C7.13501 22.6864 7.3566 22.6398 7.54004 22.7293C7.83119 22.8721 8.20729 23.2969 8.69849 23.2969C9.09367 23.2969 9.72276 22.684 10.0601 22.684C10.2743 22.684 10.8166 23.1203 10.8166 23.1203C10.8757 23.1498 10.9298 23.1884 10.9766 23.235L11.341 23.7302C11.4568 23.8454 11.6131 23.9097 11.7762 23.9097H12.5106C12.6534 23.9097 12.7925 23.8632 12.9008 23.7706C13.1089 23.5923 13.5158 23.3054 13.9836 23.2969H16.8994C16.9979 23.2969 17.0933 23.2748 17.1807 23.2288C17.35 23.1406 17.6658 22.866 17.9175 22.744C18.1588 22.627 18.4481 22.6797 18.6322 22.8727C18.6666 22.9089 18.7005 22.9457 18.7319 22.9794C18.8482 23.1063 19.012 23.2969 19.1837 23.2969H20.4997C20.6628 23.2969 20.8198 23.2325 20.9349 23.1173L21.1067 22.8648C21.2692 22.703 21.5061 22.6435 21.7259 22.7134C21.9259 22.7765 22.5587 23.162 23.0789 23.2815C23.4642 23.3698 23.8323 23.0781 23.8323 22.684V14.7165C23.8323 14.3782 23.5565 14.1036 23.2167 14.1036H22.6012L23.0364 13.6703C23.1521 13.5551 23.2167 13.3994 23.2167 13.237V11.1838C23.2167 11.0888 23.1946 10.995 23.1515 10.9098L22.7994 10.2087C22.6812 9.97274 22.7274 9.68775 22.9145 9.50143L23.2167 9.20051V8.58762L23.6519 8.15431C23.7677 8.03909 23.8323 7.88342 23.8323 7.721V5.59858C23.8323 5.54833 23.8261 5.49868 23.8138 5.44965L23.3011 3.40813C23.2488 3.19975 23.3103 2.9785 23.463 2.8265L23.8323 2.45877V1.84589L23.3608 1.37642C23.2672 1.28326 23.146 1.22258 23.0148 1.20358L21.071 0.919818L20.5834 1.26732L20.3225 0.887335C20.2073 0.720017 20.0178 0.620117 19.814 0.620117H16.4457C16.066 0.620117 15.8308 0.863433 15.8308 1.22871C15.8308 1.31758 15.8302 1.84589 15.2147 1.84589C14.5991 1.84589 14.5991 1.233 14.5991 1.233C14.5991 1.233 14.5991 0.620117 13.8918 0.620117H10.0139C9.80709 0.620117 9.61442 0.721856 9.50116 0.894077C9.26356 1.25507 8.84007 1.84589 8.61478 1.84589C8.28977 1.84589 8.20975 1.84589 7.82811 1.84589C7.29751 1.84589 6.93434 1.58419 6.7466 1.40277Z" fill="#677AA3"/>
</svg>
