<svg width="360" height="180" viewBox="0 0 360 180" fill="none" xmlns="http://www.w3.org/2000/svg">
<mask id="mask0_3808_20679" style="mask-type:alpha" maskUnits="userSpaceOnUse" x="0" y="0" width="360" height="180">
<rect width="360" height="180" fill="#293347"/>
</mask>
<g mask="url(#mask0_3808_20679)">
<rect y="-7.95557" width="363" height="214.807" fill="#293347"/>
<path d="M161.744 81.8612V74.4125L180.136 63.5713L198.329 74.4125V81.8612L180.136 71.1429L161.744 81.8612Z" fill="#3A4863"/>
<path d="M161.719 104.478V83.1886L172.447 76.9199L178.825 80.6566L167.998 86.9007V100.79L180.11 107.674L191.951 100.79V86.9007L181.322 80.6566L187.675 76.9199L198.329 83.1886V104.478L180.11 115.196L161.719 104.478Z" fill="#3A4863"/>
<path d="M180.061 79.9193L173.758 76.2564L180.061 72.4214L186.34 76.2564L180.061 79.9193Z" fill="#3A4863"/>
<path d="M176.674 83.1891L179.986 81.3208L183.249 83.1891V104.429L179.986 106.396L176.674 104.429V83.1891Z" fill="#3A4863"/>
<path d="M160 105.536V73.5557L180.144 61.6572L200.036 73.5557V105.536L180.144 117.348L160 105.536Z" stroke="#3A4863" stroke-width="1.01357"/>
</g>
</svg>
