<svg width="41" height="38" viewBox="0 0 41 38" fill="none" xmlns="http://www.w3.org/2000/svg">
<path d="M27.5814 15.4951C26.1071 15.4951 24.9277 16.6745 24.9277 18.1488C24.9277 19.6231 26.1071 20.8025 27.5814 20.8025C29.0558 20.8025 30.2351 19.6231 30.2351 18.1488C30.2351 16.6747 29.0558 15.4951 27.5814 15.4951ZM27.5814 19.6233C26.7558 19.6233 26.1071 18.9746 26.1071 18.149C26.1071 17.3234 26.7558 16.6747 27.5814 16.6747C28.407 16.6747 29.0558 17.3234 29.0558 18.149C29.0558 18.9746 28.407 19.6233 27.5814 19.6233Z" fill="#B6C4E0"/>
<path d="M14.3119 15.8489H13.1324V17.618H11.3633V18.7975H13.1324V20.5666H14.3119V18.7975H16.081V17.618H14.3119V15.8489Z" fill="#B6C4E0"/>
<path fill-rule="evenodd" clip-rule="evenodd" d="M16.5237 11.3963C15.5675 10.9589 14.4882 10.8737 13.3686 11.1901C11.393 11.7207 9.59429 13.3426 8.44431 15.6425C6.46871 19.5642 7.11747 24.2526 9.85962 26.0808C10.6262 26.582 11.4518 26.8474 12.3661 26.8474C12.7789 26.8474 13.2211 26.7883 13.6635 26.6705C15.5801 26.1692 17.3494 24.6065 18.5287 22.4244C20.0621 21.7757 21.8017 21.7757 23.3351 22.3653C24.4851 24.5178 26.2247 26.0217 28.1119 26.523C29.4684 26.8768 30.7362 26.6705 31.8271 25.9333C34.481 24.164 35.1004 19.5642 33.1836 15.7015L33.1836 15.7015C32.063 13.4606 30.2939 11.8682 28.3478 11.3376C26.9915 11.0132 25.7235 11.1901 24.6325 11.8682C24.0968 12.053 23.5494 12.1915 22.9905 12.2909C21.5153 12.66 20.1144 12.5982 18.5665 12.1763C18.073 12.061 17.5861 11.9098 17.1134 11.7207C17.0797 11.6988 17.0457 11.6774 17.0116 11.6565C16.8477 11.5928 16.6817 11.5259 16.5134 11.4557L16.5237 11.3963ZM28.3478 25.3731C29.3503 25.6385 30.3234 25.491 31.1196 24.9603L31.1195 24.9605C33.3604 23.4861 33.8028 19.5642 32.122 16.2324C31.1489 14.3157 29.6155 12.9004 28.0233 12.4876C26.9915 12.2222 26.0478 12.3697 25.2222 12.9004L25.1631 12.9298L25.0157 12.9888C22.2734 13.9323 19.3249 13.8732 16.612 12.8119L16.4941 12.7529C15.9339 12.3695 15.3146 12.1926 14.6364 12.1926C14.3121 12.1926 13.9877 12.2516 13.6339 12.3401C11.9827 12.7825 10.4199 14.1978 9.44682 16.1734C7.73654 19.5938 8.17879 23.6041 10.4493 25.1078C11.2751 25.6679 12.248 25.8154 13.2801 25.55C14.9019 25.1372 16.4353 23.7217 17.4378 21.8052C17.5556 21.6283 17.7031 21.4808 17.88 21.3924C19.7081 20.5964 21.8312 20.5374 23.6889 21.2745L23.8067 21.3039C24.0132 21.3924 24.1901 21.5399 24.2786 21.7167C25.2516 23.6038 26.7556 24.9603 28.3478 25.3731Z" fill="#B6C4E0"/>
</svg>
