<svg width="78" height="79" viewBox="0 0 78 79" fill="none" xmlns="http://www.w3.org/2000/svg">
<g filter="url(#filter0_d_4731_33832)">
<circle cx="39.0745" cy="35.2308" r="20.5673" stroke="url(#paint0_linear_4731_33832)" stroke-width="1.32692" shape-rendering="crispEdges"/>
</g>
<g clip-path="url(#clip0_4731_33832)">
<path d="M46.2957 31.8837C46.4329 32.451 46.464 32.7876 46.5077 34.4271C46.5264 35.4619 46.5576 36.3284 46.5638 36.3284C46.5638 36.3347 46.6448 36.3658 46.7446 36.3845C46.9877 36.4469 46.969 36.6339 46.676 36.9144L46.4329 37.1513V38.0552C46.4329 38.8593 46.4204 38.9528 46.3207 38.9154C46.2272 38.878 46.2147 38.9092 46.2396 39.0401C46.2583 39.1398 46.2459 39.2583 46.2209 39.3082C46.1773 39.3643 46.1586 39.3082 46.1586 39.1398C46.1586 39.0027 46.196 38.8593 46.2272 38.8406C46.2833 38.8032 46.277 38.7658 46.2209 38.691C46.1773 38.6349 46.1586 38.5726 46.1835 38.5414C46.2022 38.5227 46.2272 38.5414 46.2272 38.5913C46.2272 38.6411 46.2396 38.6661 46.2646 38.6474C46.3144 38.6037 46.0963 38.1736 46.0214 38.1736C45.9965 38.1736 45.9279 38.2671 45.8843 38.3856C45.8344 38.4978 45.7596 38.5975 45.716 38.5975C45.6724 38.5975 45.6911 38.6349 45.7409 38.6723C45.822 38.7284 45.8095 38.7347 45.6911 38.6973C45.5913 38.6723 45.529 38.6848 45.529 38.7347C45.529 38.7783 45.504 38.7908 45.4604 38.7721C45.4168 38.7471 45.3918 38.8219 45.3918 38.9404C45.3918 39.065 45.3544 39.1585 45.3108 39.1585C45.2485 39.1585 45.2111 38.9653 45.1986 38.4479C45.1861 37.943 45.2048 37.7622 45.2609 37.7934C45.317 37.8308 45.317 37.7996 45.2609 37.6936C45.2173 37.6188 45.1861 37.4443 45.1861 37.3134C45.1861 37.1388 45.13 37.0204 44.9742 36.8708C44.7124 36.6276 44.6937 36.4157 44.9243 36.4157C45.1363 36.4157 45.4666 36.0728 45.4666 35.8547C45.4666 35.6988 45.4604 35.6926 45.3295 35.8173C45.1176 36.0043 45.0926 35.8983 45.2921 35.7113C45.3918 35.6178 45.4666 35.4682 45.4666 35.3747C45.4666 35.2063 45.4604 35.2063 45.342 35.3123C45.13 35.5056 45.0739 35.4432 45.2734 35.2375C45.4853 35.0131 45.6038 34.5954 45.4043 34.7513C45.1737 34.957 45.0864 34.957 45.2796 34.7513C45.3918 34.6266 45.4666 34.4708 45.4666 34.3461V34.1528L45.2796 34.3211L45.0864 34.4895L45.2796 34.2713C45.3918 34.1466 45.4666 33.9783 45.4666 33.8598C45.4666 33.6728 45.4604 33.6728 45.342 33.7788C45.1612 33.9409 45.1487 33.9347 45.1487 33.6292C45.13 32.7814 45.317 32.1144 45.7098 31.6593C45.7908 31.5658 45.8157 31.5097 45.7596 31.5471C45.6973 31.5845 45.6786 31.5721 45.7098 31.5284C45.7347 31.4785 45.8095 31.4474 45.8656 31.4474C45.9217 31.4474 45.9591 31.4224 45.9342 31.385C45.8968 31.3289 45.984 31.2604 46.1087 31.2479C46.115 31.2417 46.2022 31.5347 46.2957 31.8837Z" fill="#E77817"/>
<path d="M37.8495 32.2142C37.9056 32.2204 37.9243 32.476 37.918 32.9996L37.9118 33.7788L36.9144 33.7726L35.9108 33.7601V34.957H37.8058V36.4968H35.9108V37.6188L36.4593 37.6251C36.7523 37.6251 37.2074 37.6251 37.4754 37.6188L37.943 37.6126V38.0178C37.9367 38.4105 37.9367 38.4168 37.8183 38.2859C37.6001 38.0427 37.2697 38.0739 37.2323 38.342C37.2199 38.423 37.1637 38.504 37.1076 38.504C37.0515 38.5103 36.958 38.5165 36.9206 38.5227C36.8708 38.5227 36.8271 38.5913 36.8271 38.6724C36.8271 38.7846 36.7835 38.8033 36.5653 38.797C36.4219 38.7908 36.291 38.8282 36.2786 38.8656C36.2287 39.0152 36.1476 38.9591 36.104 38.7472C36.0604 38.5664 36.0417 38.5539 35.7612 38.5664C35.5928 38.5726 35.3871 38.6163 35.2999 38.6661C35.1627 38.7409 35.1191 38.7347 35.0567 38.6474C35.0006 38.5788 34.9196 38.5477 34.8199 38.5788C34.6952 38.6163 34.6578 38.6786 34.6578 38.8594C34.6578 38.984 34.6328 39.1087 34.5892 39.1337C34.5518 39.1524 34.5206 39.1274 34.5206 39.0651C34.5206 38.9903 34.4832 38.9591 34.4209 38.984C34.2713 39.0401 34.2588 38.7347 34.2588 35.3061L34.2463 32.2266L35.1502 32.2329C35.6489 32.2329 36.0354 32.2578 36.0167 32.2952C35.998 32.3201 36.0105 32.3638 36.0541 32.395C36.0915 32.4137 36.1227 32.395 36.1227 32.3451C36.1227 32.2703 36.2723 32.2453 36.7274 32.2391C37.0578 32.2329 37.3383 32.2204 37.3508 32.2017C37.3632 32.1892 37.4692 32.183 37.5752 32.1892C37.6812 32.2017 37.8058 32.2142 37.8495 32.2142ZM41.6521 32.2453C42.556 32.2516 42.7679 32.2703 42.8427 32.3576C42.9175 32.4573 42.9237 32.4573 42.8926 32.3576C42.8552 32.264 42.9175 32.2453 43.2417 32.2329C43.4536 32.2266 43.6282 32.2453 43.6344 32.2765C43.6531 32.5259 43.6593 33.5544 43.6406 33.6417C43.6157 33.7477 43.491 33.7664 42.6183 33.7788L41.6271 33.7976V34.9196L42.5248 34.9383L43.4162 34.957V36.4968L42.7367 36.4905C42.3565 36.4843 41.9513 36.4843 41.8391 36.4843L41.6271 36.4905L41.6396 37.5129C41.6521 38.3482 41.6396 38.5477 41.5586 38.6412C41.5024 38.6973 41.465 38.7721 41.49 38.8095C41.5336 38.8656 41.4339 38.903 41.303 38.8781C41.2656 38.8781 41.2469 38.903 41.2469 38.9404C41.2469 38.984 41.1845 39.009 41.1097 39.009C40.9975 39.009 40.9726 38.9591 40.9601 38.7409C40.9539 38.6038 40.9539 38.4604 40.9601 38.423C40.9663 38.3981 40.8791 38.3544 40.7544 38.3233C40.636 38.3046 40.5424 38.2485 40.5487 38.2048C40.5736 37.9742 40.53 37.8121 40.4365 37.8121C40.3741 37.8121 40.3118 37.7622 40.2869 37.7061C40.2619 37.65 40.1871 37.6001 40.1186 37.6001C40.05 37.6001 39.9814 37.5378 39.9565 37.4505C39.9378 37.3757 39.9191 36.1664 39.9315 34.77L39.944 32.2329L40.1871 32.1892C40.318 32.1705 40.4614 32.1705 40.4863 32.183C40.5237 32.2204 41.0474 32.2391 41.6521 32.2453ZM21.0557 32.264C21.0557 32.2827 21.0183 32.3638 20.9871 32.4386C20.931 32.5321 20.9373 32.5695 20.9871 32.5695C21.1056 32.5695 21.2801 32.7752 21.2302 32.85C21.2115 32.8874 21.1554 32.9186 21.118 32.9186C21.0744 32.9186 21.0682 32.8812 21.0993 32.8376C21.1305 32.7877 21.118 32.7814 21.0619 32.8126C21.0183 32.8376 20.9996 32.8937 21.0183 32.9311C21.0432 32.9685 21.0245 32.9934 20.9809 32.9934C20.9373 32.9934 20.9248 33.0308 20.956 33.0682C20.9809 33.1243 21.0183 33.1181 21.0619 33.0557C21.118 32.9622 21.1554 33.0183 21.1305 33.1555C21.1243 33.1929 21.1492 33.1991 21.1928 33.1679C21.2365 33.1492 21.2489 33.0994 21.2365 33.0682C21.2178 33.0433 21.2365 32.9747 21.2739 32.9186C21.33 32.8251 21.3487 32.8376 21.4173 32.9311C21.4547 32.9996 21.5232 33.0557 21.5669 33.0557C21.6167 33.0557 21.5482 32.9435 21.411 32.8126C21.2178 32.6069 21.1928 32.5508 21.2739 32.4635C21.33 32.395 21.3362 32.3576 21.2801 32.3576C21.2365 32.3576 21.2053 32.395 21.2053 32.4324C21.2053 32.4698 21.1679 32.4822 21.1367 32.4573C21.0931 32.4324 21.0993 32.3825 21.1554 32.3201C21.224 32.2516 21.6292 32.2266 22.9071 32.2204L24.5715 32.2142V33.7539H22.5269V34.9446H24.3471V36.4968L23.4557 36.4843H22.5643L22.558 37.5004C22.5518 38.0614 22.5206 38.5539 22.5019 38.5913C22.477 38.635 22.3773 38.6537 22.2775 38.6412C22.1217 38.6163 22.1154 38.6287 22.1528 38.7908C22.1902 38.9155 22.1715 38.9591 22.1154 38.9217C22.0718 38.8905 22.0406 38.9092 22.0406 38.9404C22.0406 39.1025 21.916 39.009 21.8786 38.8282C21.8349 38.5976 21.8848 38.4417 21.997 38.504C22.0406 38.5227 22.0095 38.4853 21.9347 38.4043C21.8536 38.3233 21.7289 38.2796 21.6417 38.2983C21.5045 38.3233 21.4796 38.2983 21.4796 38.0801C21.4796 37.9118 21.4422 37.8183 21.3612 37.7934C21.2489 37.7498 21.143 37.6937 21.037 37.6376L20.8438 37.544V34.9196C20.85 33.4796 20.8687 32.2827 20.8936 32.264C20.9497 32.2079 21.0557 32.2079 21.0557 32.264ZM25.65 32.3388C25.6313 32.3887 25.6437 32.4324 25.6749 32.4324C25.7123 32.4324 25.7497 32.3887 25.7747 32.3326C25.8121 32.2516 26.024 32.2329 26.9715 32.2578C28.3554 32.2827 28.7108 32.3763 29.1471 32.8126C29.6022 33.2614 29.7705 33.6916 29.7705 34.3711C29.7767 34.8573 29.7456 35.0007 29.5586 35.3934C29.3341 35.8672 29.0412 36.1601 28.6422 36.2973C28.4676 36.3596 28.4302 36.397 28.4801 36.4843C28.5487 36.609 29.1471 37.4505 29.4027 37.7872C29.5586 37.9804 29.5586 37.9929 29.4214 38.0801C29.3528 38.13 29.2469 38.2048 29.2032 38.2485C29.1347 38.3046 29.1097 38.2983 29.1097 38.2235C29.1097 38.1612 29.0599 38.1425 28.9726 38.1612C28.8728 38.1861 28.8292 38.1612 28.8292 38.0926C28.8292 37.9679 28.7045 37.9118 28.53 37.9617C28.424 37.9866 28.4053 38.0427 28.424 38.2298C28.4365 38.3607 28.424 38.4666 28.3991 38.4666C28.3741 38.4666 28.343 38.4168 28.343 38.3607C28.343 38.3046 28.2993 38.2547 28.2619 38.2547C28.156 38.2547 27.9939 37.9368 27.9939 37.7498C27.9939 37.5939 27.863 37.5814 27.8443 37.7311C27.8256 37.943 27.8193 37.9679 27.7383 38.049C27.6822 38.1051 27.5575 37.943 27.2708 37.463C27.0463 37.1014 26.8718 36.7711 26.8718 36.7274C26.8718 36.69 26.8344 36.6339 26.797 36.6152C26.7471 36.5778 26.7284 36.8583 26.7409 37.5378C26.7471 38.0801 26.7347 38.5539 26.7035 38.5976C26.6661 38.6537 26.61 38.6599 26.5352 38.6163C26.4728 38.5913 26.3793 38.5726 26.3419 38.5913C26.3045 38.61 26.2422 38.5477 26.2235 38.4604C26.1986 38.3794 26.1612 38.3295 26.1425 38.3482C26.1113 38.3731 26.0365 38.3357 25.9617 38.2547C25.8121 38.1051 25.6749 38.0864 25.4692 38.1986C25.3944 38.236 25.276 38.2485 25.1949 38.2298C25.0702 38.1861 25.064 38.0801 25.064 35.2687C25.064 33.6604 25.0765 32.3326 25.0889 32.3014C25.1014 32.2765 25.2448 32.2578 25.4069 32.2578C25.6063 32.2516 25.6749 32.2765 25.65 32.3388ZM33.81 32.9934V33.7664H31.8152L31.8276 34.0594C31.8339 34.2277 31.8401 34.4957 31.8401 34.6578L31.8463 34.957H33.7414V36.4968H31.8463V37.6625L32.8188 37.6438L33.785 37.6251L33.8287 37.9617C33.8474 38.1425 33.8349 38.317 33.8037 38.3607C33.7601 38.3981 33.7414 38.3731 33.7414 38.3046C33.7414 38.1612 33.4983 38.0552 33.305 38.0988C33.2302 38.1113 33.1804 38.1986 33.1804 38.2921C33.1804 38.4853 33.0495 38.5851 32.9622 38.4542C32.9186 38.3856 32.8999 38.3794 32.8999 38.4417C32.8999 38.4916 32.8562 38.5352 32.8001 38.5352C32.7378 38.5352 32.7191 38.5851 32.7378 38.6848C32.7752 38.8095 32.7565 38.8282 32.6256 38.7846C32.5258 38.7596 32.4074 38.7783 32.2952 38.8531C32.0708 39.0027 32.0209 38.9653 31.996 38.635C31.9897 38.5601 31.9461 38.5414 31.8463 38.5726C31.7528 38.5976 31.6905 38.5788 31.6656 38.504C31.6282 38.4105 31.6095 38.4105 31.5409 38.4916C31.4973 38.5477 31.3663 38.6225 31.2417 38.6661C31.0671 38.7222 31.011 38.7222 30.9799 38.635C30.9549 38.5664 30.8863 38.5414 30.7928 38.5726C30.6993 38.6038 30.5996 38.5726 30.4999 38.4916C30.344 38.3669 30.344 38.3669 30.4749 38.5103C30.5934 38.6599 30.6432 39.0651 30.5373 39.1274C30.5123 39.1399 30.425 39.115 30.3502 39.0588C30.2193 38.9591 30.2131 38.8531 30.1882 35.6053L30.1695 32.2453L31.996 32.2391L33.8162 32.2329L33.81 32.9934ZM26.7347 34.5331V35.3747L26.9653 35.3685C27.6012 35.356 28.0313 35.0318 28.0188 34.5643C28.0063 33.9659 27.7134 33.6978 27.0837 33.6978H26.7347V34.5331ZM51.545 32.4137C52.2058 32.7066 52.5986 33.2116 52.7295 33.916C52.8043 34.3586 52.7419 34.9944 52.5736 35.3872C52.4427 35.7176 52.0126 36.1352 51.6697 36.2848L51.3954 36.397L51.9627 37.2012L52.5362 37.9991L52.3305 38.1612C52.0999 38.3482 52.0126 38.3669 52.0812 38.2111C52.1186 38.1113 52.0998 38.1051 51.9689 38.1737C51.8879 38.2235 51.838 38.2859 51.8567 38.3295C51.8817 38.3669 51.8692 38.3918 51.8318 38.3918C51.7882 38.3918 51.7757 38.3108 51.8069 38.1799C51.8443 37.9866 51.8318 37.9679 51.6323 37.9679C51.4328 37.9679 51.4141 37.9804 51.4391 38.2111C51.4578 38.504 51.3767 38.4978 51.2147 38.2111C51.1523 38.0926 51.0713 37.9866 51.0463 37.9804C51.0089 37.9679 50.9902 37.8744 50.9902 37.7747C50.9902 37.5565 50.8282 37.5939 50.8157 37.8121C50.7908 38.2111 50.6536 38.1051 50.1986 37.3196L49.731 36.5279V37.6064C49.731 38.6038 49.7248 38.6786 49.6126 38.6287C49.544 38.6038 49.4318 38.5788 49.3695 38.5788C49.3009 38.5788 49.2448 38.5352 49.2448 38.4791C49.2448 38.423 49.1949 38.3794 49.1388 38.3794C49.0889 38.3794 49.0141 38.3295 48.9767 38.2734C48.9518 38.2111 48.8147 38.155 48.6837 38.1363C48.3596 38.0926 48.1913 38.2547 48.1913 38.6038C48.1913 38.7534 48.1663 38.8718 48.1227 38.8718C48.0479 38.8718 48.0167 32.3388 48.0978 32.264C48.1227 32.2453 48.8396 32.2266 49.6936 32.2453C51.065 32.264 51.2645 32.2827 51.545 32.4137ZM53.5648 32.3077C53.6271 32.37 53.6458 32.37 53.6458 32.3077C53.6458 32.2516 53.783 32.2266 54.0635 32.2266C54.4063 32.2266 54.4687 32.2453 54.4437 32.3326C54.4188 32.4012 54.4437 32.4386 54.5123 32.4386C54.5747 32.4386 54.6432 32.3887 54.6682 32.3326C54.7243 32.1955 54.8365 32.2017 54.8365 32.3451C54.8365 32.4511 54.8427 32.4511 54.9611 32.3451C55.117 32.2079 55.4037 32.1892 55.5222 32.3077C55.5721 32.3576 55.6032 32.3638 55.6032 32.3201C55.6032 32.2765 55.8463 32.2516 56.2017 32.2516H56.8001V33.8038L55.8214 33.7851L54.8427 33.7664V34.9633H56.7378V36.503H54.8427V37.6625L55.8152 37.6438L56.7814 37.6251L56.825 37.9617C56.8687 38.342 56.8313 38.423 56.7066 38.2422C56.5383 38.0178 56.1767 38.1176 56.1767 38.3856C56.1767 38.5414 56.158 38.5539 55.996 38.5165C55.8463 38.4729 55.8089 38.4978 55.7778 38.6163C55.7528 38.7222 55.6967 38.7534 55.5845 38.7409C55.5035 38.7347 55.3539 38.7783 55.2479 38.8469C55.1419 38.9155 55.0547 38.9466 55.0422 38.9155C55.0422 38.8781 55.0297 38.822 55.0235 38.7908C55.011 38.7472 55.0048 38.6786 54.9986 38.6287C54.9923 38.5664 54.8863 38.5477 54.6432 38.5539C54.4562 38.5664 54.2941 38.5976 54.2941 38.6225C54.2941 38.7222 54.051 38.7285 53.97 38.6287C53.9201 38.5664 53.8453 38.5477 53.7456 38.5726C53.6271 38.6163 53.5897 38.6786 53.5897 38.8656C53.5897 39.1025 53.5211 39.1524 53.2905 39.0588C53.197 39.0214 53.1845 38.5851 53.1783 35.9046C53.1721 33.7227 53.1845 32.7939 53.2406 32.7939C53.2905 32.7939 53.2967 32.7503 53.2406 32.663C53.116 32.4199 53.1596 32.2329 53.3341 32.2329C53.4089 32.2204 53.5149 32.2578 53.5648 32.3077ZM49.7248 34.5456V35.3996L50.13 35.3498C50.8157 35.275 51.1461 34.8573 50.984 34.2651C50.878 33.8786 50.5975 33.6978 50.0926 33.6978H49.7186V34.5456H49.7248Z" fill="url(#paint1_linear_4731_33832)"/>
</g>
<defs>
<filter id="filter0_d_4731_33832" x="0.151442" y="0.730769" width="77.8456" height="77.8462" filterUnits="userSpaceOnUse" color-interpolation-filters="sRGB">
<feFlood flood-opacity="0" result="BackgroundImageFix"/>
<feColorMatrix in="SourceAlpha" type="matrix" values="0 0 0 0 0 0 0 0 0 0 0 0 0 0 0 0 0 0 127 0" result="hardAlpha"/>
<feOffset dy="4.42308"/>
<feGaussianBlur stdDeviation="8.84615"/>
<feComposite in2="hardAlpha" operator="out"/>
<feColorMatrix type="matrix" values="0 0 0 0 0.694118 0 0 0 0 0.596078 0 0 0 0 0.384314 0 0 0 0.3 0"/>
<feBlend mode="normal" in2="BackgroundImageFix" result="effect1_dropShadow_4731_33832"/>
<feBlend mode="normal" in="SourceGraphic" in2="effect1_dropShadow_4731_33832" result="shape"/>
</filter>
<linearGradient id="paint0_linear_4731_33832" x1="20.4976" y1="14" x2="47.9207" y2="56.4615" gradientUnits="userSpaceOnUse">
<stop stop-color="#FFD888" stop-opacity="0.62"/>
<stop offset="1" stop-color="#A26F07"/>
</linearGradient>
<linearGradient id="paint1_linear_4731_33832" x1="12.4906" y1="32.1664" x2="15.8586" y2="48.6233" gradientUnits="userSpaceOnUse">
<stop stop-color="#F8D17F"/>
<stop offset="1" stop-color="#B0801C"/>
</linearGradient>
<clipPath id="clip0_4731_33832">
<rect width="36" height="8.0928" fill="white" transform="translate(20.8438 31.2472)"/>
</clipPath>
</defs>
</svg>
