<svg width="39" height="38" viewBox="0 0 39 38" fill="none" xmlns="http://www.w3.org/2000/svg">
<path fill-rule="evenodd" clip-rule="evenodd" d="M18.4542 27.1798V23.8784L18.2841 23.8527C15.0303 23.3612 12.499 20.61 12.499 17.3838V11.6262C12.499 10.3336 13.6518 9.19995 15.1199 9.19995H23.4781C24.9463 9.19995 26.099 10.3336 26.099 11.6262V17.3838C26.099 20.7092 23.5696 23.3609 20.3139 23.8527L20.1438 23.8784V27.1798H23.4781C23.7481 27.1798 23.9567 27.2661 24.0966 27.4013C24.2359 27.536 24.3229 27.7343 24.3229 27.9898C24.3229 28.2454 24.2359 28.4437 24.0966 28.5784C23.9567 28.7136 23.7481 28.7999 23.4781 28.7999H15.1199C14.85 28.7999 14.6414 28.7136 14.5015 28.5784C14.3622 28.4437 14.2751 28.2454 14.2751 27.9898C14.2751 27.7343 14.3622 27.536 14.5015 27.4013C14.6414 27.2661 14.85 27.1798 15.1199 27.1798H18.4542ZM19.299 22.3313C22.1195 22.3313 24.4095 20.1268 24.4095 17.3838V11.6262C24.4095 11.386 24.2501 11.183 24.0854 11.0527C23.9169 10.9194 23.6916 10.8202 23.4781 10.8202H15.1199C14.6186 10.8202 14.1886 11.1875 14.1886 11.6262V17.3838C14.1886 20.1268 16.4786 22.3313 19.299 22.3313Z" fill="#B6C4E0"/>
<path fill-rule="evenodd" clip-rule="evenodd" d="M9.49902 11.0389C9.49902 10.7704 9.58449 10.5632 9.71812 10.4244C9.85109 10.2862 10.0468 10.2 10.299 10.2C10.7689 10.2 11.099 10.6092 11.099 11.0389V16.961C11.099 17.2295 11.0136 17.4367 10.8799 17.5755C10.747 17.7137 10.5512 17.8 10.299 17.8C10.0468 17.8 9.85109 17.7137 9.71812 17.5755C9.58449 17.4367 9.49902 17.2295 9.49902 16.961V11.0389Z" fill="#B6C4E0"/>
<path fill-rule="evenodd" clip-rule="evenodd" d="M27.499 11.0389C27.499 10.7704 27.5845 10.5632 27.7181 10.4244C27.8511 10.2862 28.0468 10.2 28.299 10.2C28.7689 10.2 29.099 10.6092 29.099 11.0389V16.961C29.099 17.2295 29.0136 17.4367 28.8799 17.5755C28.747 17.7137 28.5512 17.8 28.299 17.8C28.0468 17.8 27.8511 17.7137 27.7181 17.5755C27.5845 17.4367 27.499 17.2295 27.499 16.961V11.0389Z" fill="#B6C4E0"/>
</svg>
