<svg width="43" height="43" viewBox="0 0 43 43" fill="none" xmlns="http://www.w3.org/2000/svg">
<circle cx="21.2308" cy="21.2308" r="21.2308" fill="#293347"/>
<path fill-rule="evenodd" clip-rule="evenodd" d="M22.2208 28.9468L23.8679 32.47L26.3648 27.0586C27.3626 24.8993 29.3515 21.5156 31.7563 21.4088H31.8131H31.7563C29.3541 21.3004 27.3592 17.9149 26.3673 15.7573L21.4253 5.00012L19.7773 8.52329L25.2377 20.4704C25.2377 20.4704 26.8624 21.371 27.7458 21.408C26.8624 21.445 25.2377 22.3447 25.2377 22.3447L22.2208 28.9468Z" fill="#677AA3"/>
<path fill-rule="evenodd" clip-rule="evenodd" d="M20.5949 13.8685L18.9478 10.3445L16.4509 15.7558C15.4504 17.9152 13.4607 21.2988 11.0568 21.4056H11H11.0568C13.4607 21.5115 15.4548 24.8935 16.4475 27.0545L21.3904 37.8117L23.0375 34.2877L17.4772 22.1702C17.4772 22.1702 15.9533 21.4435 15.0664 21.4065C15.9498 21.3694 17.4385 20.7048 17.4385 20.7048L20.5949 13.8685Z" fill="#677AA3"/>
<path fill-rule="evenodd" clip-rule="evenodd" d="M21.4145 17.116L22.4055 19.2641L23.3965 21.4123L22.4055 23.5605L21.4145 25.7086L20.4226 23.5605L19.4316 21.4123L20.4226 19.2641L21.4145 17.116Z" fill="#677AA3"/>
</svg>
