<svg width="22" height="33" viewBox="0 0 22 33" fill="none" xmlns="http://www.w3.org/2000/svg">
<path fill-rule="evenodd" clip-rule="evenodd" d="M11.6827 23.9467L13.3298 27.4698L15.8267 22.0585C16.8246 19.8992 18.8134 16.5155 21.2182 16.4087H21.275H21.2182C18.816 16.3002 16.8211 12.9148 15.8293 10.7572L10.8872 0L9.23926 3.52316L14.6996 15.4702C14.6996 15.4702 16.3243 16.3708 17.2077 16.4079C16.3243 16.4449 14.6996 17.3446 14.6996 17.3446L11.6827 23.9467Z" fill="#677AA3"/>
<path fill-rule="evenodd" clip-rule="evenodd" d="M10.0568 8.86851L8.4097 5.34448L5.91283 10.7558C4.91236 12.9152 2.92262 16.2988 0.518739 16.4056H0.461914H0.518739C2.92262 16.5115 4.91667 19.8935 5.90939 22.0545L10.8523 32.8117L12.4994 29.2877L6.93913 17.1702C6.93913 17.1702 5.41518 16.4435 4.52836 16.4065C5.41174 16.3694 6.90038 15.7048 6.90038 15.7048L10.0568 8.86851Z" fill="#677AA3"/>
<path fill-rule="evenodd" clip-rule="evenodd" d="M10.8754 12.116L11.8664 14.2641L12.8574 16.4123L11.8664 18.5605L10.8754 20.7086L9.88358 18.5605L8.89258 16.4123L9.88358 14.2641L10.8754 12.116Z" fill="#677AA3"/>
</svg>
