<svg width="79" height="79" viewBox="0 0 79 79" fill="none" xmlns="http://www.w3.org/2000/svg">
<g filter="url(#filter0_d_4732_38289)">
<circle cx="39.1526" cy="35.2308" r="20.5673" stroke="url(#paint0_linear_4732_38289)" stroke-width="1.32692" shape-rendering="crispEdges"/>
</g>
<g clip-path="url(#clip0_4732_38289)">
<path d="M22.8061 32.2289C23.4194 31.9641 24.1369 31.9558 24.7942 32.0751C25.2923 32.1809 25.8208 32.4306 26.0089 32.8792C26.1969 33.396 26.1563 33.9473 26.1571 34.4821C25.5599 34.4798 24.9628 34.4821 24.3664 34.4813C24.3538 34.0373 24.3935 33.591 24.3419 33.1484C24.3529 32.8424 23.7404 32.8447 23.7489 33.1507C23.6845 33.8467 23.7337 34.5473 23.7185 35.2456C23.7329 35.6911 23.682 36.1427 23.7617 36.5845C23.8108 36.7615 24.0616 36.775 24.22 36.715C24.3419 36.6377 24.3445 36.496 24.3572 36.3767C24.3767 36.0452 24.3614 35.7137 24.3665 35.3821C24.9645 35.3806 25.5616 35.3814 26.1597 35.3814C26.1419 35.8847 26.1927 36.4202 25.9538 36.8905C25.5574 37.4718 24.7307 37.6901 24.0022 37.6699C23.3601 37.6646 22.6248 37.5334 22.2259 37.0435C21.9404 36.6475 21.9506 36.1539 21.9277 35.701C21.9319 34.8976 21.8972 34.0928 21.9599 33.291C21.9862 32.8297 22.3436 32.4224 22.8061 32.2289ZM27.1211 32.1021C27.9885 32.0916 28.8567 32.0924 29.7241 32.1021C30.0537 33.9218 30.406 35.7384 30.7415 37.5573C30.1833 37.5557 29.625 37.5573 29.0668 37.5557C29.0177 37.2152 28.9813 36.8731 28.9211 36.5334C28.722 36.5364 28.5221 36.5364 28.323 36.5356C28.3586 36.231 28.3975 35.9266 28.4348 35.622C28.5576 35.622 28.6796 35.6212 28.8024 35.6212C28.6906 34.8419 28.6068 34.0589 28.4721 33.2826C28.2976 34.7092 28.0875 36.1321 27.8961 37.5572C27.3363 37.5566 26.7755 37.5566 26.2156 37.5566C26.5137 35.7385 26.8289 33.9218 27.1211 32.1021ZM31.0481 32.0969C31.6419 32.0954 32.2366 32.0961 32.8312 32.0961C32.832 33.5512 32.8312 35.0056 32.832 36.4606C33.1954 36.4622 33.5588 36.4615 33.9222 36.4615C33.9239 36.8267 33.9231 37.1912 33.9231 37.5566C32.965 37.5574 32.007 37.5558 31.049 37.5566C31.0473 35.7369 31.049 33.9165 31.0481 32.0969ZM34.3466 32.0969C34.9421 32.0954 35.5384 32.0961 36.1348 32.0961C36.1365 33.5512 36.1348 35.0056 36.1356 36.4606C36.4956 36.4622 36.8556 36.4615 37.2156 36.4615C37.2165 36.8267 37.2165 37.1912 37.2165 37.5566H34.3475C34.3458 35.7369 34.3474 33.9165 34.3466 32.0969ZM39.4341 32.0969C40.2219 32.0916 41.0105 32.0969 41.7973 32.1276C42.2116 32.1539 42.6453 32.1794 43.0147 32.3646C43.3476 32.5416 43.5517 32.8769 43.555 33.2197C43.6093 34.1693 43.578 35.1219 43.5814 36.0722C43.5602 36.4645 43.6068 36.9206 43.2857 37.2333C42.9282 37.5227 42.415 37.5371 41.9568 37.5536C41.1165 37.5618 40.2753 37.5536 39.4341 37.5566C39.4333 35.7369 39.4341 33.9165 39.4341 32.0969ZM41.2223 33.0359C41.2231 34.2345 41.2231 35.4325 41.2223 36.631C41.3925 36.598 41.6517 36.6287 41.727 36.4502C41.8321 36.0564 41.7762 35.6455 41.7906 35.2434C41.7762 34.5863 41.822 33.9263 41.7643 33.27C41.7398 33.0337 41.4197 33.0434 41.2223 33.0359ZM44.0278 32.0969C44.6207 32.0953 45.2137 32.0969 45.8066 32.0961C45.8075 33.4222 45.8066 34.7483 45.8066 36.0744C45.8101 36.2499 45.8058 36.427 45.843 36.6002C45.8701 36.799 46.2657 36.79 46.2828 36.5905C46.3225 36.4195 46.3183 36.2439 46.3208 36.0707C46.3191 34.7461 46.3216 33.4215 46.3191 32.0969C46.912 32.0946 47.505 32.0969 48.0988 32.0961C48.0971 33.3712 48.104 34.6463 48.0954 35.9207C48.0768 36.2717 48.1208 36.658 47.8854 36.9633C47.6049 37.3795 47.0604 37.591 46.5334 37.6405C45.866 37.708 45.1401 37.6383 44.581 37.2827C44.2295 37.0614 44.0456 36.6804 44.0498 36.3038C44.0074 34.9021 44.0371 33.4995 44.0278 32.0969ZM48.4824 32.0961H52.3984C52.3993 32.4614 52.3984 32.8259 52.3993 33.1912C52.0452 33.1912 51.6912 33.1904 51.338 33.1919V37.5566C50.7399 37.5566 50.1418 37.5574 49.5439 37.5558V33.1919C49.1915 33.1912 48.8391 33.1904 48.4867 33.1919C48.4791 32.8267 48.4833 32.4614 48.4824 32.0961ZM52.7196 32.0961C53.2684 32.1021 53.8174 32.0834 54.3663 32.1059C54.7033 33.0862 55.0719 34.0575 55.4208 35.0348C55.5013 35.2764 55.6334 35.5126 55.6249 35.77C55.6207 36.3752 55.6241 36.9806 55.6225 37.5858C55.0727 37.5866 54.5237 37.5866 53.974 37.5858C53.974 37.0053 53.9715 36.4248 53.9758 35.8435C53.9775 35.7131 53.968 35.5802 53.9215 35.4549C53.5184 34.3365 53.121 33.2159 52.7196 32.0961ZM55.2853 32.0969C55.8308 32.0953 56.3764 32.0969 56.9219 32.0961C56.5372 33.1297 56.1578 34.1648 55.7732 35.1983C55.5292 34.5083 55.2557 33.8249 55.0345 33.1296C55.0863 32.7809 55.2058 32.4419 55.2853 32.0969Z" fill="url(#paint1_linear_4732_38289)"/>
<path d="M37.0126 33.4052C37.326 33.2829 37.7952 33.4014 37.8469 33.736C37.8816 34.1395 37.885 34.549 37.8435 34.9526C37.7487 35.4168 36.8719 35.4386 36.7339 34.9886C36.6661 34.6278 36.7042 34.2565 36.7025 33.892C36.6924 33.6947 36.7966 33.4824 37.0126 33.4052ZM37.226 33.6632C37.1887 34.1095 37.204 34.558 37.2167 35.0051L37.3361 34.9706C37.3895 34.5588 37.3734 34.1365 37.3471 33.7232C37.3175 33.7082 37.2565 33.6782 37.226 33.6632ZM38.0324 33.4014C38.3026 33.4007 38.572 33.3999 38.8414 33.4014C38.8405 33.5252 38.8397 33.6497 38.8397 33.7742L38.5119 33.7765C38.5119 33.8957 38.511 34.015 38.511 34.1343C38.6084 34.135 38.7067 34.1358 38.8058 34.1373C38.8058 34.2513 38.8058 34.3653 38.8067 34.4793L38.5119 34.4815C38.5119 34.7463 38.511 35.0102 38.5119 35.2752C38.3518 35.2752 38.1925 35.2759 38.0334 35.2767C38.0324 34.651 38.0333 34.0262 38.0324 33.4014Z" fill="url(#paint2_linear_4732_38289)"/>
<path d="M56.2659 37.0681C56.3808 37.0681 56.4755 37.1001 56.5497 37.164C56.624 37.2281 56.6611 37.3036 56.6611 37.3907C56.6611 37.4794 56.6234 37.5554 56.548 37.6186C56.4725 37.6817 56.3818 37.7134 56.2759 37.7134C56.1692 37.7134 56.0784 37.6819 56.0033 37.6188C55.9281 37.5557 55.8906 37.4797 55.8906 37.3907C55.8906 37.3281 55.9104 37.2706 55.9502 37.2182C55.99 37.1658 56.0397 37.1277 56.0994 37.1038C56.1591 37.08 56.2146 37.0681 56.2659 37.0681ZM56.2849 37.1308C56.1905 37.1308 56.1138 37.157 56.0551 37.2092C55.9965 37.2614 55.9671 37.322 55.9671 37.3908C55.9671 37.462 55.9974 37.5232 56.0582 37.574C56.1188 37.6248 56.1918 37.6503 56.2769 37.6503C56.3617 37.6503 56.4344 37.6248 56.4952 37.574C56.5558 37.5231 56.5862 37.462 56.5862 37.3908C56.5862 37.3417 56.5709 37.2964 56.5404 37.2549C56.5099 37.2134 56.4707 37.1824 56.4227 37.1618C56.3748 37.1412 56.3289 37.1308 56.2849 37.1308ZM56.1065 37.5631V37.2207H56.3001C56.348 37.2207 56.3829 37.23 56.4047 37.2487C56.4265 37.2673 56.4373 37.2903 56.4373 37.3175C56.4373 37.3439 56.4283 37.3651 56.41 37.3811C56.3917 37.3972 56.3641 37.4079 56.3272 37.4137C56.344 37.4189 56.3573 37.4262 56.3672 37.4353C56.3771 37.4444 56.3929 37.4642 56.4143 37.4945L56.462 37.5632H56.3599L56.3258 37.508C56.3053 37.4752 56.2873 37.4528 56.2717 37.4408C56.2561 37.429 56.2356 37.423 56.2106 37.423H56.189V37.5632H56.1065V37.5631ZM56.189 37.3684H56.2563C56.2902 37.3684 56.3142 37.3647 56.3285 37.3573C56.3427 37.3498 56.3498 37.3377 56.3498 37.3209C56.3502 37.314 56.3484 37.3072 56.3447 37.3012C56.341 37.2952 56.3355 37.2902 56.3288 37.2868C56.3147 37.2791 56.2934 37.2754 56.2649 37.2754H56.189V37.3684H56.189Z" fill="url(#paint3_linear_4732_38289)"/>
</g>
<defs>
<filter id="filter0_d_4732_38289" x="0.229567" y="0.730769" width="77.8456" height="77.8462" filterUnits="userSpaceOnUse" color-interpolation-filters="sRGB">
<feFlood flood-opacity="0" result="BackgroundImageFix"/>
<feColorMatrix in="SourceAlpha" type="matrix" values="0 0 0 0 0 0 0 0 0 0 0 0 0 0 0 0 0 0 127 0" result="hardAlpha"/>
<feOffset dy="4.42308"/>
<feGaussianBlur stdDeviation="8.84615"/>
<feComposite in2="hardAlpha" operator="out"/>
<feColorMatrix type="matrix" values="0 0 0 0 0.694118 0 0 0 0 0.596078 0 0 0 0 0.384314 0 0 0 0.3 0"/>
<feBlend mode="normal" in2="BackgroundImageFix" result="effect1_dropShadow_4732_38289"/>
<feBlend mode="normal" in="SourceGraphic" in2="effect1_dropShadow_4732_38289" result="shape"/>
</filter>
<linearGradient id="paint0_linear_4732_38289" x1="20.5757" y1="14" x2="47.9988" y2="56.4615" gradientUnits="userSpaceOnUse">
<stop stop-color="#FFD888" stop-opacity="0.62"/>
<stop offset="1" stop-color="#A26F07"/>
</linearGradient>
<linearGradient id="paint1_linear_4732_38289" x1="13.8005" y1="31.995" x2="16.1237" y2="45.5536" gradientUnits="userSpaceOnUse">
<stop stop-color="#F8D17F"/>
<stop offset="1" stop-color="#B0801C"/>
</linearGradient>
<linearGradient id="paint2_linear_4732_38289" x1="36.1949" y1="33.356" x2="38.6001" y2="35.8538" gradientUnits="userSpaceOnUse">
<stop stop-color="#F8D17F"/>
<stop offset="1" stop-color="#B0801C"/>
</linearGradient>
<linearGradient id="paint3_linear_4732_38289" x1="55.7118" y1="37.0674" x2="56.5002" y2="37.9574" gradientUnits="userSpaceOnUse">
<stop stop-color="#F8D17F"/>
<stop offset="1" stop-color="#B0801C"/>
</linearGradient>
<clipPath id="clip0_4732_38289">
<rect width="35" height="6" fill="white" transform="translate(21.9219 31.9998)"/>
</clipPath>
</defs>
</svg>
