<svg width="18" height="16" viewBox="0 0 18 16" fill="none" xmlns="http://www.w3.org/2000/svg">
<path fill-rule="evenodd" clip-rule="evenodd" d="M14.3889 9.708C16.1049 9.708 17.5009 11.097 17.5009 12.804C17.5009 14.511 16.1049 15.9 14.3889 15.9C12.6719 15.9 11.2749 14.511 11.2749 12.804C11.2749 11.097 12.6719 9.708 14.3889 9.708ZM14.3889 11.208C13.4989 11.208 12.7749 11.924 12.7749 12.804C12.7749 13.685 13.4989 14.4 14.3889 14.4C15.2779 14.4 16.0009 13.685 16.0009 12.804C16.0009 11.924 15.2779 11.208 14.3889 11.208ZM7.08128 12.0928C7.49528 12.0928 7.83128 12.4288 7.83128 12.8428C7.83128 13.2568 7.49528 13.5928 7.08128 13.5928H0.780277C0.366277 13.5928 0.0302766 13.2568 0.0302766 12.8428C0.0302766 12.4288 0.366277 12.0928 0.780277 12.0928H7.08128ZM3.11398 0C4.83098 0 6.22698 1.39 6.22698 3.097C6.22698 4.804 4.83098 6.192 3.11398 6.192C1.39798 6.192 0.000976562 4.804 0.000976562 3.097C0.000976562 1.39 1.39798 0 3.11398 0ZM3.11398 1.5C2.22498 1.5 1.50098 2.216 1.50098 3.097C1.50098 3.977 2.22498 4.692 3.11398 4.692C4.00398 4.692 4.72698 3.977 4.72698 3.097C4.72698 2.216 4.00398 1.5 3.11398 1.5ZM16.1921 2.4004C16.6061 2.4004 16.9421 2.7364 16.9421 3.1504C16.9421 3.5644 16.6061 3.9004 16.1921 3.9004H9.89208C9.47808 3.9004 9.14208 3.5644 9.14208 3.1504C9.14208 2.7364 9.47808 2.4004 9.89208 2.4004H16.1921Z" fill="white"/>
</svg>
