<svg width="28" height="27" viewBox="0 0 28 27" fill="none" xmlns="http://www.w3.org/2000/svg">
<path fill-rule="evenodd" clip-rule="evenodd" d="M7.39425 15.8251L10.9133 19.7672C11.2396 20.1324 11.026 20.7122 10.5403 20.7809L7.61831 21.1964C7.45642 21.2197 7.29268 21.1774 7.16219 21.0799L5.29093 19.6826C5.06379 19.5128 4.98254 19.2106 5.09457 18.9508L6.36875 15.9906C6.54603 15.5781 7.09448 15.4892 7.39425 15.8251ZM19.3635 5.44771L21.1166 6.32045C21.3585 6.44058 21.4927 6.70412 21.4484 6.9695L21.0594 9.29478C20.9873 9.72564 20.498 9.94506 20.1262 9.714L16.8361 7.66635C16.4465 7.42365 16.4514 6.85673 16.8459 6.62138L18.772 5.471C18.9517 5.36313 19.1752 5.35455 19.3635 5.44771ZM6.51956 5.29755C6.75039 5.29755 6.93567 5.30736 7.21205 5.52738C7.55983 5.8044 20.4937 14.9162 22.9645 16.6568C23.2021 16.8241 23.2876 17.1287 23.1725 17.3947C22.8013 18.2533 22.0171 20.0809 21.6811 20.8636C21.585 21.0891 21.3634 21.2326 21.1172 21.2326H19.3315C19.1592 21.2326 18.9948 21.1608 18.8785 21.0346L5.48113 6.53558C5.19183 6.22301 5.30201 5.71799 5.69657 5.55496C6.02343 5.41951 6.36259 5.29755 6.51956 5.29755ZM8.7466 2.40289C8.63272 2.29257 8.48253 2.23312 8.3231 2.23312H3.05712C2.73211 2.39493 2.44157 2.58247 2.44157 3.22906V7.44265V8.83022C2.44157 8.92521 2.46373 9.01899 2.50682 9.10418L2.91985 9.92667C3.00664 10.0995 3.00664 10.3024 2.91985 10.4746L2.44157 11.4264V12.0393L3.05712 12.6522V13.2651L2.62192 13.6984C2.5062 13.8136 2.44157 13.9693 2.44157 14.1317V16.0757C2.44157 16.2382 2.5062 16.3944 2.62192 16.5091L2.87676 16.7628C2.99248 16.878 3.05712 17.0337 3.05712 17.1961V19.0911C3.05712 19.2726 2.97402 19.4478 2.83306 19.5624C2.42126 19.8977 2.44157 20.0816 2.44157 20.6197V23.2152C2.44157 23.4886 2.62746 23.7282 2.89092 23.8048C3.90164 24.0978 4.06538 24.297 5.5193 24.297C6.97383 24.297 7.98148 24.297 7.98148 24.297C8.35942 24.297 8.73737 23.9881 8.9725 23.8097C9.13501 23.6866 9.3566 23.64 9.54004 23.7295C9.83119 23.8723 10.2073 24.297 10.6985 24.297C11.0937 24.297 11.7228 23.6841 12.0601 23.6841C12.2743 23.6841 12.8166 24.1205 12.8166 24.1205C12.8757 24.1499 12.9298 24.1885 12.9766 24.2351L13.341 24.7303C13.4568 24.8455 13.6131 24.9099 13.7762 24.9099H14.5106C14.6534 24.9099 14.7925 24.8633 14.9008 24.7707C15.1089 24.5924 15.5158 24.3056 15.9836 24.297H18.8994C18.9979 24.297 19.0933 24.2749 19.1807 24.229C19.35 24.1407 19.6658 23.8661 19.9175 23.7442C20.1588 23.6271 20.4481 23.6798 20.6322 23.8729C20.6666 23.909 20.7005 23.9458 20.7319 23.9795C20.8482 24.1064 21.012 24.297 21.1837 24.297H22.4997C22.6628 24.297 22.8198 24.2326 22.9349 24.1174L23.1067 23.8649C23.2692 23.7031 23.5061 23.6436 23.7259 23.7135C23.9259 23.7766 24.5587 24.1621 25.0789 24.2817C25.4642 24.3699 25.8323 24.0782 25.8323 23.6841V15.7166C25.8323 15.3783 25.5565 15.1037 25.2167 15.1037H24.6012L25.0364 14.6704C25.1521 14.5552 25.2167 14.3995 25.2167 14.2371V12.1839C25.2167 12.0889 25.1946 11.9952 25.1515 11.91L24.7994 11.2088C24.6812 10.9729 24.7274 10.6879 24.9145 10.5016L25.2167 10.2006V9.58774L25.6519 9.15443C25.7677 9.03921 25.8323 8.88354 25.8323 8.72112V6.5987C25.8323 6.54845 25.8261 6.4988 25.8138 6.44977L25.3011 4.40825C25.2488 4.19987 25.3103 3.97862 25.463 3.82663L25.8323 3.45889V2.84601L25.3608 2.37654C25.2672 2.28338 25.146 2.22271 25.0148 2.20371L23.071 1.91994L22.5834 2.26745L22.3225 1.88746C22.2073 1.72014 22.0178 1.62024 21.814 1.62024H18.4457C18.066 1.62024 17.8308 1.86355 17.8308 2.22883C17.8308 2.3177 17.8302 2.84601 17.2147 2.84601C16.5991 2.84601 16.5991 2.23312 16.5991 2.23312C16.5991 2.23312 16.5991 1.62024 15.8918 1.62024H12.0139C11.8071 1.62024 11.6144 1.72198 11.5012 1.8942C11.2636 2.25519 10.8401 2.84601 10.6148 2.84601C10.2898 2.84601 10.2098 2.84601 9.82811 2.84601C9.29751 2.84601 8.93434 2.58431 8.7466 2.40289Z" fill="#D63030"/>
</svg>
