<svg width="41" height="41" viewBox="0 0 41 41" fill="none" xmlns="http://www.w3.org/2000/svg">
<rect width="41" height="41" rx="9" fill="#323D55"/>
<path d="M25.5603 13.7013C25.5603 13.7013 26.1214 14.2514 25.5603 13.7013C24.8083 12.8428 24.3939 11.7403 24.3942 10.599H20.9949V24.2403C20.9687 24.9785 20.657 25.6778 20.1256 26.1908C19.5941 26.7038 18.8843 26.9905 18.1456 26.9906C16.5835 26.9906 15.2853 25.7145 15.2853 24.1303C15.2853 22.2381 17.1115 20.819 18.9927 21.4021V17.9257C15.1973 17.4197 11.875 20.368 11.875 24.1303C11.875 27.7937 14.9113 30.401 18.1346 30.401C21.589 30.401 24.3942 27.5957 24.3942 24.1303V17.2107C25.7727 18.2006 27.4276 18.7317 29.1247 18.7288V15.3295C29.1247 15.3295 27.0565 15.4285 25.5603 13.7013Z" fill="white"/>
</svg>
