<svg width="79" height="79" viewBox="0 0 79 79" fill="none" xmlns="http://www.w3.org/2000/svg">
<g filter="url(#filter0_d_4546_22242)">
<circle cx="39.6155" cy="35.2308" r="20.5673" stroke="url(#paint0_linear_4546_22242)" stroke-width="1.32692" shape-rendering="crispEdges"/>
</g>
<path fill-rule="evenodd" clip-rule="evenodd" d="M31.6021 24.0254H39.7737H41.0107C43.0974 24.0254 43.5972 24.5252 44.4843 25.3998L49.932 30.7976C50.8692 31.7222 51.4564 32.3095 51.4564 34.4586V35.6956V43.7173L47.8079 40.0938V31.5598L44.5718 28.3611L40.261 32.6343L31.6021 24.0254ZM49.4073 46.4037L44.4593 41.4932V33.1591L40.261 37.3324L36.0628 33.1591V42.1804L32.7266 38.8693V29.848L29.0781 26.2245V34.7335V35.9705C29.0781 38.1196 29.6654 38.6944 30.6025 39.6315L36.0503 45.0293C36.9374 45.9039 37.4372 46.4037 39.5238 46.4037H40.7608H49.4073ZM34.226 46.4037L29.0781 41.2933V46.4037H34.226ZM46.296 24.0254L51.4439 29.1358V24.0254H46.296Z" fill="url(#paint1_linear_4546_22242)"/>
<defs>
<filter id="filter0_d_4546_22242" x="0.692457" y="0.730769" width="77.8456" height="77.8462" filterUnits="userSpaceOnUse" color-interpolation-filters="sRGB">
<feFlood flood-opacity="0" result="BackgroundImageFix"/>
<feColorMatrix in="SourceAlpha" type="matrix" values="0 0 0 0 0 0 0 0 0 0 0 0 0 0 0 0 0 0 127 0" result="hardAlpha"/>
<feOffset dy="4.42308"/>
<feGaussianBlur stdDeviation="8.84615"/>
<feComposite in2="hardAlpha" operator="out"/>
<feColorMatrix type="matrix" values="0 0 0 0 0.694118 0 0 0 0 0.596078 0 0 0 0 0.384314 0 0 0 0.3 0"/>
<feBlend mode="normal" in2="BackgroundImageFix" result="effect1_dropShadow_4546_22242"/>
<feBlend mode="normal" in="SourceGraphic" in2="effect1_dropShadow_4546_22242" result="shape"/>
</filter>
<linearGradient id="paint0_linear_4546_22242" x1="21.0386" y1="14" x2="48.4617" y2="56.4615" gradientUnits="userSpaceOnUse">
<stop stop-color="#FFD888" stop-opacity="0.62"/>
<stop offset="1" stop-color="#A26F07"/>
</linearGradient>
<linearGradient id="paint1_linear_4546_22242" x1="23.8855" y1="24" x2="51.3855" y2="50" gradientUnits="userSpaceOnUse">
<stop stop-color="#F8D17F"/>
<stop offset="1" stop-color="#B0801C"/>
</linearGradient>
</defs>
</svg>
