<svg width="79" height="79" viewBox="0 0 79 79" fill="none" xmlns="http://www.w3.org/2000/svg">
<g filter="url(#filter0_d_4731_32088)">
<circle cx="39.6136" cy="35.2308" r="20.5673" stroke="url(#paint0_linear_4731_32088)" stroke-width="1.32692" shape-rendering="crispEdges"/>
</g>
<path d="M24.3828 30.0087V40.0002H27.542V36.3945H29.7324L30.5833 34.2041H27.542V32.1822H31.2489L32.0576 30.0087H24.3828Z" fill="url(#paint1_linear_4731_32088)"/>
<path d="M33.0162 30.0084L33.0078 40H36.1333V30.0084H33.0162Z" fill="url(#paint2_linear_4731_32088)"/>
<path d="M48.3769 36.7397L49.5816 32.5779L50.8285 36.7397H48.3769ZM51.2497 30.0084H48.0147L44.4258 40H47.4418L47.8293 38.6605H51.3424L51.7468 40H54.8554L51.2497 30.0084Z" fill="url(#paint3_linear_4731_32088)"/>
<path d="M38.2852 30.0084V40H41.4444V36.3943H43.6348L44.4941 34.2039H41.4444V32.182H45.1512L45.9684 30.0084H38.2852Z" fill="url(#paint4_linear_4731_32088)"/>
<path d="M54.187 31.0699H54.406C54.4397 31.0699 54.4734 31.0699 54.5071 31.0615C54.5408 31.0615 54.5661 31.0446 54.5913 31.0362C54.6166 31.0194 54.6335 31.0025 54.6503 30.9773C54.6672 30.952 54.6756 30.9183 54.6756 30.8762C54.6756 30.834 54.6672 30.8088 54.6503 30.7835C54.6335 30.7582 54.6166 30.7414 54.5913 30.7329C54.5661 30.7161 54.5324 30.7077 54.5071 30.7077C54.4734 30.7077 54.4481 30.6992 54.4144 30.6992H54.1954V31.0699H54.187ZM53.9342 30.5055H54.4313C54.5913 30.5055 54.7177 30.5308 54.7935 30.5897C54.8778 30.6487 54.9199 30.7498 54.9199 30.893C54.9199 31.0025 54.8946 31.0868 54.8272 31.1457C54.7683 31.2047 54.684 31.2384 54.5745 31.2468L54.9283 31.8281H54.6756L54.3302 31.2553H54.187V31.8281H53.9342V30.5055ZM54.3892 32.1146C54.5155 32.1146 54.625 32.0893 54.7346 32.0472C54.8441 31.9966 54.9368 31.9377 55.0126 31.8534C55.0884 31.7692 55.1558 31.6681 55.2063 31.5586C55.2485 31.4406 55.2737 31.3142 55.2737 31.1794C55.2737 31.0447 55.2485 30.9183 55.2063 30.8003C55.1558 30.6824 55.0968 30.5897 55.0126 30.5055C54.9283 30.4212 54.8441 30.3538 54.7346 30.3117C54.625 30.2696 54.5155 30.2443 54.3892 30.2443C54.2628 30.2443 54.1533 30.2696 54.0438 30.3117C53.9342 30.3623 53.8416 30.4212 53.7657 30.5055C53.6899 30.5897 53.6225 30.6908 53.5804 30.8003C53.5383 30.9183 53.513 31.0447 53.513 31.1794C53.513 31.3142 53.5383 31.4406 53.5804 31.5586C53.6309 31.6765 53.6899 31.7692 53.7657 31.8534C53.85 31.9377 53.9427 32.0051 54.0438 32.0472C54.1448 32.0893 54.2628 32.1146 54.3892 32.1146ZM54.3892 32.342C54.2291 32.342 54.0774 32.3083 53.9342 32.2494C53.791 32.1904 53.6731 32.1062 53.5635 31.9966C53.4625 31.8955 53.3782 31.7692 53.3192 31.6259C53.2603 31.4827 53.2266 31.3311 53.2266 31.171C53.2266 31.011 53.2603 30.8593 53.3192 30.7161C53.3782 30.5729 53.4625 30.4549 53.5635 30.3454C53.6731 30.2359 53.791 30.1601 53.9342 30.0927C54.0774 30.0253 54.2291 30 54.3892 30C54.5492 30 54.7009 30.0253 54.8441 30.0927C54.9873 30.1516 55.1052 30.2359 55.2148 30.3454C55.3159 30.4549 55.4085 30.5729 55.4675 30.7161C55.5265 30.8593 55.5602 31.011 55.5602 31.171C55.5602 31.3311 55.5265 31.4827 55.4675 31.6259C55.4085 31.7692 55.3243 31.8871 55.2148 31.9966C55.1137 32.1062 54.9873 32.1904 54.8441 32.2494C54.7009 32.3083 54.5492 32.342 54.3892 32.342Z" fill="url(#paint5_linear_4731_32088)"/>
<defs>
<filter id="filter0_d_4731_32088" x="0.690504" y="0.730769" width="77.8456" height="77.8462" filterUnits="userSpaceOnUse" color-interpolation-filters="sRGB">
<feFlood flood-opacity="0" result="BackgroundImageFix"/>
<feColorMatrix in="SourceAlpha" type="matrix" values="0 0 0 0 0 0 0 0 0 0 0 0 0 0 0 0 0 0 127 0" result="hardAlpha"/>
<feOffset dy="4.42308"/>
<feGaussianBlur stdDeviation="8.84615"/>
<feComposite in2="hardAlpha" operator="out"/>
<feColorMatrix type="matrix" values="0 0 0 0 0.694118 0 0 0 0 0.596078 0 0 0 0 0.384314 0 0 0 0.3 0"/>
<feBlend mode="normal" in2="BackgroundImageFix" result="effect1_dropShadow_4731_32088"/>
<feBlend mode="normal" in="SourceGraphic" in2="effect1_dropShadow_4731_32088" result="shape"/>
</filter>
<linearGradient id="paint0_linear_4731_32088" x1="21.0367" y1="14" x2="48.4597" y2="56.4615" gradientUnits="userSpaceOnUse">
<stop stop-color="#FFD888" stop-opacity="0.62"/>
<stop offset="1" stop-color="#A26F07"/>
</linearGradient>
<linearGradient id="paint1_linear_4731_32088" x1="22.602" y1="29.9973" x2="34.2962" y2="38.49" gradientUnits="userSpaceOnUse">
<stop stop-color="#F8D17F"/>
<stop offset="1" stop-color="#B0801C"/>
</linearGradient>
<linearGradient id="paint2_linear_4731_32088" x1="32.2826" y1="29.9971" x2="38.9716" y2="31.9754" gradientUnits="userSpaceOnUse">
<stop stop-color="#F8D17F"/>
<stop offset="1" stop-color="#B0801C"/>
</linearGradient>
<linearGradient id="paint3_linear_4731_32088" x1="42.0057" y1="29.9971" x2="54.3023" y2="42.1327" gradientUnits="userSpaceOnUse">
<stop stop-color="#F8D17F"/>
<stop offset="1" stop-color="#B0801C"/>
</linearGradient>
<linearGradient id="paint4_linear_4731_32088" x1="36.5023" y1="29.9971" x2="48.2005" y2="38.502" gradientUnits="userSpaceOnUse">
<stop stop-color="#F8D17F"/>
<stop offset="1" stop-color="#B0801C"/>
</linearGradient>
<linearGradient id="paint5_linear_4731_32088" x1="52.6851" y1="29.9973" x2="55.5625" y2="32.7081" gradientUnits="userSpaceOnUse">
<stop stop-color="#F8D17F"/>
<stop offset="1" stop-color="#B0801C"/>
</linearGradient>
</defs>
</svg>
