<svg width="44" height="43" viewBox="0 0 44 43" fill="none" xmlns="http://www.w3.org/2000/svg">
<circle cx="22.0745" cy="21.2308" r="21.2308" fill="#293347"/>
<g clip-path="url(#clip0_4731_32960)">
<path d="M29.2957 17.884C29.4329 18.4513 29.464 18.7879 29.5077 20.4274C29.5264 21.4622 29.5576 22.3287 29.5638 22.3287C29.5638 22.3349 29.6448 22.3661 29.7446 22.3848C29.9877 22.4471 29.969 22.6341 29.676 22.9146L29.4329 23.1515V24.0554C29.4329 24.8596 29.4204 24.9531 29.3207 24.9157C29.2272 24.8783 29.2147 24.9094 29.2396 25.0404C29.2583 25.1401 29.2459 25.2585 29.2209 25.3084C29.1773 25.3645 29.1586 25.3084 29.1586 25.1401C29.1586 25.0029 29.196 24.8596 29.2272 24.8409C29.2833 24.8035 29.277 24.7661 29.2209 24.6913C29.1773 24.6352 29.1586 24.5728 29.1835 24.5417C29.2022 24.5229 29.2272 24.5417 29.2272 24.5915C29.2272 24.6414 29.2396 24.6663 29.2646 24.6476C29.3144 24.604 29.0963 24.1739 29.0214 24.1739C28.9965 24.1739 28.9279 24.2674 28.8843 24.3858C28.8344 24.498 28.7596 24.5978 28.716 24.5978C28.6724 24.5978 28.6911 24.6352 28.7409 24.6726C28.822 24.7287 28.8095 24.7349 28.6911 24.6975C28.5913 24.6726 28.529 24.685 28.529 24.7349C28.529 24.7785 28.504 24.791 28.4604 24.7723C28.4168 24.7474 28.3918 24.8222 28.3918 24.9406C28.3918 25.0653 28.3544 25.1588 28.3108 25.1588C28.2485 25.1588 28.2111 24.9655 28.1986 24.4481C28.1861 23.9432 28.2048 23.7624 28.2609 23.7936C28.317 23.831 28.317 23.7998 28.2609 23.6939C28.2173 23.6191 28.1861 23.4445 28.1861 23.3136C28.1861 23.1391 28.13 23.0206 27.9742 22.871C27.7124 22.6279 27.6937 22.4159 27.9243 22.4159C28.1363 22.4159 28.4666 22.0731 28.4666 21.8549C28.4666 21.6991 28.4604 21.6928 28.3295 21.8175C28.1176 22.0045 28.0926 21.8985 28.2921 21.7115C28.3918 21.618 28.4666 21.4684 28.4666 21.3749C28.4666 21.2066 28.4604 21.2066 28.342 21.3126C28.13 21.5058 28.0739 21.4435 28.2734 21.2378C28.4853 21.0133 28.6038 20.5957 28.4043 20.7515C28.1737 20.9572 28.0864 20.9572 28.2796 20.7515C28.3918 20.6268 28.4666 20.471 28.4666 20.3463V20.1531L28.2796 20.3214L28.0864 20.4897L28.2796 20.2715C28.3918 20.1468 28.4666 19.9785 28.4666 19.8601C28.4666 19.6731 28.4604 19.6731 28.342 19.7791C28.1612 19.9411 28.1487 19.9349 28.1487 19.6294C28.13 18.7817 28.317 18.1146 28.7098 17.6596C28.7908 17.5661 28.8157 17.51 28.7596 17.5474C28.6973 17.5848 28.6786 17.5723 28.7098 17.5287C28.7347 17.4788 28.8095 17.4476 28.8656 17.4476C28.9217 17.4476 28.9591 17.4227 28.9342 17.3853C28.8968 17.3292 28.984 17.2606 29.1087 17.2481C29.115 17.2419 29.2022 17.5349 29.2957 17.884Z" fill="#E77817"/>
<path d="M20.8495 18.2144C20.9056 18.2207 20.9243 18.4762 20.918 18.9999L20.9118 19.7791L19.9144 19.7729L18.9108 19.7604V20.9573H20.8058V22.497H18.9108V23.6191L19.4593 23.6253C19.7523 23.6253 20.2074 23.6253 20.4754 23.6191L20.943 23.6129V24.0181C20.9367 24.4108 20.9367 24.417 20.8183 24.2861C20.6001 24.043 20.2697 24.0742 20.2323 24.3422C20.2199 24.4232 20.1637 24.5043 20.1076 24.5043C20.0515 24.5105 19.958 24.5168 19.9206 24.523C19.8708 24.523 19.8271 24.5916 19.8271 24.6726C19.8271 24.7848 19.7835 24.8035 19.5653 24.7973C19.4219 24.791 19.291 24.8284 19.2786 24.8658C19.2287 25.0155 19.1476 24.9594 19.104 24.7474C19.0604 24.5666 19.0417 24.5542 18.7612 24.5666C18.5928 24.5729 18.3871 24.6165 18.2999 24.6664C18.1627 24.7412 18.1191 24.7349 18.0567 24.6477C18.0006 24.5791 17.9196 24.5479 17.8199 24.5791C17.6952 24.6165 17.6578 24.6788 17.6578 24.8596C17.6578 24.9843 17.6328 25.109 17.5892 25.1339C17.5518 25.1526 17.5206 25.1277 17.5206 25.0653C17.5206 24.9905 17.4832 24.9594 17.4209 24.9843C17.2713 25.0404 17.2588 24.7349 17.2588 21.3064L17.2463 18.2269L18.1502 18.2331C18.6489 18.2331 19.0354 18.2581 19.0167 18.2955C18.998 18.3204 19.0105 18.364 19.0541 18.3952C19.0915 18.4139 19.1227 18.3952 19.1227 18.3453C19.1227 18.2705 19.2723 18.2456 19.7274 18.2394C20.0578 18.2331 20.3383 18.2207 20.3508 18.202C20.3632 18.1895 20.4692 18.1832 20.5752 18.1895C20.6812 18.202 20.8058 18.2144 20.8495 18.2144ZM24.6521 18.2456C25.556 18.2518 25.7679 18.2705 25.8427 18.3578C25.9175 18.4575 25.9237 18.4575 25.8926 18.3578C25.8552 18.2643 25.9175 18.2456 26.2417 18.2331C26.4536 18.2269 26.6282 18.2456 26.6344 18.2768C26.6531 18.5261 26.6593 19.5547 26.6406 19.642C26.6157 19.7479 26.491 19.7666 25.6183 19.7791L24.6271 19.7978V20.9199L25.5248 20.9386L26.4162 20.9573V22.497L25.7367 22.4908C25.3565 22.4845 24.9513 22.4845 24.8391 22.4845L24.6271 22.4908L24.6396 23.5131C24.6521 24.3484 24.6396 24.5479 24.5586 24.6414C24.5024 24.6975 24.465 24.7723 24.49 24.8097C24.5336 24.8658 24.4339 24.9032 24.303 24.8783C24.2656 24.8783 24.2469 24.9032 24.2469 24.9407C24.2469 24.9843 24.1845 25.0092 24.1097 25.0092C23.9975 25.0092 23.9726 24.9594 23.9601 24.7412C23.9539 24.604 23.9539 24.4607 23.9601 24.4232C23.9663 24.3983 23.8791 24.3547 23.7544 24.3235C23.636 24.3048 23.5424 24.2487 23.5487 24.2051C23.5736 23.9744 23.53 23.8123 23.4365 23.8123C23.3741 23.8123 23.3118 23.7625 23.2869 23.7064C23.2619 23.6503 23.1871 23.6004 23.1186 23.6004C23.05 23.6004 22.9814 23.5381 22.9565 23.4508C22.9378 23.376 22.9191 22.1666 22.9315 20.7703L22.944 18.2331L23.1871 18.1895C23.318 18.1708 23.4614 18.1708 23.4863 18.1832C23.5237 18.2207 24.0474 18.2394 24.6521 18.2456ZM4.0557 18.2643C4.0557 18.283 4.0183 18.364 3.98713 18.4388C3.93102 18.5323 3.93726 18.5697 3.98713 18.5697C4.10557 18.5697 4.28011 18.7755 4.23024 18.8503C4.21154 18.8877 4.15544 18.9188 4.11804 18.9188C4.0744 18.9188 4.06817 18.8814 4.09933 18.8378C4.1305 18.7879 4.11804 18.7817 4.06193 18.8129C4.0183 18.8378 3.99959 18.8939 4.0183 18.9313C4.04323 18.9687 4.02453 18.9936 3.98089 18.9936C3.93726 18.9936 3.92479 19.031 3.95596 19.0684C3.98089 19.1245 4.0183 19.1183 4.06193 19.056C4.11804 18.9625 4.15544 19.0186 4.1305 19.1557C4.12427 19.1931 4.1492 19.1994 4.19284 19.1682C4.23648 19.1495 4.24894 19.0996 4.23648 19.0684C4.21778 19.0435 4.23648 18.9749 4.27388 18.9188C4.32998 18.8253 4.34869 18.8378 4.41726 18.9313C4.45466 18.9999 4.52323 19.056 4.56687 19.056C4.61674 19.056 4.54817 18.9438 4.41102 18.8129C4.21778 18.6071 4.19284 18.551 4.27388 18.4638C4.32998 18.3952 4.33622 18.3578 4.28011 18.3578C4.23648 18.3578 4.20531 18.3952 4.20531 18.4326C4.20531 18.47 4.16791 18.4825 4.13674 18.4575C4.0931 18.4326 4.09933 18.3827 4.15544 18.3204C4.22401 18.2518 4.6292 18.2269 5.90713 18.2207L7.57154 18.2144V19.7542H5.52687V20.9448H7.34713V22.497L6.4557 22.4845H5.56427L5.55804 23.5007C5.5518 24.0617 5.52063 24.5542 5.50193 24.5916C5.477 24.6352 5.37726 24.6539 5.27752 24.6414C5.12167 24.6165 5.11544 24.629 5.15284 24.791C5.19024 24.9157 5.17154 24.9594 5.11544 24.922C5.0718 24.8908 5.04063 24.9095 5.04063 24.9407C5.04063 25.1027 4.91596 25.0092 4.87856 24.8284C4.83492 24.5978 4.88479 24.442 4.997 24.5043C5.04063 24.523 5.00946 24.4856 4.93466 24.4045C4.85362 24.3235 4.72894 24.2799 4.64167 24.2986C4.50453 24.3235 4.47959 24.2986 4.47959 24.0804C4.47959 23.9121 4.44219 23.8186 4.36115 23.7936C4.24894 23.75 4.14297 23.6939 4.037 23.6378L3.84375 23.5443V20.9199C3.84998 19.4799 3.86869 18.283 3.89362 18.2643C3.94972 18.2082 4.0557 18.2082 4.0557 18.2643ZM8.64998 18.3391C8.63128 18.389 8.64375 18.4326 8.67492 18.4326C8.71232 18.4326 8.74972 18.389 8.77466 18.3329C8.81206 18.2518 9.02401 18.2331 9.97154 18.2581C11.3554 18.283 11.7108 18.3765 12.1471 18.8129C12.6022 19.2617 12.7705 19.6918 12.7705 20.3713C12.7767 20.8575 12.7456 21.0009 12.5586 21.3936C12.3341 21.8674 12.0412 22.1604 11.6422 22.2975C11.4676 22.3599 11.4302 22.3973 11.4801 22.4845C11.5487 22.6092 12.1471 23.4508 12.4027 23.7874C12.5586 23.9807 12.5586 23.9931 12.4214 24.0804C12.3528 24.1303 12.2469 24.2051 12.2032 24.2487C12.1347 24.3048 12.1097 24.2986 12.1097 24.2238C12.1097 24.1614 12.0599 24.1427 11.9726 24.1614C11.8728 24.1864 11.8292 24.1614 11.8292 24.0929C11.8292 23.9682 11.7045 23.9121 11.53 23.962C11.424 23.9869 11.4053 24.043 11.424 24.23C11.4365 24.3609 11.424 24.4669 11.3991 24.4669C11.3741 24.4669 11.343 24.417 11.343 24.3609C11.343 24.3048 11.2993 24.2549 11.2619 24.2549C11.156 24.2549 10.9939 23.937 10.9939 23.75C10.9939 23.5942 10.863 23.5817 10.8443 23.7313C10.8256 23.9432 10.8193 23.9682 10.7383 24.0492C10.6822 24.1053 10.5575 23.9432 10.2708 23.4632C10.0463 23.1017 9.8718 22.7713 9.8718 22.7277C9.8718 22.6903 9.8344 22.6342 9.797 22.6155C9.74713 22.5781 9.72842 22.8586 9.74089 23.5381C9.74713 24.0804 9.73466 24.5542 9.70349 24.5978C9.66609 24.6539 9.60998 24.6601 9.53518 24.6165C9.47284 24.5916 9.37933 24.5729 9.34193 24.5916C9.30453 24.6103 9.24219 24.5479 9.22349 24.4607C9.19855 24.3796 9.16115 24.3297 9.14245 24.3484C9.11128 24.3734 9.03648 24.336 8.96167 24.2549C8.81206 24.1053 8.67492 24.0866 8.4692 24.1988C8.3944 24.2362 8.27596 24.2487 8.19492 24.23C8.07024 24.1864 8.06401 24.0804 8.06401 21.269C8.06401 19.6607 8.07648 18.3329 8.08894 18.3017C8.10141 18.2768 8.24479 18.2581 8.40687 18.2581C8.60635 18.2518 8.67492 18.2768 8.64998 18.3391ZM16.81 18.9936V19.7666H14.8152L14.8276 20.0596C14.8339 20.2279 14.8401 20.496 14.8401 20.6581L14.8463 20.9573H16.7414V22.497H14.8463V23.6627L15.8188 23.644L16.785 23.6253L16.8287 23.962C16.8474 24.1427 16.8349 24.3173 16.8037 24.3609C16.7601 24.3983 16.7414 24.3734 16.7414 24.3048C16.7414 24.1614 16.4983 24.0555 16.305 24.0991C16.2302 24.1116 16.1804 24.1988 16.1804 24.2923C16.1804 24.4856 16.0495 24.5853 15.9622 24.4544C15.9186 24.3858 15.8999 24.3796 15.8999 24.442C15.8999 24.4918 15.8562 24.5355 15.8001 24.5355C15.7378 24.5355 15.7191 24.5853 15.7378 24.6851C15.7752 24.8097 15.7565 24.8284 15.6256 24.7848C15.5258 24.7599 15.4074 24.7786 15.2952 24.8534C15.0708 25.003 15.0209 24.9656 14.996 24.6352C14.9897 24.5604 14.9461 24.5417 14.8463 24.5729C14.7528 24.5978 14.6905 24.5791 14.6656 24.5043C14.6282 24.4108 14.6095 24.4108 14.5409 24.4918C14.4973 24.5479 14.3663 24.6227 14.2417 24.6664C14.0671 24.7225 14.011 24.7225 13.9799 24.6352C13.9549 24.5666 13.8863 24.5417 13.7928 24.5729C13.6993 24.604 13.5996 24.5729 13.4999 24.4918C13.344 24.3671 13.344 24.3671 13.4749 24.5105C13.5934 24.6601 13.6432 25.0653 13.5373 25.1277C13.5123 25.1401 13.425 25.1152 13.3502 25.0591C13.2193 24.9594 13.2131 24.8534 13.1882 21.6056L13.1695 18.2456L14.996 18.2394L16.8162 18.2331L16.81 18.9936ZM9.73466 20.5334V21.3749L9.96531 21.3687C10.6012 21.3562 11.0313 21.0321 11.0188 20.5645C11.0063 19.9661 10.7134 19.6981 10.0837 19.6981H9.73466V20.5334ZM34.545 18.4139C35.2058 18.7069 35.5986 19.2118 35.7295 19.9162C35.8043 20.3588 35.7419 20.9947 35.5736 21.3874C35.4427 21.7178 35.0126 22.1355 34.6697 22.2851L34.3954 22.3973L34.9627 23.2014L35.5362 23.9994L35.3305 24.1614C35.0999 24.3484 35.0126 24.3671 35.0812 24.2113C35.1186 24.1116 35.0998 24.1053 34.9689 24.1739C34.8879 24.2238 34.838 24.2861 34.8567 24.3297C34.8817 24.3671 34.8692 24.3921 34.8318 24.3921C34.7882 24.3921 34.7757 24.311 34.8069 24.1801C34.8443 23.9869 34.8318 23.9682 34.6323 23.9682C34.4328 23.9682 34.4141 23.9807 34.4391 24.2113C34.4578 24.5043 34.3767 24.4981 34.2147 24.2113C34.1523 24.0929 34.0713 23.9869 34.0463 23.9807C34.0089 23.9682 33.9902 23.8747 33.9902 23.7749C33.9902 23.5568 33.8282 23.5942 33.8157 23.8123C33.7908 24.2113 33.6536 24.1053 33.1986 23.3199L32.731 22.5282V23.6066C32.731 24.604 32.7248 24.6788 32.6126 24.629C32.544 24.604 32.4318 24.5791 32.3695 24.5791C32.3009 24.5791 32.2448 24.5355 32.2448 24.4794C32.2448 24.4232 32.1949 24.3796 32.1388 24.3796C32.0889 24.3796 32.0141 24.3297 31.9767 24.2736C31.9518 24.2113 31.8147 24.1552 31.6837 24.1365C31.3596 24.0929 31.1913 24.2549 31.1913 24.604C31.1913 24.7536 31.1663 24.8721 31.1227 24.8721C31.0479 24.8721 31.0167 18.3391 31.0978 18.2643C31.1227 18.2456 31.8396 18.2269 32.6936 18.2456C34.065 18.2643 34.2645 18.283 34.545 18.4139ZM36.5648 18.3079C36.6271 18.3703 36.6458 18.3703 36.6458 18.3079C36.6458 18.2518 36.783 18.2269 37.0635 18.2269C37.4063 18.2269 37.4687 18.2456 37.4437 18.3329C37.4188 18.4014 37.4437 18.4388 37.5123 18.4388C37.5747 18.4388 37.6432 18.389 37.6682 18.3329C37.7243 18.1957 37.8365 18.202 37.8365 18.3453C37.8365 18.4513 37.8427 18.4513 37.9611 18.3453C38.117 18.2082 38.4037 18.1895 38.5222 18.3079C38.5721 18.3578 38.6032 18.364 38.6032 18.3204C38.6032 18.2768 38.8463 18.2518 39.2017 18.2518H39.8001V19.804L38.8214 19.7853L37.8427 19.7666V20.9635H39.7378V22.5032H37.8427V23.6627L38.8152 23.644L39.7814 23.6253L39.825 23.962C39.8687 24.3422 39.8313 24.4232 39.7066 24.2425C39.5383 24.0181 39.1767 24.1178 39.1767 24.3858C39.1767 24.5417 39.158 24.5542 38.996 24.5168C38.8463 24.4731 38.8089 24.4981 38.7778 24.6165C38.7528 24.7225 38.6967 24.7536 38.5845 24.7412C38.5035 24.7349 38.3539 24.7786 38.2479 24.8471C38.1419 24.9157 38.0547 24.9469 38.0422 24.9157C38.0422 24.8783 38.0297 24.8222 38.0235 24.791C38.011 24.7474 38.0048 24.6788 37.9986 24.629C37.9923 24.5666 37.8863 24.5479 37.6432 24.5542C37.4562 24.5666 37.2941 24.5978 37.2941 24.6227C37.2941 24.7225 37.051 24.7287 36.97 24.629C36.9201 24.5666 36.8453 24.5479 36.7456 24.5729C36.6271 24.6165 36.5897 24.6788 36.5897 24.8658C36.5897 25.1027 36.5211 25.1526 36.2905 25.0591C36.197 25.0217 36.1845 24.5853 36.1783 21.9048C36.1721 19.723 36.1845 18.7942 36.2406 18.7942C36.2905 18.7942 36.2967 18.7505 36.2406 18.6632C36.116 18.4201 36.1596 18.2331 36.3341 18.2331C36.4089 18.2207 36.5149 18.2581 36.5648 18.3079ZM32.7248 20.5458V21.3999L33.13 21.35C33.8157 21.2752 34.1461 20.8575 33.984 20.2653C33.878 19.8788 33.5975 19.6981 33.0926 19.6981H32.7186V20.5458H32.7248Z" fill="#677AA3"/>
</g>
<defs>
<clipPath id="clip0_4731_32960">
<rect width="36" height="8.0928" fill="white" transform="translate(3.84375 17.2474)"/>
</clipPath>
</defs>
</svg>
