<svg width="41" height="41" viewBox="0 0 41 41" fill="none" xmlns="http://www.w3.org/2000/svg">
<rect width="41" height="41" rx="9" fill="#323D55"/>
<path d="M27.8528 13.5505C30.2192 17.0298 31.3878 20.9544 30.951 25.4724C30.9491 25.4915 30.9392 25.5091 30.9235 25.5206C29.1314 26.8365 27.3952 27.6351 25.6833 28.1647C25.67 28.1687 25.6557 28.1685 25.6425 28.164C25.6293 28.1596 25.6179 28.1511 25.6097 28.1398C25.2142 27.5895 24.8549 27.0093 24.5401 26.4001C24.522 26.3642 24.5385 26.321 24.5757 26.3069C25.1464 26.0919 25.6891 25.8341 26.2111 25.529C26.2522 25.5049 26.2548 25.446 26.2168 25.4177C26.106 25.3354 25.9963 25.249 25.8913 25.1626C25.8716 25.1466 25.8452 25.1435 25.8229 25.1542C22.434 26.7191 18.7216 26.7191 15.2926 25.1542C15.2703 25.1442 15.2439 25.1476 15.2248 25.1634C15.12 25.2498 15.01 25.3354 14.9002 25.4177C14.8623 25.446 14.8654 25.5049 14.9068 25.529C15.4288 25.8284 15.9715 26.0919 16.5414 26.3079C16.5783 26.3221 16.5959 26.3642 16.5776 26.4001C16.2695 27.0101 15.9102 27.5903 15.5074 28.1406C15.4898 28.1628 15.461 28.173 15.4338 28.1647C13.73 27.6351 11.9938 26.8365 10.2017 25.5206C10.1868 25.5091 10.1761 25.4908 10.1745 25.4716C9.8094 21.5636 10.5535 17.6066 13.2698 13.5498C13.2764 13.539 13.2863 13.5306 13.2979 13.5257C14.6344 12.9123 16.0663 12.461 17.5629 12.2033C17.5901 12.1991 17.6174 12.2116 17.6315 12.2357C17.8164 12.5631 18.0278 12.983 18.1708 13.3261C19.7483 13.0851 21.3504 13.0851 22.961 13.3261C23.104 12.9903 23.308 12.5631 23.4921 12.2357C23.4987 12.2238 23.5089 12.2142 23.5212 12.2084C23.5335 12.2025 23.5473 12.2007 23.5608 12.2033C25.0581 12.4618 26.49 12.913 27.8255 13.5257C27.8373 13.5306 27.847 13.539 27.8528 13.5505ZM18.9728 20.9811C18.9893 19.8258 18.147 18.8698 17.0896 18.8698C16.0409 18.8698 15.2067 19.8174 15.2067 20.9811C15.2067 22.1445 16.0574 23.0921 17.0896 23.0921C18.1386 23.0921 18.9728 22.1445 18.9728 20.9811ZM25.935 20.9811C25.9515 19.8258 25.1092 18.8698 24.0521 18.8698C23.0031 18.8698 22.1689 19.8174 22.1689 20.9811C22.1689 22.1445 23.0196 23.0921 24.0521 23.0921C25.1092 23.0921 25.935 22.1445 25.935 20.9811Z" fill="white"/>
</svg>
