<svg width="24" height="24" viewBox="0 0 24 24" fill="none" xmlns="http://www.w3.org/2000/svg">
<path d="M9.9984 19.75H13.9984C13.9984 20.75 13.2814 21.75 11.9984 21.75C10.7154 21.75 9.9984 20.75 9.9984 19.75ZM20.2404 15.5249L19.1344 13.679C18.7154 12.98 18.4944 12.1799 18.4944 11.3669V8.73999C18.4944 5.16099 15.5804 2.25 11.9994 2.25C8.41841 2.25 5.5044 5.16099 5.5044 8.73999V11.3669C5.5044 12.1799 5.2834 12.98 4.8644 13.679L3.75839 15.5249C3.42039 16.0869 3.41241 16.7649 3.73641 17.3369C4.06041 17.9089 4.64639 18.25 5.30339 18.25H18.6974C19.3554 18.25 19.9414 17.9079 20.2654 17.3369C20.5864 16.7659 20.5784 16.0879 20.2404 15.5249Z" fill="white"/>
</svg>
