<svg width="27" height="27" viewBox="0 0 27 27" fill="none" xmlns="http://www.w3.org/2000/svg">
<g id="Group 1877">
<circle id="Ellipse 420" cx="13.5" cy="13.5" r="13.5" fill="url(#paint0_linear_3729_20677)"/>
<g id="Group 2960">
<g id="Group 2959">
<path id="Subtract" fill-rule="evenodd" clip-rule="evenodd" d="M9.40961 6.78906L17.7206 6.78906C17.6287 7.4756 17.8221 8.88059 19.3306 9.00823L19.3306 16.0573C19.1517 17.034 17.7409 19.4107 13.5288 21.1049C9.00349 19.5094 7.85765 16.7681 7.68359 16.0573L7.68359 9.00823C8.25893 9.01306 9.40961 8.576 9.40961 6.78906ZM10.1649 7.58679L16.9675 7.58679C16.9965 8.11862 17.3504 9.2751 18.5339 9.64641L18.5339 15.5932C17.9489 16.7825 16.1349 19.2947 13.5589 19.8285C11.1947 19.2193 8.83053 16.8841 8.48242 15.5932L8.48242 9.64641C8.92722 9.58839 9.88644 9.09524 10.1649 7.58679Z" fill="white"/>
<path id="Vector 229" d="M16.3208 8.72949L10.7883 8.72949C10.5618 9.95631 9.78168 10.3574 9.41992 10.4046L9.41992 15.2411C9.70303 16.2909 11.6258 18.1901 13.5486 18.6856C15.6437 18.2515 17.119 16.2084 17.5948 15.2411L17.5948 10.4046C16.6322 10.1026 16.3444 9.16202 16.3208 8.72949Z" fill="white"/>
</g>
</g>
</g>
<defs>
<linearGradient id="paint0_linear_3729_20677" x1="2.5" y1="-1.5" x2="23" y2="28.5" gradientUnits="userSpaceOnUse">
<stop stop-color="#E7D765"/>
<stop offset="1" stop-color="#C9763A"/>
</linearGradient>
</defs>
</svg>
