<svg width="22" height="22" viewBox="0 0 22 22" fill="none" xmlns="http://www.w3.org/2000/svg">
<path d="M10.9997 1.83398C9.18668 1.83398 7.4144 2.3716 5.90695 3.37885C4.3995 4.38609 3.22459 5.81773 2.53078 7.49272C1.83698 9.16771 1.65545 11.0108 2.00915 12.789C2.36284 14.5671 3.23589 16.2005 4.51787 17.4825C5.79985 18.7644 7.43319 19.6375 9.21135 19.9912C10.9895 20.3449 12.8326 20.1634 14.5076 19.4695C16.1826 18.7757 17.6142 17.6008 18.6215 16.0934C19.6287 14.5859 20.1663 12.8136 20.1663 11.0007C20.1663 9.79687 19.9292 8.60487 19.4686 7.49272C19.0079 6.38057 18.3327 5.37004 17.4815 4.51884C16.6303 3.66764 15.6198 2.99242 14.5076 2.53176C13.3955 2.07109 12.2035 1.83398 10.9997 1.83398ZM10.9997 18.334C9.54928 18.334 8.13146 17.9039 6.9255 17.0981C5.71954 16.2923 4.7796 15.147 4.22456 13.807C3.66952 12.467 3.5243 10.9925 3.80725 9.56999C4.09021 8.14746 4.78864 6.84079 5.81423 5.8152C6.83981 4.78962 8.14649 4.09118 9.56902 3.80823C10.9915 3.52527 12.466 3.67049 13.806 4.22553C15.146 4.78058 16.2913 5.72051 17.0971 6.92647C17.9029 8.13243 18.333 9.55025 18.333 11.0007C18.333 12.9456 17.5604 14.8108 16.1851 16.1861C14.8099 17.5614 12.9446 18.334 10.9997 18.334Z" fill="#506286"/>
</svg>
