<svg width="41" height="41" viewBox="0 0 41 41" fill="none" xmlns="http://www.w3.org/2000/svg">
<rect width="41" height="41" rx="9" fill="#323D55"/>
<path d="M25.0534 12.7778H15.6089C12.7756 12.7778 10.8867 14.6667 10.8867 17.5001V23.1667C10.8867 26.0001 12.7756 27.8889 15.6089 27.8889H25.0534C27.8867 27.8889 29.7756 26.0001 29.7756 23.1667V17.5001C29.7756 14.6667 27.8867 12.7778 25.0534 12.7778ZM22.1162 21.3062L19.7834 22.704C18.8389 23.2706 18.0645 22.8362 18.0645 21.7312V18.9262C18.0645 17.8212 18.8389 17.3867 19.7834 17.9534L22.1162 19.3512C23.0134 19.8989 23.0134 20.7678 22.1162 21.3062Z" fill="white"/>
</svg>
