<svg width="43" height="43" viewBox="0 0 43 43" fill="none" xmlns="http://www.w3.org/2000/svg">
<circle cx="21.6136" cy="21.2308" r="21.2308" fill="#293347"/>
<path d="M6.38281 16.0087V26.0002H9.54204V22.3945H11.7324L12.5833 20.2041H9.54204V18.1822H13.2489L14.0576 16.0087H6.38281Z" fill="#677AA3"/>
<path d="M15.0162 16.0084L15.0078 26H18.1333V16.0084H15.0162Z" fill="#677AA3"/>
<path d="M30.3769 22.7397L31.5816 18.5779L32.8285 22.7397H30.3769ZM33.2497 16.0084H30.0147L26.4258 26H29.4418L29.8293 24.6605H33.3424L33.7468 26H36.8554L33.2497 16.0084Z" fill="#677AA3"/>
<path d="M20.2852 16.0084V26H23.4444V22.3943H25.6348L26.4941 20.2039H23.4444V18.182H27.1512L27.9684 16.0084H20.2852Z" fill="#677AA3"/>
<path d="M36.187 17.0699H36.406C36.4397 17.0699 36.4734 17.0699 36.5071 17.0615C36.5408 17.0615 36.5661 17.0446 36.5913 17.0362C36.6166 17.0194 36.6335 17.0025 36.6503 16.9773C36.6672 16.952 36.6756 16.9183 36.6756 16.8762C36.6756 16.834 36.6672 16.8088 36.6503 16.7835C36.6335 16.7582 36.6166 16.7414 36.5913 16.7329C36.5661 16.7161 36.5324 16.7077 36.5071 16.7077C36.4734 16.7077 36.4481 16.6992 36.4144 16.6992H36.1954V17.0699H36.187ZM35.9342 16.5055H36.4313C36.5913 16.5055 36.7177 16.5308 36.7935 16.5897C36.8778 16.6487 36.9199 16.7498 36.9199 16.893C36.9199 17.0025 36.8946 17.0868 36.8272 17.1457C36.7683 17.2047 36.684 17.2384 36.5745 17.2468L36.9283 17.8281H36.6756L36.3302 17.2553H36.187V17.8281H35.9342V16.5055ZM36.3892 18.1146C36.5155 18.1146 36.625 18.0893 36.7346 18.0472C36.8441 17.9966 36.9368 17.9377 37.0126 17.8534C37.0884 17.7692 37.1558 17.6681 37.2063 17.5586C37.2485 17.4406 37.2737 17.3142 37.2737 17.1794C37.2737 17.0447 37.2485 16.9183 37.2063 16.8003C37.1558 16.6824 37.0968 16.5897 37.0126 16.5055C36.9283 16.4212 36.8441 16.3538 36.7346 16.3117C36.625 16.2696 36.5155 16.2443 36.3892 16.2443C36.2628 16.2443 36.1533 16.2696 36.0438 16.3117C35.9342 16.3623 35.8416 16.4212 35.7657 16.5055C35.6899 16.5897 35.6225 16.6908 35.5804 16.8003C35.5383 16.9183 35.513 17.0447 35.513 17.1794C35.513 17.3142 35.5383 17.4406 35.5804 17.5586C35.6309 17.6765 35.6899 17.7692 35.7657 17.8534C35.85 17.9377 35.9427 18.0051 36.0438 18.0472C36.1448 18.0893 36.2628 18.1146 36.3892 18.1146ZM36.3892 18.342C36.2291 18.342 36.0774 18.3083 35.9342 18.2494C35.791 18.1904 35.6731 18.1062 35.5635 17.9966C35.4625 17.8955 35.3782 17.7692 35.3192 17.6259C35.2603 17.4827 35.2266 17.3311 35.2266 17.171C35.2266 17.011 35.2603 16.8593 35.3192 16.7161C35.3782 16.5729 35.4625 16.4549 35.5635 16.3454C35.6731 16.2359 35.791 16.1601 35.9342 16.0927C36.0774 16.0253 36.2291 16 36.3892 16C36.5492 16 36.7009 16.0253 36.8441 16.0927C36.9873 16.1516 37.1052 16.2359 37.2148 16.3454C37.3159 16.4549 37.4085 16.5729 37.4675 16.7161C37.5265 16.8593 37.5602 17.011 37.5602 17.171C37.5602 17.3311 37.5265 17.4827 37.4675 17.6259C37.4085 17.7692 37.3243 17.8871 37.2148 17.9966C37.1137 18.1062 36.9873 18.1904 36.8441 18.2494C36.7009 18.3083 36.5492 18.342 36.3892 18.342Z" fill="#677AA3"/>
</svg>
