<svg width="28" height="27" viewBox="0 0 28 27" fill="none" xmlns="http://www.w3.org/2000/svg">
<path d="M24.6275 1.93297C24.5915 1.95013 24.5606 1.97631 24.5378 2.00896C21.4396 5.88173 18.3404 9.7545 15.245 13.6273C15.147 13.7124 15.2221 13.8909 15.3539 13.8699C17.5869 13.8726 19.819 13.8699 22.0521 13.8708C22.1485 13.8758 22.2446 13.8576 22.3326 13.8178C22.4205 13.778 22.4976 13.7177 22.5574 13.6419C23.2661 12.7566 23.9765 11.8712 24.6852 10.9841C24.7825 10.8557 24.8294 10.6961 24.817 10.5355C24.8152 7.71832 24.817 4.90209 24.8143 2.08495C24.8289 1.98424 24.7227 1.89635 24.6275 1.93206V1.93297ZM2.91528 1.94579C2.84479 1.98058 2.84753 2.06664 2.8457 2.13348C2.84753 4.94787 2.84662 7.7641 2.84662 10.5794C2.84049 10.7338 2.89206 10.8849 2.99128 11.0033L9.98606 19.7468C10.0959 19.8859 10.268 19.9757 10.4484 19.9729C12.6961 19.9729 14.9437 19.9757 17.1914 19.9729C17.3214 19.9912 17.3947 19.8136 17.2976 19.7303C12.6054 13.8571 7.9041 7.98841 3.21101 2.11425C3.13776 2.02819 3.0517 1.86522 2.9162 1.94579H2.91528Z" fill="#F43939"/>
<path d="M22.434 22.0071H23.2202L23.2227 24.4178C23.2227 24.4488 23.2479 24.4743 23.2792 24.4743L23.7294 24.474C23.7607 24.474 23.7859 24.4488 23.7859 24.4175L23.7832 22.0071H24.7692C24.7982 22.0071 24.8147 21.9733 24.7962 21.9506L24.4587 21.5278C24.4305 21.4923 24.3877 21.4718 24.3425 21.4717H22.434C22.4027 21.4717 22.3775 21.4968 22.3775 21.5282V21.951C22.3775 21.9816 22.4027 22.0071 22.434 22.0071ZM3.4587 24.4181L5.76501 21.5282C5.78318 21.5055 5.76684 21.4717 5.73784 21.4717H5.16118C5.11602 21.4717 5.07302 21.4925 5.04485 21.5278L3.4087 23.5778V21.5278C3.4087 21.4965 3.38353 21.4713 3.35237 21.4713H2.90204C2.87087 21.4713 2.8457 21.4965 2.8457 21.5278V24.4178C2.8457 24.4491 2.87087 24.4743 2.90204 24.4743H3.34253C3.3877 24.4743 3.43037 24.4536 3.4587 24.4181ZM5.08468 24.4181L5.87801 23.4241L6.67134 24.4181C6.6995 24.4536 6.7425 24.4743 6.78784 24.4743H7.22817C7.2595 24.4743 7.28467 24.4491 7.28467 24.4178V21.5278C7.28467 21.4968 7.2595 21.4713 7.22817 21.4713H6.85884C6.76834 21.4713 6.68267 21.5125 6.626 21.5833L4.36436 24.4175C4.34619 24.4401 4.36252 24.474 4.39152 24.474H4.96818C5.01368 24.4743 5.05635 24.4536 5.08468 24.4181ZM6.72134 22.3066V23.6381L6.19001 22.9725L6.72134 22.3066ZM19.5984 24.4175L17.2922 21.5275C17.2641 21.4922 17.2212 21.4715 17.1761 21.4713H16.7353C16.7041 21.4713 16.6789 21.4965 16.6789 21.5278V24.4178C16.6789 24.4491 16.7041 24.4743 16.7353 24.4743H17.1757C17.2209 24.4743 17.2639 24.4536 17.2919 24.4181L18.0852 23.4241L18.8784 24.4181C18.9067 24.4536 18.9494 24.4743 18.9947 24.4743H19.5714C19.6004 24.4743 19.6166 24.4405 19.5984 24.4175ZM17.7727 22.9725L17.2412 23.6385V22.3066L17.7727 22.9725ZM11.4263 21.3965C10.557 21.3965 9.85231 22.1021 9.85231 22.9728C9.85231 23.8435 10.557 24.5493 11.4263 24.5493C12.2958 24.5493 13.0004 23.8435 13.0004 22.9728C13.0008 22.1021 12.2958 21.3965 11.4263 21.3965ZM11.4263 24.0135C10.8678 24.0135 10.4153 23.5475 10.4153 22.9728C10.4153 22.3981 10.8678 21.9318 11.4263 21.9318C11.985 21.9318 12.4375 22.3978 12.4375 22.9728C12.4378 23.5475 11.985 24.0135 11.4263 24.0135ZM21.4235 21.5278V23.5778L19.7874 21.5275C19.7591 21.4922 19.7164 21.4715 19.6711 21.4713H19.2301C19.1991 21.4713 19.1737 21.4965 19.1737 21.5278V22.9205C19.1737 22.9543 19.1851 22.9871 19.2064 23.0136L19.6749 23.6008C19.6956 23.6266 19.7371 23.612 19.7371 23.5791V22.3671L21.3735 24.4181C21.4017 24.4536 21.4445 24.4743 21.4897 24.4743H21.9302C21.9614 24.4743 21.9865 24.4491 21.9865 24.4178V21.5278C21.9865 21.4968 21.9614 21.4713 21.9302 21.4713H21.4799C21.4487 21.4713 21.4235 21.4968 21.4235 21.5278ZM15.9219 22.1541V21.5278C15.9219 21.4965 15.8968 21.4713 15.8656 21.4713H13.5609C13.5298 21.4713 13.5046 21.4965 13.5046 21.5278V24.4178C13.5046 24.4491 13.5298 24.4743 13.5609 24.4743H14.0113C14.0424 24.4743 14.0676 24.4491 14.0676 24.4178V22.0075H15.3589L14.4873 23.1001C14.4711 23.1205 14.4711 23.1498 14.4873 23.1706L15.4831 24.4185C15.5114 24.454 15.5541 24.4746 15.5994 24.4746H16.1761C16.2051 24.4746 16.2213 24.4408 16.2031 24.4181L15.1796 23.1358L15.8891 22.248C15.9101 22.2208 15.9219 22.188 15.9219 22.1541ZM8.01699 24.4743H9.35331C9.39848 24.4743 9.44148 24.4536 9.46948 24.4181L9.80698 23.995C9.82514 23.9723 9.80898 23.9385 9.77998 23.9385H8.52365V21.5278C8.52365 21.4965 8.49849 21.4713 8.46732 21.4713H8.01699C7.98583 21.4713 7.96066 21.4965 7.96066 21.5278V24.4178C7.96066 24.4488 7.98616 24.4743 8.01699 24.4743Z" fill="#F43939"/>
</svg>
