<svg width="43" height="43" viewBox="0 0 43 43" fill="none" xmlns="http://www.w3.org/2000/svg">
<circle cx="21.6155" cy="21.2308" r="21.2308" fill="#293347"/>
<path fill-rule="evenodd" clip-rule="evenodd" d="M13.2173 10.0254H21.389H22.626C24.7126 10.0254 25.2124 10.5252 26.0995 11.3998L31.5473 16.7976C32.4844 17.7222 33.0717 18.3095 33.0717 20.4586V21.6956V29.7173L29.4232 26.0938V17.5598L26.187 14.3611L21.8763 18.6343L13.2173 10.0254ZM31.0225 32.4037L26.0745 27.4932V19.1591L21.8763 23.3324L17.678 19.1591V28.1804L14.3419 24.8693V15.848L10.6934 12.2245V20.7335V21.9705C10.6934 24.1196 11.2806 24.6944 12.2177 25.6315L17.6655 31.0293C18.5526 31.9039 19.0524 32.4037 21.1391 32.4037H22.3761H31.0225ZM15.8412 32.4037L10.6934 27.2933V32.4037H15.8412ZM27.9113 10.0254L33.0592 15.1358V10.0254H27.9113Z" fill="#677AA2"/>
</svg>
