<svg width="23" height="23" viewBox="0 0 23 23" fill="none" xmlns="http://www.w3.org/2000/svg">
<path fill-rule="evenodd" clip-rule="evenodd" d="M2.67826 0.0253906H10.8499H12.0869C14.1735 0.0253906 14.6733 0.525185 15.5605 1.39983L21.0082 6.79761C21.9453 7.72223 22.5326 8.30948 22.5326 10.4586V11.6956V19.7173L18.8841 16.0938V7.55979L15.6479 4.36111L11.3372 8.63435L2.67826 0.0253906ZM20.4834 22.4037L15.5355 17.4932V9.15913L11.3372 13.3324L7.13892 9.15913V18.1804L3.8028 14.8693V5.848L0.154297 2.22449V10.7335V11.9705C0.154297 14.1196 0.741555 14.6944 1.67867 15.6315L7.12643 21.0293C8.01356 21.9039 8.51336 22.4037 10.6 22.4037H11.837H20.4834ZM5.30218 22.4037L0.154297 17.2933V22.4037H5.30218ZM17.3722 0.0253906L22.5201 5.13579V0.0253906H17.3722Z" fill="#677AA2"/>
</svg>
