<svg width="43" height="43" viewBox="0 0 43 43" fill="none" xmlns="http://www.w3.org/2000/svg">
<circle cx="21.4573" cy="21.2308" r="21.2308" fill="#293347"/>
<path d="M5.04285 20.6688L4.10696 19.0645H5.71134L8.81314 24.5996L11.9684 19.0645H13.5193L12.5567 20.5886L13.0647 26.5248L13.9739 27.0329V27.2735H11.7812V27.1131L11.9417 26.9259L11.5941 22.2732L8.81314 27.3805L6.05895 22.2465L5.52416 26.7922L5.84504 27.0863L5.87178 27.2735H4L4.02674 27.1131L4.40109 26.6853L5.04285 20.6688Z" fill="white"/>
<path d="M17.6135 23.5243C17.4642 23.3755 17.4608 23.1349 17.6058 22.9819L18.2469 22.3056C18.401 22.1431 18.6602 22.1441 18.8129 22.3079L19.4439 22.9842C19.586 23.1366 19.5827 23.3739 19.4363 23.5222L18.8054 24.1613C18.6541 24.3145 18.4071 24.3155 18.2546 24.1635L17.6135 23.5243Z" fill="#E2C38C"/>
<path d="M15.471 23.2892C15.4069 21.8132 17.3161 20.7311 18.2787 20.3746L18.3054 18.9307C18.145 19.0644 17.6958 19.3906 17.1824 19.6259C15.8187 19.92 13.9201 21.5511 14.1875 23.5299C14.4549 25.5086 16.5674 26.7119 17.1824 26.8991C17.6744 27.0488 18.1183 27.318 18.2787 27.4339V26.2038C17.3696 25.8473 15.5352 24.7653 15.471 23.2892Z" fill="#E2C38C"/>
<path d="M21.5407 23.2892C21.6048 21.8132 19.6956 20.7311 18.733 20.3746L18.7063 18.9307C18.8667 19.0644 19.3159 19.3906 19.8293 19.6259C21.1931 19.92 23.0916 21.5511 22.8242 23.5299C22.5568 25.5086 20.4443 26.7119 19.8293 26.8991C19.3373 27.0488 18.8934 27.318 18.733 27.4339V26.2038C19.6422 25.8473 21.4765 24.7653 21.5407 23.2892Z" fill="#E2C38C"/>
<path fill-rule="evenodd" clip-rule="evenodd" d="M24.5865 19.412L23.918 19.0376V18.9574H27.7417C28.5974 19.0911 29.2124 19.7863 29.3461 20.5083C29.4798 21.2303 29.052 22.2731 28.2765 22.6475C29.4263 22.7812 30.5494 23.9042 30.389 25.2947C30.0253 26.6424 28.5439 27.1576 27.8487 27.2467H23.9447C24.2228 27.1183 24.4884 26.6941 24.5865 26.498V19.412ZM25.7637 22.2464V19.6526C27.5285 19.4922 28.09 20.4013 27.7157 21.4976C27.4162 22.3747 26.2896 22.3622 25.7637 22.2464ZM25.7903 23.1288V25.883C26.0398 26.2217 26.8224 26.7494 27.9562 26.1504C29.1327 25.5288 28.4642 23.7973 27.4214 23.3427C26.7826 23.0643 26.0755 23.1021 25.7903 23.1288Z" fill="white"/>
<path fill-rule="evenodd" clip-rule="evenodd" d="M32.5861 24.8134L31.9443 26.498C31.7126 26.6762 31.2277 27.0809 31.1421 27.2734H33.5487C33.5309 27.1843 33.4524 26.9739 33.2813 26.8456C33.3669 26.4605 33.7091 25.366 33.8696 24.8669H35.875L36.7574 27.006C36.7218 27.0595 36.6451 27.1879 36.6237 27.2734H38.7362C38.6916 27.1665 38.565 26.9419 38.4153 26.8991C38.2656 26.8563 37.6755 25.4373 37.3992 24.7332L38.9768 24.6529C39.0214 24.6173 39.0357 24.5192 38.7362 24.4123C38.4367 24.3053 37.6309 24.2429 37.2655 24.2251L35.0461 18.9841H33.3348C33.6556 19.2961 34.2546 20.0377 34.0835 20.5083C33.9123 20.9789 33.2278 22.9327 32.9069 23.8507C32.8891 23.9221 32.7679 24.0754 32.4256 24.1181C32.0834 24.1609 31.3026 24.3855 30.9549 24.4925C30.9282 24.5727 30.9817 24.7332 31.4095 24.7332C31.8373 24.7332 32.3721 24.7866 32.5861 24.8134ZM34.7521 22.2463L34.1906 23.9577H35.5543L34.7521 22.2463Z" fill="white"/>
<path d="M13.9995 15.1872C14.0292 15.1739 14.0545 15.1629 14.0966 15.1449C14.1599 15.1872 14.1332 15.1604 14.1599 15.1872C14.1832 15.2105 14.1866 15.2139 14.1866 15.2139C14.1866 15.225 14.2357 15.2793 14.2357 15.2793C14.236 15.278 14.2294 15.2674 14.2377 15.2793C14.2669 15.3209 14.2669 15.3476 14.2948 15.4056L14.768 17.2442L15.0033 17.2708C15.0033 17.3329 14.9893 17.3994 14.9612 17.4703H14.3914L14.384 17.3539C14.4219 17.3273 14.4773 17.3041 14.5499 17.2841L14.4236 16.8087H13.7324L13.616 17.2442L13.8166 17.2708C13.8166 17.3329 13.8026 17.3994 13.7745 17.4703H13.2047L13.1973 17.3539C13.2617 17.3229 13.3302 17.2985 13.4029 17.2808L13.8835 15.3956C13.9192 15.2941 13.946 15.2407 13.9727 15.2139L13.9995 15.1872ZM14.2279 16.0673L14.0966 15.4156C14.0867 15.4134 14.0726 15.4123 14.0545 15.4123L13.9207 16.0905L13.777 16.5959H14.379L14.2279 16.0673Z" fill="white"/>
<path d="M16.2402 17.2509C16.2881 17.2509 16.3418 17.2376 16.4012 17.211C16.4607 17.1822 16.5094 17.1478 16.5474 17.1079C16.5408 16.6358 16.535 16.2778 16.5301 16.034C16.4277 16.034 16.3517 16.0207 16.3021 15.9941L16.3121 15.8212C16.4524 15.788 16.5623 15.7713 16.6416 15.7713C16.7225 15.7713 16.7737 15.7736 16.7952 15.778C16.7952 15.8179 16.7902 15.8711 16.7803 15.9376C16.772 16.0041 16.7662 16.0407 16.7629 16.0473L16.7332 17.2342C16.8208 17.2409 16.8918 17.2542 16.9463 17.2741L16.9413 17.4437C16.8686 17.4747 16.7985 17.4903 16.7307 17.4903C16.663 17.4903 16.6217 17.4891 16.6069 17.4869C16.5755 17.4027 16.5573 17.3251 16.5524 17.2542C16.4714 17.3362 16.3963 17.3994 16.3269 17.4437C16.2592 17.488 16.2146 17.5102 16.1931 17.5102C16.0478 17.5102 15.9421 17.4581 15.876 17.3539C15.8116 17.2475 15.7794 17.0924 15.7794 16.8885C15.7794 16.8863 15.7868 16.6025 15.8017 16.0373C15.7059 16.0373 15.6175 16.0229 15.5366 15.9941L15.5465 15.8212C15.6869 15.788 15.7959 15.7713 15.8735 15.7713C15.9512 15.7713 16.0007 15.7736 16.0222 15.778C16.0222 15.8312 16.0172 15.8899 16.0073 15.9542C15.9974 16.0185 15.9916 16.0495 15.99 16.0473L15.9925 16.7655C15.9925 16.9339 16.0082 17.0569 16.0395 17.1345C16.0709 17.2121 16.1378 17.2509 16.2402 17.2509Z" fill="white"/>
<path d="M17.7532 17.2642L17.7334 16.0107H17.5427L17.5352 15.8944C17.5517 15.8788 17.5996 15.85 17.6789 15.8079L17.8821 15.3823C17.9151 15.3868 17.9407 15.3979 17.9589 15.4156L17.9564 15.7813C18.0803 15.7813 18.1818 15.7924 18.2611 15.8146C18.2611 15.8744 18.2471 15.9398 18.219 16.0107H17.9514C17.9481 16.2767 17.9448 16.6801 17.9415 17.2209C18.034 17.2276 18.1265 17.2498 18.219 17.2874L18.2165 17.4038C18.1934 17.4238 18.1339 17.447 18.0382 17.4736C17.944 17.5002 17.8664 17.5135 17.8053 17.5135C17.797 17.4958 17.7863 17.4581 17.7731 17.4005C17.7599 17.3406 17.7532 17.2952 17.7532 17.2642Z" fill="white"/>
<path d="M19.499 17.3107C19.6377 17.3107 19.731 17.2531 19.7789 17.1378C19.8285 17.0204 19.8533 16.8541 19.8533 16.6391C19.8533 16.2978 19.7971 16.0839 19.6848 15.9974C19.6386 15.962 19.5733 15.9442 19.4891 15.9442C19.4065 15.9442 19.328 15.9675 19.2537 16.0141C19.1877 16.1847 19.1546 16.3831 19.1546 16.6092C19.1546 16.8264 19.1761 16.9938 19.219 17.1112C19.2686 17.2442 19.3619 17.3107 19.499 17.3107ZM18.9267 16.6391C18.9267 16.3576 18.9746 16.1382 19.0704 15.9808C19.1662 15.8212 19.314 15.7414 19.5139 15.7414C19.7137 15.7414 19.8582 15.8146 19.9474 15.9609C20.0366 16.1049 20.0812 16.3188 20.0812 16.6025C20.0812 16.8863 20.0333 17.109 19.9375 17.2708C19.8434 17.4326 19.6997 17.5135 19.5064 17.5135C19.3132 17.5135 19.1678 17.4382 19.0704 17.2874C18.9746 17.1367 18.9267 16.9206 18.9267 16.6391Z" fill="white"/>
<path d="M21.444 17.5135C20.9584 17.5135 20.7156 17.1046 20.7156 16.2867C20.7156 15.8988 20.7743 15.604 20.8915 15.4023C21.0104 15.2006 21.1996 15.0997 21.4589 15.0997C21.667 15.0997 21.8519 15.1773 22.0138 15.3325C22.0138 15.4566 22.0022 15.614 21.9791 15.8046C21.956 15.8112 21.9081 15.8146 21.8354 15.8146L21.7611 15.4023C21.6438 15.3735 21.5497 15.3591 21.4787 15.3591C21.3482 15.3591 21.2334 15.3835 21.1343 15.4322L21.0872 15.4555C21.0773 15.4777 21.0649 15.5109 21.0501 15.5552C21.0352 15.5974 21.0154 15.6871 20.9906 15.8245C20.9675 15.962 20.9559 16.1027 20.9559 16.2468C20.9559 16.5593 20.9939 16.8076 21.0699 16.9915C21.1475 17.1755 21.2706 17.2675 21.439 17.2675C21.5596 17.2675 21.6504 17.2509 21.7116 17.2176C21.7281 17.2065 21.752 17.1899 21.7834 17.1678L21.8354 16.7688L21.9791 16.7788C22.0039 17.0071 22.0163 17.1921 22.0163 17.334C21.9816 17.3695 21.9065 17.4082 21.7908 17.4504C21.6769 17.4925 21.5613 17.5135 21.444 17.5135Z" fill="white"/>
<path d="M23.0613 15C23.1125 15 23.1489 15.0022 23.1703 15.0066C23.1703 15.0465 23.1654 15.0986 23.1555 15.1629C23.1472 15.225 23.1414 15.2615 23.1381 15.2726C23.1381 15.3214 23.1365 15.4222 23.1332 15.5752C23.1299 15.7281 23.1282 15.8467 23.1282 15.9309C23.1992 15.88 23.2694 15.8356 23.3388 15.7979C23.4098 15.7603 23.4544 15.7414 23.4726 15.7414C23.6311 15.7414 23.7459 15.7946 23.8169 15.901C23.888 16.0052 23.9235 16.1648 23.9235 16.3798C23.9235 16.4418 23.9169 16.73 23.9037 17.2442L24.1118 17.2708C24.1118 17.3329 24.0977 17.3994 24.0696 17.4703H23.4998L23.4924 17.3539C23.5684 17.3185 23.6427 17.2919 23.7154 17.2741C23.7055 16.6934 23.6964 16.3709 23.6881 16.3066C23.6815 16.2401 23.6699 16.1825 23.6534 16.1337C23.6369 16.085 23.6121 16.0506 23.5791 16.0307C23.5461 16.0107 23.5023 16.0008 23.4478 16.0008C23.3355 16.0008 23.2281 16.0362 23.1257 16.1071L23.1109 17.2442L23.319 17.2708C23.319 17.3329 23.3049 17.3994 23.2769 17.4703H22.707L22.6996 17.3539C22.7756 17.3185 22.8499 17.2919 22.9226 17.2741L22.8929 15.2627C22.802 15.256 22.7293 15.2427 22.6748 15.2228L22.6847 15.0499C22.769 15.0166 22.8945 15 23.0613 15Z" fill="white"/>
<path d="M25.3683 17.2841C25.441 17.2841 25.5549 17.2376 25.7102 17.1445C25.7416 17.2021 25.7581 17.2531 25.7597 17.2974C25.6755 17.3639 25.5929 17.416 25.512 17.4537C25.431 17.4914 25.3732 17.5102 25.3386 17.5102C25.147 17.5102 25.0008 17.4337 24.9 17.2808C24.7993 17.1256 24.7489 16.9095 24.7489 16.6325C24.7489 16.3554 24.7976 16.1382 24.8951 15.9808C24.9942 15.8212 25.142 15.7414 25.3386 15.7414C25.4905 15.7414 25.6061 15.8146 25.6854 15.9609C25.7663 16.1071 25.8068 16.3033 25.8068 16.5493C25.7936 16.5804 25.7828 16.6014 25.7746 16.6125L24.9768 16.5959C24.9785 16.8198 25.0074 16.9904 25.0636 17.1079C25.1214 17.2254 25.2229 17.2841 25.3683 17.2841ZM25.5813 16.4064C25.5813 16.2601 25.5615 16.147 25.5219 16.0673C25.4822 15.9852 25.4162 15.9442 25.3237 15.9442C25.2312 15.9442 25.1486 15.9675 25.0759 16.0141C25.0264 16.147 24.995 16.2834 24.9818 16.423C25.1123 16.4208 25.3121 16.4152 25.5813 16.4064Z" fill="white"/>
<path d="M26.7079 17.2575C26.7657 17.2908 26.8359 17.3074 26.9185 17.3074C27.0027 17.3074 27.0688 17.2863 27.1167 17.2442C27.1646 17.2021 27.1885 17.1445 27.1885 17.0713C27.1885 16.9982 27.1662 16.9372 27.1216 16.8885C27.077 16.8397 27.0225 16.7965 26.9581 16.7588C26.8937 16.7211 26.8293 16.6812 26.7649 16.6391C26.7005 16.597 26.646 16.5416 26.6014 16.4729C26.5568 16.4042 26.5345 16.3244 26.5345 16.2335C26.5345 16.0806 26.5725 15.9609 26.6484 15.8744C26.7244 15.7858 26.8293 15.7414 26.9631 15.7414C27.0985 15.7414 27.2257 15.7824 27.3446 15.8644C27.3462 15.8866 27.3471 15.9465 27.3471 16.044C27.3471 16.1393 27.3396 16.2213 27.3248 16.29C27.2851 16.3077 27.2381 16.3166 27.1836 16.3166L27.1018 15.9775C27.0655 15.9531 27.0159 15.9409 26.9532 15.9409C26.892 15.9409 26.8433 15.9631 26.807 16.0074C26.7706 16.0495 26.7525 16.1038 26.7525 16.1703C26.7525 16.2346 26.7748 16.2911 26.8194 16.3399C26.8656 16.3886 26.9209 16.433 26.9854 16.4729C27.0498 16.5106 27.1142 16.5516 27.1786 16.5959C27.243 16.638 27.2975 16.6945 27.3421 16.7655C27.3884 16.8342 27.4115 16.914 27.4115 17.0048C27.4115 17.1644 27.3652 17.2897 27.2727 17.3805C27.1819 17.4692 27.0696 17.5135 26.9358 17.5135C26.8631 17.5135 26.7855 17.498 26.7029 17.467C26.6203 17.4337 26.551 17.3916 26.4948 17.3406C26.4948 17.1921 26.5047 17.0603 26.5246 16.945C26.5625 16.9361 26.6137 16.9317 26.6782 16.9317L26.7079 17.2575Z" fill="white"/>
<path d="M28.3235 17.2575C28.3814 17.2908 28.4515 17.3074 28.5341 17.3074C28.6184 17.3074 28.6844 17.2863 28.7323 17.2442C28.7802 17.2021 28.8042 17.1445 28.8042 17.0713C28.8042 16.9982 28.7819 16.9372 28.7373 16.8885C28.6927 16.8397 28.6382 16.7965 28.5738 16.7588C28.5094 16.7211 28.4449 16.6812 28.3805 16.6391C28.3161 16.597 28.2616 16.5416 28.217 16.4729C28.1724 16.4042 28.1501 16.3244 28.1501 16.2335C28.1501 16.0806 28.1881 15.9609 28.2641 15.8744C28.3401 15.7858 28.4449 15.7414 28.5787 15.7414C28.7142 15.7414 28.8413 15.7824 28.9602 15.8644C28.9619 15.8866 28.9627 15.9465 28.9627 16.044C28.9627 16.1393 28.9553 16.2213 28.9404 16.29C28.9008 16.3077 28.8537 16.3166 28.7992 16.3166L28.7175 15.9775C28.6811 15.9531 28.6316 15.9409 28.5688 15.9409C28.5077 15.9409 28.459 15.9631 28.4226 16.0074C28.3863 16.0495 28.3681 16.1038 28.3681 16.1703C28.3681 16.2346 28.3904 16.2911 28.435 16.3399C28.4813 16.3886 28.5366 16.433 28.601 16.4729C28.6654 16.5106 28.7298 16.5516 28.7943 16.5959C28.8587 16.638 28.9132 16.6945 28.9578 16.7655C29.004 16.8342 29.0271 16.914 29.0271 17.0048C29.0271 17.1644 28.9809 17.2897 28.8884 17.3805C28.7976 17.4692 28.6853 17.5135 28.5515 17.5135C28.4788 17.5135 28.4012 17.498 28.3186 17.467C28.236 17.4337 28.1666 17.3916 28.1105 17.3406C28.1105 17.1921 28.1204 17.0603 28.1402 16.945C28.1782 16.9361 28.2294 16.9317 28.2938 16.9317L28.3235 17.2575Z" fill="white"/>
<path d="M12.3439 16.7649L4.48242 16.6044C6.94247 16.5331 11.9588 16.3905 12.3439 16.3905C12.5578 16.5402 12.433 16.7025 12.3439 16.7649Z" fill="white"/>
<path d="M30.0038 16.7649L37.8652 16.6044C35.4052 16.5331 30.3888 16.3905 30.0038 16.3905C29.7899 16.5402 29.9146 16.7025 30.0038 16.7649Z" fill="white"/>
</svg>
