<svg width="38" height="38" viewBox="0 0 38 38" fill="none" xmlns="http://www.w3.org/2000/svg">
<path fill-rule="evenodd" clip-rule="evenodd" d="M20.6311 22.1267C21.7749 22.1267 22.7059 23.0511 22.7059 24.1873V27.1095C22.7059 27.3536 22.9016 27.5493 23.1524 27.555H24.9631C26.39 27.555 27.55 26.4093 27.55 25.0014V16.7136C27.5433 16.2291 27.3125 15.7731 26.9163 15.4701L20.653 10.475C19.8123 9.80904 18.6361 9.80904 17.7925 10.4769L11.5719 15.4682C11.1606 15.7807 10.9297 16.2367 10.925 16.7298V25.0014C10.925 26.4093 12.0849 27.555 13.5118 27.555H15.3396C15.5971 27.555 15.8061 27.3508 15.8061 27.1C15.8061 27.0449 15.8127 26.9898 15.8241 26.9375V24.1873C15.8241 23.0577 16.7494 22.1343 17.8847 22.1267H20.6311ZM24.9631 28.98H23.1353C22.0884 28.9553 21.2809 28.1336 21.2809 27.1095V24.1873C21.2809 23.8367 20.9893 23.5517 20.6311 23.5517H17.8895C17.5389 23.5536 17.2491 23.8396 17.2491 24.1873V27.1C17.2491 27.1712 17.2396 27.2396 17.2197 27.3042C17.1171 28.2447 16.3134 28.98 15.3396 28.98H13.5118C11.2993 28.98 9.5 27.195 9.5 25.0014V16.7231C9.5095 15.7788 9.9446 14.9143 10.696 14.3453L16.9043 9.36254C18.2713 8.27954 20.1761 8.27954 21.5403 9.36064L27.7932 14.3481C28.5275 14.9077 28.9626 15.7703 28.975 16.7032V25.0014C28.975 27.195 27.1757 28.98 24.9631 28.98Z" fill="#B6C4E0"/>
</svg>
