<svg width="23" height="24" viewBox="0 0 23 24" fill="none" xmlns="http://www.w3.org/2000/svg">
<path fill-rule="evenodd" clip-rule="evenodd" d="M20.1816 12.63C20.1827 12.688 20.1832 12.7462 20.1832 12.8044C20.1832 15.0766 19.3666 17.158 18.0109 18.7713L17.2061 21.5727C19.9281 19.6123 21.7004 16.4156 21.7004 12.8049C21.7004 12.485 21.6865 12.1683 21.6592 11.8554L20.1816 12.63ZM14.3988 2.58586C13.3024 2.21084 12.1263 2.00732 10.9028 2.00732C10.0075 2.00732 9.13756 2.1163 8.30566 2.32171V3.89276C9.12989 3.65293 10.0015 3.52435 10.9031 3.52435C11.7765 3.52435 12.6217 3.645 13.423 3.87055L14.3988 2.58586Z" fill="#677AA3"/>
<path d="M7.31367 0.518799H1.18532L2.26508 3.02851V21.5887L1.12695 23.8357H15.3973L16.6521 19.3708H7.31367V0.518799Z" fill="#677AA3"/>
<path fill-rule="evenodd" clip-rule="evenodd" d="M1.27286 17.6937V7.91675C0.526322 9.38449 0.105469 11.0457 0.105469 12.8052C0.105469 14.5647 0.526322 16.2259 1.27286 17.6937Z" fill="#677AA3"/>
<path d="M8.32715 18.0985V14.2328C17.9485 3.87522 13.7269 6.23555 10.4134 8.71041C11.794 7.29913 15.0584 3.96112 17.071 1.89941C19.6727 2.12031 20.6913 3.01413 20.8753 3.43342C20.1697 3.96521 18.6664 5.10242 18.2982 5.39695C17.93 5.69148 17.7971 6.48099 17.7766 6.83892L12.4076 12.392C12.8883 12.0136 15.6168 9.78422 22.6855 3.89363C23.0291 4.45814 23.0127 5.21287 22.9616 5.51968C22.6855 5.70376 22.2069 6.40326 22.5014 7.72865C7.65218 16 12.7349 14.9999 17.1324 13.4658L8.32715 18.0985Z" fill="#677AA3"/>
<path d="M21.3356 9.20142L16.0586 12.5149L21.6731 10.3673L21.3356 9.20142Z" fill="#677AA3"/>
</svg>
