<svg width="44" height="43" viewBox="0 0 44 43" fill="none" xmlns="http://www.w3.org/2000/svg">
<circle cx="22.1526" cy="21.2308" r="21.2308" fill="#293347"/>
<path fill-rule="evenodd" clip-rule="evenodd" d="M30.7197 21.63C30.7208 21.688 30.7213 21.7462 30.7213 21.8044C30.7213 24.0766 29.9047 26.158 28.549 27.7713L27.7442 30.5727C30.4662 28.6123 32.2385 25.4156 32.2385 21.8049C32.2385 21.485 32.2245 21.1683 32.1973 20.8554L30.7197 21.63ZM24.9369 11.5859C23.8404 11.2108 22.6644 11.0073 21.4409 11.0073C20.5455 11.0073 19.6756 11.1163 18.8438 11.3217V12.8928C19.668 12.6529 20.5396 12.5243 21.4412 12.5243C22.3146 12.5243 23.1598 12.645 23.9611 12.8705L24.9369 11.5859Z" fill="#677AA3"/>
<path d="M17.8508 9.5188H11.7224L12.8022 12.0285V30.5887L11.6641 32.8357H25.9344L27.1892 28.3708H17.8508V9.5188Z" fill="#677AA3"/>
<path fill-rule="evenodd" clip-rule="evenodd" d="M11.81 26.6937V16.9167C11.0634 18.3845 10.6426 20.0457 10.6426 21.8052C10.6426 23.5647 11.0634 25.2259 11.81 26.6937Z" fill="#677AA3"/>
<path d="M18.8652 27.0984V23.2327C28.4865 12.8751 24.2649 15.2354 20.9515 17.7103C22.3321 16.299 25.5965 12.961 27.6091 10.8993C30.2108 11.1202 31.2293 12.014 31.4134 12.4333C30.7078 12.9651 29.2045 14.1023 28.8363 14.3968C28.4681 14.6914 28.3352 15.4809 28.3147 15.8388L22.9457 21.3919C23.4264 21.0135 26.1548 18.7841 33.2236 12.8935C33.5672 13.458 33.5508 14.2128 33.4997 14.5196C33.2236 14.7036 32.7449 15.4031 33.0395 16.7285C18.1903 24.9999 23.273 23.9997 27.6704 22.4657L18.8652 27.0984Z" fill="#677AA3"/>
<path d="M31.8727 18.2014L26.5957 21.5149L32.2102 19.3673L31.8727 18.2014Z" fill="#677AA3"/>
</svg>
