<svg width="41" height="39" viewBox="0 0 41 39" fill="none" xmlns="http://www.w3.org/2000/svg">
<g filter="url(#filter0_f_4546_21526)">
<ellipse cx="19.6837" cy="19.1976" rx="15.3204" ry="15.2994" fill="url(#paint0_linear_4546_21526)" fill-opacity="0.12"/>
</g>
<g filter="url(#filter1_f_4546_21526)">
<path d="M23.8377 31.2289C19.3922 32.7977 14.8044 32.762 11.1355 31.7144C7.45883 30.6645 4.73808 28.6101 3.97096 26.1722C3.20152 23.7269 4.03068 20.4161 6.18581 17.3096C8.33741 14.2081 11.7967 11.3328 16.2418 9.76415C20.686 8.19576 25.181 8.30455 28.8042 9.38879C32.4337 10.4749 35.163 12.5309 36.1123 14.8316C37.0574 17.1218 36.2353 20.4257 34.032 23.5724C31.8341 26.7113 28.2824 29.6603 23.8377 31.2289Z" stroke="url(#paint1_linear_4546_21526)" stroke-width="0.264473"/>
</g>
<g filter="url(#filter2_f_4546_21526)">
<ellipse cx="16.5139" cy="11.615" rx="16.5139" ry="11.615" transform="matrix(0.813656 0.581346 -0.582404 0.812899 13.7227 0)" fill="url(#paint2_linear_4546_21526)" fill-opacity="0.04"/>
<path d="M33.7775 28.6039C31.9255 31.189 28.7538 32.4694 25.1131 32.4408C21.4726 32.4122 17.3693 31.0742 13.6686 28.4301C9.9679 25.786 7.37508 22.3398 6.1727 18.9082C4.97024 15.4763 5.15978 12.0653 7.01185 9.48023C8.86391 6.89519 12.0355 5.61481 15.6763 5.64337C19.3168 5.67194 23.4201 7.00995 27.1208 9.65404C30.8215 12.2981 33.4143 15.7444 34.6167 19.176C35.8191 22.6079 35.6296 26.0189 33.7775 28.6039Z" stroke="url(#paint3_linear_4546_21526)" stroke-width="0.132237"/>
</g>
<g filter="url(#filter3_f_4546_21526)">
<path d="M9.72461 30.7244C10.3116 31.5864 14.4551 34.2414 19.6845 34.4968C22.0538 34.4968 27.9902 32.7932 29.613 30.7244C25.937 33.0118 17.0102 34.7931 9.72461 30.7244Z" fill="url(#paint4_linear_4546_21526)"/>
</g>
<g filter="url(#filter4_f_4546_21526)">
<path d="M16.3164 33.8044C17.4456 34.0444 18.6803 34.3623 19.6517 34.3623C20.9178 34.3623 22.0138 34.0218 23.3635 33.6479C20.1983 34.0127 18.4186 33.9853 16.3164 33.8044Z" fill="url(#paint5_linear_4546_21526)" fill-opacity="0.6"/>
</g>
<g filter="url(#filter5_f_4546_21526)">
<ellipse cx="0.690303" cy="0.673244" rx="0.690303" ry="0.673244" transform="matrix(0.500584 -0.865688 0.866362 0.499416 17.248 30.9856)" fill="#B8FF80"/>
</g>
<g filter="url(#filter6_f_4546_21526)">
<path d="M19.0372 29.2362C19.8308 29.6938 20.1019 30.7311 19.6235 31.5584C19.1451 32.3857 18.1098 32.67 17.3161 32.2125C16.5225 31.755 16.2515 30.7177 16.7298 29.8903C17.2082 29.063 18.2435 28.7787 19.0372 29.2362Z" stroke="url(#paint6_linear_4546_21526)" stroke-opacity="0.6" stroke-width="0.528947"/>
</g>
<g filter="url(#filter7_f_4546_21526)">
<ellipse cx="0.690302" cy="0.673243" rx="0.690302" ry="0.673243" transform="matrix(0.500585 -0.865688 0.866363 0.499415 17.248 9.8396)" fill="#B8FF80"/>
</g>
<g filter="url(#filter8_f_4546_21526)">
<path d="M19.0372 8.09001C19.8308 8.54753 20.1019 9.58485 19.6235 10.4121C19.1451 11.2394 18.1098 11.5238 17.3161 11.0663C16.5225 10.6087 16.2515 9.57141 16.7298 8.74411C17.2082 7.91681 18.2435 7.63249 19.0372 8.09001Z" stroke="url(#paint7_linear_4546_21526)" stroke-opacity="0.6" stroke-width="0.528947"/>
</g>
<path d="M15.4263 25.9079C16.2557 25.9079 16.9351 26.6018 16.9351 27.459C16.9351 28.3061 16.2557 29 15.4263 29C14.587 29 13.9075 28.3061 13.9075 27.459C13.9075 26.6018 14.587 25.9079 15.4263 25.9079ZM26.6676 25.9079C27.4969 25.9079 28.1764 26.6018 28.1764 27.459C28.1764 28.3061 27.4969 29 26.6676 29C25.8282 29 25.1487 28.3061 25.1487 27.459C25.1487 26.6018 25.8282 25.9079 26.6676 25.9079ZM10.7782 9.00012L10.8801 9.00874L13.2632 9.3751C13.6029 9.43735 13.8527 9.72207 13.8827 10.069L14.0726 12.355C14.1025 12.6826 14.3623 12.9275 14.6821 12.9275H28.1766C28.7861 12.9275 29.1858 13.1418 29.5855 13.6112C29.9852 14.0807 30.0551 14.7542 29.9652 15.3655L29.0159 22.06C28.8361 23.3469 27.7569 24.2949 26.4879 24.2949H15.5864C14.2574 24.2949 13.1583 23.255 13.0484 21.908L12.1291 10.7834L10.6203 10.5181C10.2206 10.4466 9.94079 10.0486 10.0107 9.64043C10.0807 9.22305 10.4704 8.94649 10.8801 9.00874L10.7782 9.00012ZM24.8891 16.7024H22.1213C21.7016 16.7024 21.3719 17.0391 21.3719 17.4677C21.3719 17.8861 21.7016 18.2331 22.1213 18.2331H24.8891C25.3088 18.2331 25.6386 17.8861 25.6386 17.4677C25.6386 17.0391 25.3088 16.7024 24.8891 16.7024Z" fill="#98E050"/>
<defs>
<filter id="filter0_f_4546_21526" x="3.56986" y="3.10477" width="32.2275" height="32.1855" filterUnits="userSpaceOnUse" color-interpolation-filters="sRGB">
<feFlood flood-opacity="0" result="BackgroundImageFix"/>
<feBlend mode="normal" in="SourceGraphic" in2="BackgroundImageFix" result="shape"/>
<feGaussianBlur stdDeviation="0.39671" result="effect1_foregroundBlur_4546_21526"/>
</filter>
<filter id="filter1_f_4546_21526" x="2.49875" y="7.38913" width="35.19" height="26.2611" filterUnits="userSpaceOnUse" color-interpolation-filters="sRGB">
<feFlood flood-opacity="0" result="BackgroundImageFix"/>
<feBlend mode="normal" in="SourceGraphic" in2="BackgroundImageFix" result="shape"/>
<feGaussianBlur stdDeviation="0.528947" result="effect1_foregroundBlur_4546_21526"/>
</filter>
<filter id="filter2_f_4546_21526" x="4.55424" y="4.78348" width="31.6806" height="28.5173" filterUnits="userSpaceOnUse" color-interpolation-filters="sRGB">
<feFlood flood-opacity="0" result="BackgroundImageFix"/>
<feBlend mode="normal" in="SourceGraphic" in2="BackgroundImageFix" result="shape"/>
<feGaussianBlur stdDeviation="0.39671" result="effect1_foregroundBlur_4546_21526"/>
</filter>
<filter id="filter3_f_4546_21526" x="7.07987" y="28.0796" width="25.1781" height="9.06193" filterUnits="userSpaceOnUse" color-interpolation-filters="sRGB">
<feFlood flood-opacity="0" result="BackgroundImageFix"/>
<feBlend mode="normal" in="SourceGraphic" in2="BackgroundImageFix" result="shape"/>
<feGaussianBlur stdDeviation="1.32237" result="effect1_foregroundBlur_4546_21526"/>
</filter>
<filter id="filter4_f_4546_21526" x="14.7296" y="32.0611" width="10.2206" height="3.88804" filterUnits="userSpaceOnUse" color-interpolation-filters="sRGB">
<feFlood flood-opacity="0" result="BackgroundImageFix"/>
<feBlend mode="normal" in="SourceGraphic" in2="BackgroundImageFix" result="shape"/>
<feGaussianBlur stdDeviation="0.79342" result="effect1_foregroundBlur_4546_21526"/>
</filter>
<filter id="filter5_f_4546_21526" x="16.4402" y="28.9804" width="3.47321" height="3.48761" filterUnits="userSpaceOnUse" color-interpolation-filters="sRGB">
<feFlood flood-opacity="0" result="BackgroundImageFix"/>
<feBlend mode="normal" in="SourceGraphic" in2="BackgroundImageFix" result="shape"/>
<feGaussianBlur stdDeviation="0.528947" result="effect1_foregroundBlur_4546_21526"/>
</filter>
<filter id="filter6_f_4546_21526" x="15.6996" y="28.225" width="4.95438" height="4.99881" filterUnits="userSpaceOnUse" color-interpolation-filters="sRGB">
<feFlood flood-opacity="0" result="BackgroundImageFix"/>
<feBlend mode="normal" in="SourceGraphic" in2="BackgroundImageFix" result="shape"/>
<feGaussianBlur stdDeviation="0.264473" result="effect1_foregroundBlur_4546_21526"/>
</filter>
<filter id="filter7_f_4546_21526" x="16.4402" y="7.83444" width="3.47321" height="3.48761" filterUnits="userSpaceOnUse" color-interpolation-filters="sRGB">
<feFlood flood-opacity="0" result="BackgroundImageFix"/>
<feBlend mode="normal" in="SourceGraphic" in2="BackgroundImageFix" result="shape"/>
<feGaussianBlur stdDeviation="0.528947" result="effect1_foregroundBlur_4546_21526"/>
</filter>
<filter id="filter8_f_4546_21526" x="15.6996" y="7.07872" width="4.95438" height="4.99881" filterUnits="userSpaceOnUse" color-interpolation-filters="sRGB">
<feFlood flood-opacity="0" result="BackgroundImageFix"/>
<feBlend mode="normal" in="SourceGraphic" in2="BackgroundImageFix" result="shape"/>
<feGaussianBlur stdDeviation="0.264473" result="effect1_foregroundBlur_4546_21526"/>
</filter>
<linearGradient id="paint0_linear_4546_21526" x1="18.5094" y1="34.4969" x2="25.1708" y2="3.03681" gradientUnits="userSpaceOnUse">
<stop stop-color="#B4FF16"/>
<stop offset="1" stop-color="#7DFB1A" stop-opacity="0"/>
</linearGradient>
<linearGradient id="paint1_linear_4546_21526" x1="15.6787" y1="7.72686" x2="21.7945" y2="34.4501" gradientUnits="userSpaceOnUse">
<stop stop-color="#61FF16"/>
<stop offset="1" stop-color="#168FFF" stop-opacity="0"/>
<stop offset="1" stop-color="#6FFF16" stop-opacity="0"/>
</linearGradient>
<linearGradient id="paint2_linear_4546_21526" x1="20.8004" y1="-3.69784" x2="16.5176" y2="23.2305" gradientUnits="userSpaceOnUse">
<stop stop-color="#98FF16"/>
<stop offset="1" stop-color="#7DFB1A" stop-opacity="0"/>
</linearGradient>
<linearGradient id="paint3_linear_4546_21526" x1="9.72947" y1="24.7441" x2="30.3186" y2="10.6256" gradientUnits="userSpaceOnUse">
<stop stop-color="#7DFF16"/>
<stop offset="1" stop-color="#16FF73" stop-opacity="0"/>
</linearGradient>
<linearGradient id="paint4_linear_4546_21526" x1="19.6688" y1="34.4968" x2="19.6688" y2="31.7243" gradientUnits="userSpaceOnUse">
<stop stop-color="#54FB1A"/>
<stop offset="1" stop-color="#1A82FB" stop-opacity="0"/>
<stop offset="1" stop-color="#FB6B1A" stop-opacity="0"/>
<stop offset="1" stop-color="#2CFB1A" stop-opacity="0"/>
</linearGradient>
<linearGradient id="paint5_linear_4546_21526" x1="19.6831" y1="34.2156" x2="19.6831" y2="33.3767" gradientUnits="userSpaceOnUse">
<stop stop-color="white"/>
<stop offset="1" stop-color="white" stop-opacity="0"/>
</linearGradient>
<linearGradient id="paint6_linear_4546_21526" x1="16.5007" y1="29.7583" x2="19.85" y2="31.695" gradientUnits="userSpaceOnUse">
<stop stop-color="#29FF16"/>
<stop offset="1" stop-color="#0EA900" stop-opacity="0"/>
</linearGradient>
<linearGradient id="paint7_linear_4546_21526" x1="16.5007" y1="8.61203" x2="19.85" y2="10.5488" gradientUnits="userSpaceOnUse">
<stop stop-color="#29FF16"/>
<stop offset="1" stop-color="#0EA900" stop-opacity="0"/>
</linearGradient>
</defs>
</svg>
