<svg width="39" height="26" viewBox="0 0 39 26" fill="none" xmlns="http://www.w3.org/2000/svg">
<g clip-path="url(#clip0_4732_38312)">
<path d="M0.985302 9.91215C1.66867 9.61712 2.46813 9.60792 3.20058 9.74081C3.75558 9.85866 4.34456 10.137 4.55411 10.6368C4.76365 11.2126 4.71834 11.8269 4.71928 12.4228C4.05385 12.4203 3.38842 12.4228 2.72393 12.422C2.70986 11.9272 2.75413 11.4299 2.69655 10.9368C2.70882 10.5958 2.0264 10.5983 2.03584 10.9393C1.9641 11.7149 2.01885 12.4956 2.00195 13.2737C2.018 13.77 1.96127 14.2733 2.05009 14.7655C2.10484 14.9628 2.38422 14.9778 2.56073 14.911C2.69655 14.8249 2.69948 14.6669 2.71364 14.534C2.73535 14.1646 2.71836 13.7952 2.72402 13.4258C3.3903 13.4241 4.05574 13.4249 4.72212 13.4249C4.70229 13.9858 4.75893 14.5825 4.49275 15.1065C4.05102 15.7543 3.12979 15.9975 2.31806 15.975C1.6026 15.9692 0.783312 15.8229 0.338746 15.277C0.0206587 14.8357 0.0319852 14.2858 0.00650052 13.7811C0.0112199 12.8859 -0.0274791 11.9891 0.0423679 11.0956C0.0716281 10.5816 0.469945 10.1278 0.985302 9.91215ZM5.79342 9.7709C6.75995 9.7592 7.72742 9.76004 8.69395 9.7709C9.06112 11.7985 9.45378 13.8228 9.82755 15.8496C9.20554 15.8478 8.58352 15.8496 7.96151 15.8478C7.90676 15.4684 7.86617 15.0872 7.79916 14.7086C7.57725 14.712 7.35459 14.712 7.13269 14.711C7.17233 14.3717 7.21575 14.0325 7.25728 13.6931C7.39414 13.6931 7.53006 13.6922 7.66692 13.6922C7.54233 12.8238 7.44888 11.9513 7.29881 11.0863C7.10437 12.6759 6.87029 14.2615 6.65697 15.8495C6.03316 15.8487 5.40831 15.8487 4.78441 15.8487C5.11666 13.8229 5.46778 11.7985 5.79342 9.7709ZM10.1692 9.76505C10.8309 9.76338 11.4935 9.76421 12.1561 9.76421C12.157 11.3856 12.1561 13.0062 12.157 14.6276C12.562 14.6293 12.9669 14.6285 13.3718 14.6285C13.3737 15.0355 13.3728 15.4416 13.3728 15.8487C12.3052 15.8496 11.2377 15.8479 10.1702 15.8487C10.1683 13.8211 10.1702 11.7927 10.1692 9.76505ZM13.8447 9.76505C14.5082 9.76338 15.1727 9.76421 15.8372 9.76421C15.8391 11.3856 15.8372 13.0062 15.8382 14.6276C16.2393 14.6293 16.6405 14.6285 17.0416 14.6285C17.0426 15.0355 17.0426 15.4416 17.0426 15.8487H13.8456C13.8438 13.8211 13.8456 11.7927 13.8447 9.76505ZM19.5136 9.76505C20.3914 9.7592 21.2702 9.76505 22.147 9.79932C22.6086 9.82857 23.0918 9.85699 23.5034 10.0634C23.8743 10.2607 24.1018 10.6343 24.1055 11.0162C24.166 12.0743 24.1311 13.1358 24.1349 14.1947C24.1113 14.6318 24.1632 15.1401 23.8054 15.4885C23.407 15.811 22.8352 15.827 22.3246 15.8454C21.3883 15.8546 20.451 15.8454 19.5136 15.8487C19.5127 13.8211 19.5136 11.7927 19.5136 9.76505ZM21.5062 10.8115C21.5071 12.147 21.5071 13.4819 21.5062 14.8174C21.6959 14.7806 21.9847 14.8149 22.0686 14.6159C22.1857 14.1772 22.1234 13.7192 22.1394 13.2712C22.1234 12.539 22.1744 11.8035 22.1101 11.0722C22.0829 10.8089 21.7262 10.8198 21.5062 10.8115ZM24.6323 9.76505C25.293 9.76329 25.9537 9.76505 26.6144 9.76421C26.6154 11.2419 26.6144 12.7195 26.6144 14.1972C26.6183 14.3928 26.6135 14.59 26.655 14.7831C26.6852 15.0046 27.126 14.9945 27.145 14.7722C27.1892 14.5818 27.1846 14.3861 27.1874 14.193C27.1855 12.717 27.1883 11.241 27.1855 9.76505C27.8462 9.76254 28.5069 9.76505 29.1686 9.76421C29.1667 11.185 29.1743 12.6059 29.1648 14.0259C29.144 14.417 29.1931 14.8474 28.9308 15.1876C28.6183 15.6514 28.0115 15.8871 27.4243 15.9422C26.6806 16.0175 25.8717 15.9398 25.2487 15.5436C24.857 15.297 24.6522 14.8724 24.6568 14.4528C24.6095 12.8909 24.6427 11.328 24.6323 9.76505ZM29.596 9.76421H33.9596C33.9605 10.1712 33.9596 10.5774 33.9605 10.9845C33.566 10.9845 33.1715 10.9836 32.7779 10.9853V15.8487C32.1115 15.8487 31.4451 15.8496 30.7788 15.8479V10.9853C30.3862 10.9845 29.9935 10.9836 29.6009 10.9853C29.5924 10.5783 29.597 10.1712 29.596 9.76421ZM34.3174 9.76421C34.929 9.7709 35.5407 9.75001 36.1523 9.77508C36.5279 10.8674 36.9386 11.9498 37.3273 13.0388C37.4171 13.308 37.5643 13.5712 37.5548 13.858C37.5501 14.5324 37.5539 15.2069 37.5521 15.8813C36.9395 15.8822 36.3278 15.8822 35.7152 15.8813C35.7152 15.2345 35.7125 14.5876 35.7172 13.9399C35.7192 13.7945 35.7086 13.6465 35.6568 13.5069C35.2076 12.2607 34.7647 11.012 34.3174 9.76421ZM37.1764 9.76505C37.7842 9.76329 38.3921 9.76505 39 9.76421C38.5714 10.9159 38.1486 12.0693 37.72 13.2209C37.4482 12.4521 37.1434 11.6906 36.8969 10.9158C36.9546 10.5273 37.0878 10.1495 37.1764 9.76505Z" fill="white"/>
<path d="M16.8147 11.2232C17.1639 11.087 17.6868 11.2191 17.7444 11.5918C17.7831 12.0415 17.7869 12.4978 17.7406 12.9475C17.6349 13.4647 16.658 13.4891 16.5041 12.9876C16.4286 12.5856 16.4711 12.1719 16.4692 11.7657C16.4579 11.5459 16.574 11.3093 16.8147 11.2232ZM17.0525 11.5108C17.011 12.008 17.028 12.5078 17.0421 13.006L17.1752 12.9675C17.2347 12.5087 17.2168 12.0381 17.1875 11.5776C17.1545 11.5609 17.0865 11.5275 17.0525 11.5108ZM17.9511 11.2191C18.2522 11.2182 18.5523 11.2174 18.8525 11.2191C18.8515 11.357 18.8506 11.4957 18.8506 11.6344L18.4853 11.637C18.4853 11.7698 18.4844 11.9027 18.4844 12.0356C18.5929 12.0365 18.7024 12.0373 18.8129 12.039C18.8129 12.166 18.8129 12.293 18.8138 12.4201L18.4853 12.4226C18.4853 12.7176 18.4844 13.0117 18.4853 13.3069C18.3069 13.3069 18.1295 13.3078 17.9521 13.3086C17.9511 12.6115 17.952 11.9153 17.9511 11.2191Z" fill="white"/>
<path d="M38.2677 15.3048C38.3958 15.3048 38.5014 15.3404 38.584 15.4117C38.6668 15.4831 38.7082 15.5672 38.7082 15.6643C38.7082 15.7632 38.6662 15.8478 38.5821 15.9182C38.498 15.9886 38.397 16.0238 38.2789 16.0238C38.1601 16.0238 38.0589 15.9887 37.9751 15.9184C37.8914 15.8482 37.8496 15.7635 37.8496 15.6643C37.8496 15.5945 37.8717 15.5304 37.916 15.472C37.9603 15.4136 38.0157 15.3712 38.0823 15.3446C38.1487 15.318 38.2106 15.3048 38.2677 15.3048ZM38.289 15.3747C38.1837 15.3747 38.0983 15.4039 38.0329 15.462C37.9676 15.5202 37.9348 15.5877 37.9348 15.6644C37.9348 15.7438 37.9686 15.8119 38.0363 15.8685C38.1039 15.9251 38.1852 15.9535 38.28 15.9535C38.3745 15.9535 38.4556 15.9251 38.5233 15.8685C38.5908 15.8118 38.6246 15.7438 38.6246 15.6644C38.6246 15.6096 38.6076 15.5591 38.5737 15.5129C38.5397 15.4667 38.496 15.4322 38.4425 15.4092C38.3891 15.3863 38.338 15.3747 38.289 15.3747ZM38.0901 15.8563V15.4748H38.3059C38.3592 15.4748 38.3982 15.4852 38.4224 15.506C38.4467 15.5268 38.4588 15.5524 38.4588 15.5827C38.4588 15.6121 38.4487 15.6358 38.4283 15.6536C38.4079 15.6715 38.3772 15.6834 38.3361 15.6899C38.3548 15.6957 38.3696 15.7038 38.3806 15.714C38.3917 15.7241 38.4092 15.7462 38.4331 15.78L38.4863 15.8564H38.3725L38.3345 15.795C38.3117 15.7584 38.2916 15.7335 38.2743 15.7201C38.2568 15.7069 38.2341 15.7002 38.2061 15.7002H38.182V15.8565H38.0901V15.8563ZM38.182 15.6395H38.2571C38.2948 15.6395 38.3216 15.6353 38.3375 15.6271C38.3534 15.6187 38.3613 15.6052 38.3613 15.5865C38.3617 15.5788 38.3598 15.5712 38.3556 15.5645C38.3515 15.5578 38.3454 15.5523 38.3379 15.5484C38.3221 15.5399 38.2984 15.5358 38.2667 15.5358H38.1821V15.6395H38.182Z" fill="white"/>
</g>
<defs>
<clipPath id="clip0_4732_38312">
<rect width="39" height="6.68571" fill="white" transform="translate(0 9.6571)"/>
</clipPath>
</defs>
</svg>
