<svg width="66" height="66" viewBox="0 0 66 66" fill="none" xmlns="http://www.w3.org/2000/svg">
<rect width="66" height="66" fill="#293347"/>
<path d="M21.2891 27.5412V22.7075L33.1579 15.6724L44.8992 22.7075V27.5412L33.1579 20.5858L21.2891 27.5412Z" fill="#3A4863"/>
<path d="M21.2715 42.217V28.4019L28.195 24.334L32.3108 26.7588L25.3235 30.8108V39.8241L33.1403 44.2909L40.7817 39.8241V30.8108L33.922 26.7588L38.0219 24.334L44.8975 28.4019V42.217L33.1403 49.1724L21.2715 42.217Z" fill="#3A4863"/>
<path d="M33.107 26.2806L29.0391 23.9037L33.107 21.415L37.159 23.9037L33.107 26.2806Z" fill="#3A4863"/>
<path d="M30.9199 28.4024L33.0576 27.1899L35.1634 28.4024V42.1855L33.0576 43.4618L30.9199 42.1855V28.4024Z" fill="#3A4863"/>
<path d="M20.1621 42.9045V22.1514L33.1619 14.4302L45.9992 22.1514V42.9045L33.1619 50.5694L20.1621 42.9045Z" stroke="#3A4863" stroke-width="0.654104"/>
</svg>
