<svg width="42" height="41" viewBox="0 0 42 41" fill="none" xmlns="http://www.w3.org/2000/svg">
<rect width="42" height="41" rx="9" fill="#323D55"/>
<path d="M20.9999 17.2126C19.1457 17.2126 17.6324 18.6898 17.6324 20.4999C17.6324 22.3101 19.1457 23.7873 20.9999 23.7873C22.8542 23.7873 24.3674 22.3101 24.3674 20.4999C24.3674 18.6898 22.8542 17.2126 20.9999 17.2126ZM31.0999 20.4999C31.0999 19.1387 31.1125 17.7897 31.0342 16.4309C30.9559 14.8526 30.5871 13.4518 29.4048 12.2977C28.22 11.1411 26.7876 10.7835 25.1708 10.7071C23.7763 10.6306 22.3944 10.6429 21.0025 10.6429C19.608 10.6429 18.2261 10.6306 16.8342 10.7071C15.2174 10.7835 13.7824 11.1436 12.6002 12.2977C11.4154 13.4543 11.049 14.8526 10.9707 16.4309C10.8924 17.7922 10.905 19.1411 10.905 20.4999C10.905 21.8588 10.8924 23.2102 10.9707 24.569C11.049 26.1473 11.4179 27.5481 12.6002 28.7022C13.785 29.8588 15.2174 30.2164 16.8342 30.2928C18.2286 30.3693 19.6105 30.3569 21.0025 30.3569C22.397 30.3569 23.7788 30.3693 25.1708 30.2928C26.7876 30.2164 28.2225 29.8563 29.4048 28.7022C30.5896 27.5456 30.9559 26.1473 31.0342 24.569C31.115 23.2102 31.0999 21.8612 31.0999 20.4999ZM20.9999 25.5579C18.1326 25.5579 15.8186 23.299 15.8186 20.4999C15.8186 17.7009 18.1326 15.442 20.9999 15.442C23.8672 15.442 26.1813 17.7009 26.1813 20.4999C26.1813 23.299 23.8672 25.5579 20.9999 25.5579ZM26.3935 16.4161C25.724 16.4161 25.1834 15.8883 25.1834 15.2348C25.1834 14.5813 25.724 14.0536 26.3935 14.0536C27.0629 14.0536 27.6036 14.5813 27.6036 15.2348C27.6038 15.39 27.5726 15.5437 27.5118 15.6871C27.4511 15.8305 27.362 15.9608 27.2496 16.0705C27.1372 16.1803 27.0037 16.2673 26.8568 16.3266C26.7099 16.3859 26.5524 16.4163 26.3935 16.4161Z" fill="white"/>
</svg>
