<svg width="35" height="26" viewBox="0 0 35 26" fill="none" xmlns="http://www.w3.org/2000/svg">
<g clip-path="url(#clip0_4731_38272)">
<path d="M24.7454 9.62926C24.8787 10.19 24.909 10.5228 24.9514 12.1435C24.9696 13.1664 24.9999 14.023 25.006 14.023C25.006 14.0291 25.0848 14.0599 25.1817 14.0784C25.4181 14.1401 25.3999 14.3249 25.1151 14.6022L24.8787 14.8364V15.7299C24.8787 16.5249 24.8666 16.6173 24.7696 16.5803C24.6787 16.5433 24.6666 16.5742 24.6908 16.7036C24.709 16.8022 24.6969 16.9192 24.6726 16.9685C24.6302 17.024 24.612 16.9685 24.612 16.8022C24.612 16.6666 24.6484 16.5249 24.6787 16.5064C24.7332 16.4694 24.7272 16.4324 24.6726 16.3585C24.6302 16.303 24.612 16.2414 24.6363 16.2106C24.6545 16.1921 24.6787 16.2106 24.6787 16.2599C24.6787 16.3092 24.6908 16.3338 24.7151 16.3153C24.7635 16.2722 24.5514 15.847 24.4787 15.847C24.4545 15.847 24.3878 15.9394 24.3454 16.0565C24.2969 16.1674 24.2242 16.266 24.1817 16.266C24.1393 16.266 24.1575 16.303 24.206 16.34C24.2848 16.3954 24.2726 16.4016 24.1575 16.3646C24.0605 16.34 23.9999 16.3523 23.9999 16.4016C23.9999 16.4447 23.9757 16.4571 23.9332 16.4386C23.8908 16.4139 23.8666 16.4879 23.8666 16.605C23.8666 16.7282 23.8302 16.8206 23.7878 16.8206C23.7272 16.8206 23.6908 16.6296 23.6787 16.1181C23.6666 15.619 23.6848 15.4403 23.7393 15.4711C23.7939 15.5081 23.7939 15.4773 23.7393 15.3725C23.6969 15.2986 23.6666 15.126 23.6666 14.9966C23.6666 14.8241 23.612 14.707 23.4605 14.5591C23.206 14.3188 23.1878 14.1092 23.412 14.1092C23.6181 14.1092 23.9393 13.7703 23.9393 13.5546C23.9393 13.4006 23.9332 13.3944 23.806 13.5177C23.5999 13.7025 23.5757 13.5978 23.7696 13.4129C23.8666 13.3205 23.9393 13.1726 23.9393 13.0801C23.9393 12.9138 23.9332 12.9138 23.8181 13.0185C23.612 13.2095 23.5575 13.1479 23.7514 12.9446C23.9575 12.7227 24.0726 12.3099 23.8787 12.4639C23.6545 12.6673 23.5696 12.6673 23.7575 12.4639C23.8666 12.3407 23.9393 12.1866 23.9393 12.0634V11.8723L23.7575 12.0387L23.5696 12.2051L23.7575 11.9894C23.8666 11.8662 23.9393 11.6998 23.9393 11.5827C23.9393 11.3978 23.9332 11.3978 23.8181 11.5026C23.6423 11.6628 23.6302 11.6567 23.6302 11.3547C23.612 10.5166 23.7939 9.85726 24.1757 9.40742C24.2545 9.31498 24.2787 9.25952 24.2242 9.2965C24.1635 9.33347 24.1454 9.32115 24.1757 9.27801C24.1999 9.22871 24.2726 9.1979 24.3272 9.1979C24.3817 9.1979 24.4181 9.17325 24.3939 9.13628C24.3575 9.08082 24.4423 9.01303 24.5635 9.00071C24.5696 8.99454 24.6545 9.28417 24.7454 9.62926Z" fill="#E77817"/>
<path d="M16.5333 9.9559C16.5879 9.96207 16.6061 10.2147 16.6 10.7324L16.5939 11.5026L15.6242 11.4965L14.6485 11.4842V12.6673H16.4909V14.1894H14.6485V15.2986L15.1818 15.3048C15.4667 15.3048 15.9091 15.3048 16.1697 15.2986L16.6242 15.2924V15.693C16.6182 16.0812 16.6182 16.0874 16.503 15.958C16.2909 15.7176 15.9697 15.7485 15.9333 16.0134C15.9212 16.0935 15.8667 16.1736 15.8121 16.1736C15.7576 16.1798 15.6667 16.186 15.6303 16.1921C15.5818 16.1921 15.5394 16.2599 15.5394 16.34C15.5394 16.451 15.497 16.4694 15.2848 16.4633C15.1455 16.4571 15.0182 16.4941 15.0061 16.5311C14.9576 16.679 14.8788 16.6235 14.8364 16.414C14.7939 16.2353 14.7758 16.2229 14.503 16.2353C14.3394 16.2414 14.1394 16.2846 14.0545 16.3339C13.9212 16.4078 13.8788 16.4017 13.8182 16.3154C13.7636 16.2476 13.6848 16.2168 13.5879 16.2476C13.4667 16.2846 13.4303 16.3462 13.4303 16.5249C13.4303 16.6481 13.4061 16.7714 13.3636 16.796C13.3273 16.8145 13.297 16.7899 13.297 16.7283C13.297 16.6543 13.2606 16.6235 13.2 16.6481C13.0545 16.7036 13.0424 16.4017 13.0424 13.0124L13.0303 9.96823L13.9091 9.97439C14.3939 9.97439 14.7697 9.99904 14.7515 10.036C14.7333 10.0607 14.7455 10.1038 14.7879 10.1346C14.8242 10.1531 14.8545 10.1346 14.8545 10.0853C14.8545 10.0114 15 9.98672 15.4424 9.98055C15.7636 9.97439 16.0364 9.96207 16.0485 9.94358C16.0606 9.93126 16.1636 9.92509 16.2667 9.93126C16.3697 9.94358 16.4909 9.9559 16.5333 9.9559ZM20.2303 9.98672C21.1091 9.99288 21.3152 10.0114 21.3879 10.0976C21.4606 10.1962 21.4667 10.1962 21.4364 10.0976C21.4 10.0052 21.4606 9.98672 21.7758 9.97439C21.9818 9.96823 22.1515 9.98672 22.1576 10.0175C22.1758 10.264 22.1818 11.2808 22.1636 11.3671C22.1394 11.4718 22.0182 11.4903 21.1697 11.5026L20.2061 11.5211V12.6303L21.0788 12.6488L21.9455 12.6673V14.1894L21.2848 14.1832C20.9152 14.1771 20.5212 14.1771 20.4121 14.1771L20.2061 14.1832L20.2182 15.1938C20.2303 16.0196 20.2182 16.2168 20.1394 16.3092C20.0848 16.3647 20.0485 16.4386 20.0727 16.4756C20.1152 16.5311 20.0182 16.568 19.8909 16.5434C19.8545 16.5434 19.8364 16.568 19.8364 16.605C19.8364 16.6481 19.7758 16.6728 19.703 16.6728C19.5939 16.6728 19.5697 16.6235 19.5576 16.4078C19.5515 16.2722 19.5515 16.1305 19.5576 16.0935C19.5636 16.0689 19.4788 16.0258 19.3576 15.9949C19.2424 15.9765 19.1515 15.921 19.1576 15.8779C19.1818 15.6499 19.1394 15.4896 19.0485 15.4896C18.9879 15.4896 18.9273 15.4403 18.903 15.3849C18.8788 15.3294 18.8061 15.2801 18.7394 15.2801C18.6727 15.2801 18.6061 15.2185 18.5818 15.1322C18.5636 15.0583 18.5455 13.8628 18.5576 12.4824L18.5697 9.97439L18.8061 9.93126C18.9333 9.91277 19.0727 9.91277 19.097 9.92509C19.1333 9.96207 19.6424 9.98055 20.2303 9.98672ZM0.206061 10.0052C0.206061 10.0237 0.169697 10.1038 0.139394 10.1777C0.0848485 10.2702 0.0909091 10.3072 0.139394 10.3072C0.254545 10.3072 0.424242 10.5105 0.375758 10.5845C0.357576 10.6214 0.30303 10.6522 0.266667 10.6522C0.224242 10.6522 0.218182 10.6153 0.248485 10.5721C0.278788 10.5228 0.266667 10.5167 0.212121 10.5475C0.169697 10.5721 0.151515 10.6276 0.169697 10.6646C0.193939 10.7015 0.175758 10.7262 0.133333 10.7262C0.0909091 10.7262 0.0787879 10.7632 0.109091 10.8001C0.133333 10.8556 0.169697 10.8494 0.212121 10.7878C0.266667 10.6954 0.30303 10.7508 0.278788 10.8864C0.272727 10.9234 0.29697 10.9295 0.339394 10.8987C0.381818 10.8802 0.393939 10.8309 0.381818 10.8001C0.363636 10.7755 0.381818 10.7077 0.418182 10.6522C0.472727 10.5598 0.490909 10.5721 0.557576 10.6646C0.593939 10.7324 0.660606 10.7878 0.70303 10.7878C0.751515 10.7878 0.684848 10.6769 0.551515 10.5475C0.363636 10.3441 0.339394 10.2887 0.418182 10.2024C0.472727 10.1346 0.478788 10.0976 0.424242 10.0976C0.381818 10.0976 0.351515 10.1346 0.351515 10.1716C0.351515 10.2086 0.315151 10.2209 0.284848 10.1962C0.242424 10.1716 0.248485 10.1223 0.30303 10.0607C0.369697 9.99288 0.763636 9.96823 2.00606 9.96207L3.62424 9.9559V11.478H1.63636V12.655H3.40606V14.1894L2.53939 14.1771H1.67273L1.66667 15.1815C1.66061 15.7361 1.6303 16.2229 1.61212 16.2599C1.58788 16.3031 1.49091 16.3215 1.39394 16.3092C1.24242 16.2846 1.23636 16.2969 1.27273 16.4571C1.30909 16.5804 1.29091 16.6235 1.23636 16.5865C1.19394 16.5557 1.16364 16.5742 1.16364 16.605C1.16364 16.7652 1.04242 16.6728 1.00606 16.4941C0.963636 16.2661 1.01212 16.112 1.12121 16.1736C1.16364 16.1921 1.13333 16.1552 1.06061 16.0751C0.981818 15.9949 0.860606 15.9518 0.775758 15.9703C0.642424 15.9949 0.618182 15.9703 0.618182 15.7546C0.618182 15.5882 0.581818 15.4958 0.50303 15.4711C0.393939 15.428 0.290909 15.3726 0.187879 15.3171L0 15.2247V12.6303C0.00606061 11.2068 0.0242424 10.0237 0.0484848 10.0052C0.10303 9.94974 0.206061 9.94974 0.206061 10.0052ZM4.67273 10.0792C4.65455 10.1284 4.66667 10.1716 4.69697 10.1716C4.73333 10.1716 4.7697 10.1284 4.79394 10.073C4.8303 9.99288 5.03636 9.97439 5.95758 9.99904C7.30303 10.0237 7.64848 10.1161 8.07273 10.5475C8.51515 10.9912 8.67879 11.4164 8.67879 12.0881C8.68485 12.5687 8.65454 12.7104 8.47273 13.0987C8.25455 13.567 7.9697 13.8566 7.58182 13.9922C7.41212 14.0538 7.37576 14.0908 7.42424 14.1771C7.49091 14.3003 8.07273 15.1322 8.32121 15.465C8.47273 15.656 8.47273 15.6683 8.33939 15.7546C8.27273 15.8039 8.1697 15.8779 8.12727 15.921C8.06061 15.9765 8.03636 15.9703 8.03636 15.8963C8.03636 15.8347 7.98788 15.8162 7.90303 15.8347C7.80606 15.8594 7.76364 15.8347 7.76364 15.7669C7.76364 15.6437 7.64242 15.5882 7.47273 15.6375C7.3697 15.6622 7.35151 15.7176 7.3697 15.9025C7.38182 16.0319 7.3697 16.1367 7.34545 16.1367C7.32121 16.1367 7.29091 16.0874 7.29091 16.0319C7.29091 15.9765 7.24848 15.9272 7.21212 15.9272C7.10909 15.9272 6.95151 15.6129 6.95151 15.428C6.95151 15.274 6.82424 15.2616 6.80606 15.4095C6.78788 15.619 6.78182 15.6437 6.70303 15.7238C6.64848 15.7793 6.52727 15.619 6.24848 15.1445C6.0303 14.7871 5.86061 14.4605 5.86061 14.4174C5.86061 14.3804 5.82424 14.325 5.78788 14.3065C5.73939 14.2695 5.72121 14.5468 5.73333 15.2185C5.73939 15.7546 5.72727 16.2229 5.69697 16.2661C5.66061 16.3215 5.60606 16.3277 5.53333 16.2846C5.47273 16.2599 5.38182 16.2414 5.34545 16.2599C5.30909 16.2784 5.24849 16.2168 5.2303 16.1305C5.20606 16.0504 5.1697 16.0011 5.15152 16.0196C5.12121 16.0442 5.04848 16.0073 4.97576 15.9272C4.8303 15.7793 4.69697 15.7608 4.49697 15.8717C4.42424 15.9087 4.30909 15.921 4.2303 15.9025C4.10909 15.8594 4.10303 15.7546 4.10303 12.9754C4.10303 11.3856 4.11515 10.073 4.12727 10.0422C4.13939 10.0175 4.27879 9.99904 4.43636 9.99904C4.6303 9.99288 4.69697 10.0175 4.67273 10.0792ZM12.6061 10.7262V11.4903H10.6667L10.6788 11.7799C10.6848 11.9463 10.6909 12.2113 10.6909 12.3715L10.697 12.6673H12.5394V14.1894H10.697V15.3417L11.6424 15.3233L12.5818 15.3048L12.6242 15.6375C12.6424 15.8162 12.6303 15.9888 12.6 16.0319C12.5576 16.0689 12.5394 16.0442 12.5394 15.9765C12.5394 15.8347 12.303 15.73 12.1152 15.7731C12.0424 15.7854 11.9939 15.8717 11.9939 15.9641C11.9939 16.1552 11.8667 16.2538 11.7818 16.1244C11.7394 16.0566 11.7212 16.0504 11.7212 16.112C11.7212 16.1613 11.6788 16.2045 11.6242 16.2045C11.5636 16.2045 11.5455 16.2538 11.5636 16.3524C11.6 16.4756 11.5818 16.4941 11.4545 16.451C11.3576 16.4263 11.2424 16.4448 11.1333 16.5187C10.9152 16.6666 10.8667 16.6297 10.8424 16.3031C10.8364 16.2291 10.7939 16.2106 10.697 16.2414C10.6061 16.2661 10.5455 16.2476 10.5212 16.1736C10.4848 16.0812 10.4667 16.0812 10.4 16.1613C10.3576 16.2168 10.2303 16.2907 10.1091 16.3339C9.93939 16.3893 9.88485 16.3893 9.85455 16.3031C9.8303 16.2353 9.76364 16.2106 9.67273 16.2414C9.58182 16.2722 9.48485 16.2414 9.38788 16.1613C9.23636 16.0381 9.23636 16.0381 9.36364 16.1798C9.47879 16.3277 9.52727 16.7283 9.42424 16.7899C9.4 16.8022 9.31515 16.7776 9.24242 16.7221C9.11515 16.6235 9.10909 16.5187 9.08485 13.3082L9.06667 9.98672L10.8424 9.98055L12.6121 9.97439L12.6061 10.7262ZM5.72727 12.2483V13.0802L5.95151 13.074C6.5697 13.0617 6.98788 12.7413 6.97576 12.2791C6.96364 11.6875 6.67879 11.4225 6.06667 11.4225H5.72727V12.2483ZM29.8485 10.1531C30.4909 10.4427 30.8727 10.9419 31 11.6382C31.0727 12.0757 31.0121 12.7043 30.8485 13.0925C30.7212 13.4191 30.303 13.832 29.9697 13.9799L29.703 14.0908L30.2545 14.8857L30.8121 15.6745L30.6121 15.8347C30.3879 16.0196 30.303 16.0381 30.3697 15.884C30.4061 15.7854 30.3879 15.7793 30.2606 15.847C30.1818 15.8963 30.1333 15.958 30.1515 16.0011C30.1758 16.0381 30.1636 16.0627 30.1273 16.0627C30.0848 16.0627 30.0727 15.9826 30.103 15.8532C30.1394 15.6622 30.1273 15.6437 29.9333 15.6437C29.7394 15.6437 29.7212 15.656 29.7455 15.884C29.7636 16.1736 29.6848 16.1675 29.5273 15.884C29.4667 15.7669 29.3879 15.6622 29.3636 15.656C29.3273 15.6437 29.3091 15.5513 29.3091 15.4527C29.3091 15.237 29.1515 15.274 29.1394 15.4896C29.1152 15.884 28.9818 15.7793 28.5394 15.0028L28.0848 14.2202V15.2863C28.0848 16.2722 28.0788 16.3462 27.9697 16.2969C27.903 16.2722 27.7939 16.2476 27.7333 16.2476C27.6667 16.2476 27.6121 16.2045 27.6121 16.149C27.6121 16.0935 27.5636 16.0504 27.5091 16.0504C27.4606 16.0504 27.3879 16.0011 27.3515 15.9456C27.3273 15.884 27.1939 15.8286 27.0667 15.8101C26.7515 15.7669 26.5879 15.9272 26.5879 16.2722C26.5879 16.4201 26.5636 16.5372 26.5212 16.5372C26.4485 16.5372 26.4182 10.0792 26.497 10.0052C26.5212 9.98672 27.2182 9.96823 28.0485 9.98672C29.3818 10.0052 29.5758 10.0237 29.8485 10.1531ZM31.8121 10.0483C31.8727 10.11 31.8909 10.11 31.8909 10.0483C31.8909 9.99288 32.0242 9.96823 32.297 9.96823C32.6303 9.96823 32.6909 9.98672 32.6667 10.073C32.6424 10.1408 32.6667 10.1777 32.7333 10.1777C32.7939 10.1777 32.8606 10.1284 32.8848 10.073C32.9394 9.93742 33.0485 9.94358 33.0485 10.0853C33.0485 10.1901 33.0545 10.1901 33.1697 10.0853C33.3212 9.94974 33.6 9.93126 33.7151 10.0483C33.7636 10.0976 33.7939 10.1038 33.7939 10.0607C33.7939 10.0175 34.0303 9.99288 34.3758 9.99288H34.9576V11.5273L34.0061 11.5088L33.0545 11.4903V12.6735H34.897V14.1956H33.0545V15.3417L34 15.3233L34.9394 15.3048L34.9818 15.6375C35.0242 16.0134 34.9879 16.0935 34.8667 15.9148C34.703 15.693 34.3515 15.7916 34.3515 16.0566C34.3515 16.2106 34.3333 16.2229 34.1758 16.186C34.0303 16.1428 33.9939 16.1675 33.9636 16.2846C33.9394 16.3893 33.8848 16.4201 33.7758 16.4078C33.697 16.4017 33.5515 16.4448 33.4485 16.5126C33.3455 16.5804 33.2606 16.6112 33.2485 16.5804C33.2485 16.5434 33.2364 16.4879 33.2303 16.4571C33.2182 16.414 33.2121 16.3462 33.2061 16.2969C33.2 16.2353 33.097 16.2168 32.8606 16.2229C32.6788 16.2353 32.5212 16.2661 32.5212 16.2907C32.5212 16.3893 32.2849 16.3955 32.2061 16.2969C32.1576 16.2353 32.0848 16.2168 31.9879 16.2414C31.8727 16.2846 31.8364 16.3462 31.8364 16.5311C31.8364 16.7652 31.7697 16.8145 31.5455 16.7221C31.4545 16.6851 31.4424 16.2538 31.4364 13.604C31.4303 11.4472 31.4424 10.529 31.497 10.529C31.5455 10.529 31.5515 10.4859 31.497 10.3996C31.3758 10.1593 31.4182 9.97439 31.5879 9.97439C31.6606 9.96207 31.7636 9.99904 31.8121 10.0483ZM28.0788 12.2606V13.1048L28.4727 13.0555C29.1394 12.9816 29.4606 12.5687 29.303 11.9833C29.2 11.6012 28.9273 11.4225 28.4364 11.4225H28.0727V12.2606H28.0788Z" fill="white"/>
</g>
<defs>
<clipPath id="clip0_4731_38272">
<rect width="35" height="8" fill="white" transform="translate(0 9)"/>
</clipPath>
</defs>
</svg>
