<svg width="28" height="27" viewBox="0 0 28 27" fill="none" xmlns="http://www.w3.org/2000/svg">
<path fill-rule="evenodd" clip-rule="evenodd" d="M22.6416 13.63C22.6426 13.688 22.6432 13.7462 22.6432 13.8044C22.6432 16.0766 21.8266 18.158 20.4709 19.7713L19.6661 22.5727C22.3881 20.6123 24.1603 17.4156 24.1603 13.8049C24.1603 13.485 24.1464 13.1683 24.1192 12.8554L22.6416 13.63ZM16.8588 3.58586C15.7623 3.21084 14.5863 3.00732 13.3628 3.00732C12.4674 3.00732 11.5975 3.1163 10.7656 3.32171V4.89276C11.5899 4.65293 12.4615 4.52435 13.3631 4.52435C14.2365 4.52435 15.0817 4.645 15.8829 4.87055L16.8588 3.58586Z" fill="#2DAEF7"/>
<path d="M9.77266 1.5188H3.6443L4.72406 4.02851V22.5887L3.58594 24.8357H17.8563L19.1111 20.3708H9.77266V1.5188Z" fill="#2DAEF7"/>
<path fill-rule="evenodd" clip-rule="evenodd" d="M3.73184 18.6937V8.91675C2.98531 10.3845 2.56445 12.0457 2.56445 13.8052C2.56445 15.5647 2.98531 17.2259 3.73184 18.6937Z" fill="#2DAEF7"/>
<path d="M10.7871 19.0984V15.2327C20.4084 4.8751 16.1868 7.23542 12.8734 9.71029C14.254 8.299 17.5183 4.961 19.531 2.89929C22.1326 3.12019 23.1512 4.01401 23.3353 4.4333C22.6297 4.96509 21.1263 6.1023 20.7582 6.39683C20.39 6.69136 20.2571 7.48087 20.2366 7.8388L14.8676 13.3919C15.3482 13.0135 18.0767 10.7841 25.1454 4.8935C25.489 5.45802 25.4727 6.21275 25.4216 6.51955C25.1454 6.70363 24.6668 7.40314 24.9614 8.72853C10.1121 16.9999 15.1948 15.9997 19.5923 14.4657L10.7871 19.0984Z" fill="#2DAEF7"/>
<path d="M23.7946 10.2014L18.5176 13.5149L24.1321 11.3673L23.7946 10.2014Z" fill="#2DAEF7"/>
</svg>
