<svg width="40" height="26" viewBox="0 0 40 26" fill="none" xmlns="http://www.w3.org/2000/svg">
<path d="M1.19176 12.8338L0.122232 11.0004H1.95571L5.50043 17.3259L9.10627 11.0004H10.8786L9.77855 12.7422L10.3591 19.526L11.3981 20.1066V20.3817H8.89236V20.1983L9.07571 19.9844L8.67846 14.6673L5.50043 20.5039L2.35296 14.6368L1.7418 19.8316L2.1085 20.1678L2.13906 20.3817H0L0.030558 20.1983L0.458369 19.7094L1.19176 12.8338Z" fill="white"/>
<path d="M15.5183 16.0589C15.369 15.9101 15.3656 15.6694 15.5106 15.5164L16.321 14.6615C16.4751 14.499 16.7343 14.5001 16.887 14.6638L17.6847 15.5188C17.8268 15.6711 17.8235 15.9085 17.6771 16.0567L16.8795 16.8647C16.7282 17.0179 16.4812 17.0189 16.3287 16.8669L15.5183 16.0589Z" fill="#E2C38C"/>
<path d="M13.1111 15.8285C13.0377 14.1417 15.2196 12.9051 16.3197 12.4977L16.3502 10.8475C16.1669 11.0003 15.6535 11.3731 15.0668 11.642C13.5083 11.9782 11.3387 13.8422 11.6443 16.1035C11.9499 18.3648 14.364 19.7399 15.0668 19.9538C15.6291 20.1249 16.1363 20.4325 16.3197 20.565V19.1593C15.2807 18.7519 13.1844 17.5153 13.1111 15.8285Z" fill="#E2C38C"/>
<path d="M20.0452 15.8285C20.1185 14.1417 17.9367 12.9051 16.8366 12.4977L16.806 10.8475C16.9894 11.0003 17.5027 11.3731 18.0895 11.642C19.6479 11.9782 21.8175 13.8422 21.5119 16.1035C21.2064 18.3648 18.7923 19.7399 18.0895 19.9538C17.5272 20.1249 17.0199 20.4325 16.8366 20.565V19.1593C17.8756 18.7519 19.9718 17.5153 20.0452 15.8285Z" fill="#E2C38C"/>
<path fill-rule="evenodd" clip-rule="evenodd" d="M23.5276 11.3975L22.7637 10.9697V10.8781H27.1335C28.1113 11.0308 28.8141 11.8253 28.9669 12.6504C29.1197 13.4755 28.6308 14.6672 27.7446 15.095C29.0586 15.2478 30.342 16.5313 30.1587 18.1203C29.7431 19.6604 28.0502 20.2492 27.2557 20.351H22.7942C23.112 20.2043 23.4156 19.7195 23.5276 19.4954V11.3975ZM24.873 14.6366V11.6725C26.8899 11.4891 27.5316 12.5281 27.1038 13.781C26.7615 14.7833 25.474 14.769 24.873 14.6366ZM24.9051 15.6451V18.7926C25.1903 19.1796 26.0846 19.7826 27.3803 19.0982C28.7248 18.3878 27.9609 16.409 26.7691 15.8896C26.0392 15.5714 25.2311 15.6145 24.9051 15.6451Z" fill="white"/>
<path fill-rule="evenodd" clip-rule="evenodd" d="M32.6674 17.5703L31.9341 19.4955C31.6692 19.6992 31.1151 20.1616 31.0173 20.3817H33.7675C33.7472 20.2798 33.6575 20.0394 33.462 19.8927C33.5597 19.4527 33.9509 18.2019 34.1342 17.6314H36.4261L37.4345 20.0761C37.3937 20.1372 37.3061 20.2839 37.2817 20.3817H39.6958C39.6448 20.2594 39.5002 20.0027 39.3291 19.9538C39.158 19.905 38.4836 18.2833 38.1679 17.4787L39.9708 17.387C40.0217 17.3462 40.038 17.2342 39.6958 17.112C39.3535 16.9897 38.4327 16.9184 38.0151 16.8981L35.4788 10.9087H33.5231C33.8898 11.2652 34.5743 12.1127 34.3787 12.6505C34.1831 13.1883 33.4008 15.4211 33.0341 16.4702C33.0138 16.5517 32.8752 16.7269 32.4841 16.7758C32.093 16.8247 31.2007 17.0814 30.8034 17.2036C30.7729 17.2953 30.834 17.4787 31.3229 17.4787C31.8118 17.4787 32.423 17.5398 32.6674 17.5703ZM35.1445 14.6368L34.5028 16.5925H36.0613L35.1445 14.6368Z" fill="white"/>
<path d="M11.4285 6.5695C11.4624 6.5543 11.4913 6.54177 11.5394 6.52116C11.6118 6.5695 11.5812 6.53894 11.6118 6.5695C11.6384 6.59612 11.6424 6.60005 11.6424 6.60005C11.6424 6.61272 11.6984 6.67475 11.6984 6.67475C11.6988 6.67333 11.6912 6.66117 11.7007 6.67475C11.734 6.72229 11.734 6.75284 11.7659 6.81913L12.3067 8.92028L12.5757 8.95067C12.5757 9.0216 12.5596 9.09759 12.5275 9.17864H11.8764L11.8679 9.04566C11.9113 9.01526 11.9745 8.98867 12.0576 8.96587L11.9132 8.42254H11.1233L10.9902 8.92028L11.2195 8.95067C11.2195 9.0216 11.2035 9.09759 11.1714 9.17864H10.5202L10.5117 9.04566C10.5853 9.0102 10.6637 8.98234 10.7467 8.96207L11.296 6.80774C11.3368 6.69173 11.3673 6.63061 11.3979 6.60005L11.4285 6.5695ZM11.6895 7.57524L11.5394 6.83053C11.5281 6.828 11.5121 6.82673 11.4913 6.82673L11.3384 7.60184L11.1742 8.17937H11.8622L11.6895 7.57524Z" fill="white"/>
<path d="M13.9892 8.92788C14.0439 8.92788 14.1053 8.91268 14.1732 8.88228C14.2412 8.84935 14.2968 8.81009 14.3402 8.7645C14.3327 8.22496 14.3261 7.81588 14.3204 7.53725C14.2034 7.53725 14.1166 7.52205 14.06 7.49165L14.0713 7.29408C14.2317 7.25608 14.3572 7.23708 14.4478 7.23708C14.5403 7.23708 14.5988 7.23962 14.6234 7.24468C14.6234 7.29028 14.6177 7.35107 14.6064 7.42706C14.5969 7.50305 14.5903 7.54484 14.5866 7.55244L14.5526 8.90888C14.6526 8.91648 14.7338 8.93167 14.7961 8.95447L14.7904 9.14825C14.7074 9.18371 14.6271 9.20144 14.5498 9.20144C14.4724 9.20144 14.4252 9.20018 14.4082 9.19764C14.3723 9.10139 14.3516 9.01273 14.3459 8.93167C14.2534 9.0254 14.1675 9.09759 14.0883 9.14825C14.0109 9.19891 13.9599 9.22424 13.9354 9.22424C13.7693 9.22424 13.6485 9.16471 13.573 9.04566C13.4994 8.92408 13.4626 8.74676 13.4626 8.51373C13.4626 8.51119 13.4711 8.18697 13.4881 7.54105C13.3786 7.54105 13.2776 7.52458 13.1851 7.49165L13.1964 7.29408C13.3569 7.25608 13.4814 7.23708 13.5702 7.23708C13.6589 7.23708 13.7155 7.23962 13.74 7.24468C13.74 7.30547 13.7344 7.3726 13.723 7.44606C13.7117 7.51951 13.7051 7.55498 13.7032 7.55244L13.7061 8.37314C13.7061 8.56565 13.724 8.70624 13.7598 8.79489C13.7957 8.88355 13.8722 8.92788 13.9892 8.92788Z" fill="white"/>
<path d="M15.7183 8.94307L15.6956 7.51065H15.4776L15.4691 7.37767C15.488 7.35993 15.5427 7.327 15.6333 7.27888L15.8655 6.79254C15.9032 6.7976 15.9325 6.81027 15.9533 6.83053L15.9504 7.24848C16.092 7.24848 16.2081 7.26115 16.2987 7.28648C16.2987 7.35487 16.2826 7.42959 16.2505 7.51065H15.9448C15.941 7.81461 15.9372 8.27562 15.9334 8.89368C16.0391 8.90128 16.1448 8.92661 16.2505 8.96967L16.2477 9.10265C16.2213 9.12545 16.1533 9.15205 16.0439 9.18244C15.9363 9.21284 15.8476 9.22804 15.7777 9.22804C15.7683 9.20777 15.756 9.16471 15.7409 9.09885C15.7258 9.03046 15.7183 8.97854 15.7183 8.94307Z" fill="white"/>
<path d="M17.7133 8.99627C17.8719 8.99627 17.9785 8.93041 18.0332 8.79869C18.0899 8.66444 18.1182 8.47446 18.1182 8.22876C18.1182 7.83868 18.054 7.59424 17.9256 7.49545C17.8728 7.45492 17.7982 7.43466 17.702 7.43466C17.6076 7.43466 17.5179 7.46126 17.433 7.51445C17.3575 7.70949 17.3198 7.9362 17.3198 8.19457C17.3198 8.4428 17.3443 8.63404 17.3934 8.76829C17.45 8.92028 17.5566 8.99627 17.7133 8.99627ZM17.0593 8.22876C17.0593 7.90707 17.114 7.6563 17.2235 7.47645C17.333 7.29408 17.5019 7.20289 17.7303 7.20289C17.9587 7.20289 18.1238 7.28648 18.2258 7.45366C18.3277 7.6183 18.3786 7.86274 18.3786 8.18697C18.3786 8.51119 18.3239 8.76576 18.2144 8.95067C18.1068 9.13558 17.9426 9.22804 17.7218 9.22804C17.501 9.22804 17.3349 9.14192 17.2235 8.96967C17.114 8.79742 17.0593 8.55046 17.0593 8.22876Z" fill="white"/>
<path d="M19.936 9.22804C19.3811 9.22804 19.1037 8.7607 19.1037 7.82601C19.1037 7.38273 19.1707 7.04584 19.3047 6.81533C19.4406 6.58483 19.6567 6.46958 19.953 6.46958C20.1909 6.46958 20.4023 6.55823 20.5872 6.73554C20.5872 6.87739 20.574 7.05724 20.5476 7.27508C20.5212 7.28268 20.4664 7.28648 20.3834 7.28648L20.2984 6.81533C20.1644 6.7824 20.0568 6.76594 19.9757 6.76594C19.8266 6.76594 19.6954 6.7938 19.5821 6.84953L19.5284 6.87613C19.517 6.90146 19.5029 6.93945 19.4859 6.99011C19.4689 7.03824 19.4462 7.14083 19.4179 7.29788C19.3915 7.45492 19.3783 7.61577 19.3783 7.78042C19.3783 8.13757 19.4217 8.42127 19.5085 8.63151C19.5972 8.84175 19.7379 8.94687 19.9304 8.94687C20.0682 8.94687 20.172 8.92788 20.2418 8.88988C20.2607 8.87721 20.2881 8.85822 20.3239 8.83289L20.3834 8.37694L20.5476 8.38834C20.5759 8.64924 20.5901 8.86075 20.5901 9.02286C20.5504 9.06339 20.4645 9.10772 20.3324 9.15585C20.2022 9.20397 20.0701 9.22804 19.936 9.22804Z" fill="white"/>
<path d="M21.7843 6.35559C21.8428 6.35559 21.8844 6.35812 21.9089 6.36319C21.9089 6.40878 21.9032 6.46831 21.8919 6.54177C21.8825 6.61269 21.8759 6.65449 21.8721 6.66715C21.8721 6.72288 21.8702 6.83813 21.8664 7.01291C21.8626 7.18769 21.8608 7.32321 21.8608 7.41946C21.9419 7.3612 22.0221 7.31054 22.1014 7.26748C22.1826 7.22442 22.2335 7.20289 22.2543 7.20289C22.4355 7.20289 22.5667 7.26368 22.6478 7.38526C22.729 7.50432 22.7696 7.68669 22.7696 7.9324C22.7696 8.00332 22.762 8.33261 22.7469 8.92028L22.9848 8.95067C22.9848 9.0216 22.9687 9.09759 22.9366 9.17864H22.2854L22.2769 9.04566C22.3638 9.00513 22.4487 8.97474 22.5318 8.95447C22.5204 8.29082 22.5101 7.92227 22.5006 7.84881C22.4931 7.77282 22.4799 7.70696 22.461 7.65123C22.4421 7.59551 22.4138 7.55624 22.376 7.53345C22.3383 7.51065 22.2883 7.49925 22.226 7.49925C22.0976 7.49925 21.975 7.53978 21.8579 7.62084L21.8409 8.92028L22.0788 8.95067C22.0788 9.0216 22.0627 9.09759 22.0306 9.17864H21.3795L21.371 9.04566C21.4578 9.00513 21.5427 8.97474 21.6258 8.95447L21.5918 6.65575C21.488 6.64815 21.4049 6.63296 21.3426 6.61016L21.354 6.41258C21.4502 6.37459 21.5937 6.35559 21.7843 6.35559Z" fill="white"/>
<path d="M24.4207 8.96587C24.5038 8.96587 24.634 8.91268 24.8114 8.80629C24.8473 8.87215 24.8661 8.93041 24.868 8.98107C24.7718 9.05706 24.6774 9.11659 24.5849 9.15965C24.4924 9.20271 24.4264 9.22424 24.3867 9.22424C24.1678 9.22424 24.0007 9.13685 23.8856 8.96207C23.7705 8.78476 23.7129 8.53779 23.7129 8.22116C23.7129 7.90453 23.7686 7.6563 23.8799 7.47645C23.9932 7.29408 24.1621 7.20289 24.3867 7.20289C24.5604 7.20289 24.6925 7.28648 24.7831 7.45366C24.8756 7.62084 24.9218 7.84501 24.9218 8.12617C24.9067 8.16164 24.8945 8.1857 24.885 8.19836L23.9734 8.17937C23.9753 8.4352 24.0083 8.63025 24.0725 8.7645C24.1385 8.89875 24.2546 8.96587 24.4207 8.96587ZM24.6642 7.96279C24.6642 7.79561 24.6415 7.66643 24.5962 7.57524C24.5509 7.48152 24.4754 7.43466 24.3697 7.43466C24.264 7.43466 24.1697 7.46126 24.0866 7.51445C24.03 7.66643 23.9941 7.82221 23.979 7.98179C24.1281 7.97926 24.3565 7.97293 24.6642 7.96279Z" fill="white"/>
<path d="M25.9516 8.93547C26.0177 8.97347 26.0979 8.99247 26.1922 8.99247C26.2885 8.99247 26.364 8.9684 26.4187 8.92028C26.4735 8.87215 26.5008 8.80629 26.5008 8.7227C26.5008 8.63911 26.4754 8.56945 26.4244 8.51373C26.3734 8.458 26.3112 8.40861 26.2375 8.36554C26.1639 8.32248 26.0903 8.27689 26.0167 8.22876C25.9431 8.18063 25.8808 8.11731 25.8299 8.03878C25.7789 7.96026 25.7534 7.86907 25.7534 7.76522C25.7534 7.59044 25.7968 7.45366 25.8836 7.35487C25.9705 7.25355 26.0903 7.20289 26.2432 7.20289C26.398 7.20289 26.5433 7.24975 26.6792 7.34347C26.6811 7.3688 26.682 7.43719 26.682 7.54864C26.682 7.65756 26.6736 7.75129 26.6566 7.82981C26.6113 7.85007 26.5575 7.86021 26.4952 7.86021L26.4018 7.47265C26.3602 7.44479 26.3036 7.43086 26.2319 7.43086C26.162 7.43086 26.1064 7.45619 26.0648 7.50685C26.0233 7.55498 26.0026 7.61704 26.0026 7.69303C26.0026 7.76648 26.028 7.83108 26.079 7.8868C26.1319 7.94253 26.1951 7.99319 26.2687 8.03878C26.3423 8.08185 26.4159 8.12871 26.4895 8.17937C26.5631 8.22749 26.6254 8.29209 26.6764 8.37314C26.7292 8.45167 26.7557 8.54286 26.7557 8.64671C26.7557 8.82909 26.7028 8.9722 26.5971 9.07606C26.4933 9.17738 26.365 9.22804 26.2121 9.22804C26.129 9.22804 26.0403 9.21031 25.9459 9.17484C25.8516 9.13685 25.7723 9.08872 25.7081 9.03046C25.7081 8.86075 25.7194 8.71004 25.7421 8.57832C25.7855 8.56819 25.844 8.56312 25.9176 8.56312L25.9516 8.93547Z" fill="white"/>
<path d="M27.798 8.93547C27.864 8.97347 27.9442 8.99247 28.0386 8.99247C28.1349 8.99247 28.2104 8.9684 28.2651 8.92028C28.3198 8.87215 28.3472 8.80629 28.3472 8.7227C28.3472 8.63911 28.3217 8.56945 28.2708 8.51373C28.2198 8.458 28.1575 8.40861 28.0839 8.36554C28.0103 8.32248 27.9367 8.27689 27.8631 8.22876C27.7895 8.18063 27.7272 8.11731 27.6762 8.03878C27.6253 7.96026 27.5998 7.86907 27.5998 7.76522C27.5998 7.59044 27.6432 7.45366 27.73 7.35487C27.8168 7.25355 27.9367 7.20289 28.0896 7.20289C28.2444 7.20289 28.3897 7.24975 28.5256 7.34347C28.5275 7.3688 28.5284 7.43719 28.5284 7.54864C28.5284 7.65756 28.5199 7.75129 28.5029 7.82981C28.4576 7.85007 28.4038 7.86021 28.3416 7.86021L28.2481 7.47265C28.2066 7.44479 28.15 7.43086 28.0783 7.43086C28.0084 7.43086 27.9527 7.45619 27.9112 7.50685C27.8697 7.55498 27.8489 7.61704 27.8489 7.69303C27.8489 7.76648 27.8744 7.83108 27.9254 7.8868C27.9782 7.94253 28.0414 7.99319 28.1151 8.03878C28.1887 8.08185 28.2623 8.12871 28.3359 8.17937C28.4095 8.22749 28.4718 8.29209 28.5228 8.37314C28.5756 8.45167 28.602 8.54286 28.602 8.64671C28.602 8.82909 28.5492 8.9722 28.4435 9.07606C28.3397 9.17738 28.2113 9.22804 28.0584 9.22804C27.9754 9.22804 27.8867 9.21031 27.7923 9.17484C27.6979 9.13685 27.6187 9.08872 27.5545 9.03046C27.5545 8.86075 27.5658 8.71004 27.5885 8.57832C27.6319 8.56819 27.6904 8.56312 27.764 8.56312L27.798 8.93547Z" fill="white"/>
<path d="M9.53482 8.37239L0.550781 8.18904C3.36211 8.10756 9.09478 7.94458 9.53482 7.94458C9.77928 8.1157 9.63668 8.30109 9.53482 8.37239Z" fill="white"/>
<path d="M29.7171 8.37239L38.7012 8.18904C35.8898 8.10756 30.1572 7.94458 29.7171 7.94458C29.4727 8.1157 29.6153 8.30109 29.7171 8.37239Z" fill="white"/>
</svg>
