<svg width="41" height="41" viewBox="0 0 41 41" fill="none" xmlns="http://www.w3.org/2000/svg">
<rect width="41" height="41" rx="9" fill="#323D55"/>
<path d="M29.7776 24.2905C29.7776 27.7282 27.7281 29.7777 24.2903 29.7777H23.1665C22.647 29.7777 22.222 29.3527 22.222 28.8332V23.3838C22.222 23.1288 22.4298 22.9116 22.6848 22.9116L24.347 22.8833C24.4792 22.8738 24.5926 22.7794 24.6209 22.6471L24.9515 20.8432C24.9798 20.6732 24.8476 20.5127 24.6681 20.5127L22.6564 20.541C22.392 20.541 22.1842 20.3332 22.1748 20.0782L22.137 17.7643C22.137 17.6132 22.2598 17.481 22.4203 17.481L24.687 17.4432C24.8475 17.4432 24.9703 17.3205 24.9703 17.1599L24.9326 14.8932C24.9326 14.7327 24.8098 14.6099 24.6492 14.6099L22.0992 14.6477C20.5314 14.676 19.2848 15.9605 19.3131 17.5282L19.3603 20.1255C19.3698 20.3899 19.162 20.5977 18.8976 20.6071L17.7642 20.626C17.6037 20.626 17.4809 20.7488 17.4809 20.9093L17.5092 22.7038C17.5092 22.8644 17.632 22.9871 17.7926 22.9871L18.9259 22.9682C19.1903 22.9682 19.3981 23.176 19.4076 23.431L19.4925 28.8144C19.502 29.3433 19.077 29.7777 18.5481 29.7777H16.3759C12.9381 29.7777 10.8887 27.7282 10.8887 24.281V16.376C10.8887 12.9382 12.9381 10.8888 16.3759 10.8888H24.2903C27.7281 10.8888 29.7776 12.9382 29.7776 16.376V24.2905Z" fill="white"/>
</svg>
