<svg width="20" height="20" viewBox="0 0 20 20" fill="none" xmlns="http://www.w3.org/2000/svg">
<path d="M19.7776 14.2906C19.7776 17.7284 17.7281 19.7778 14.2903 19.7778H13.1665C12.647 19.7778 12.222 19.3528 12.222 18.8334V13.3839C12.222 13.1289 12.4298 12.9117 12.6848 12.9117L14.347 12.8834C14.4792 12.8739 14.5926 12.7795 14.6209 12.6473L14.9515 10.8434C14.9798 10.6734 14.8476 10.5128 14.6681 10.5128L12.6564 10.5411C12.392 10.5411 12.1842 10.3334 12.1748 10.0784L12.137 7.76447C12.137 7.61336 12.2598 7.48115 12.4203 7.48115L14.687 7.44336C14.8475 7.44336 14.9703 7.3206 14.9703 7.16004L14.9326 4.89335C14.9326 4.7328 14.8098 4.61003 14.6492 4.61003L12.0992 4.64782C10.5314 4.67615 9.2848 5.96058 9.31313 7.52836L9.36034 10.1256C9.36978 10.39 9.16202 10.5978 8.89757 10.6073L7.76423 10.6261C7.60367 10.6261 7.4809 10.7489 7.4809 10.9095L7.50924 12.7039C7.50924 12.8645 7.632 12.9872 7.79256 12.9872L8.9259 12.9684C9.19035 12.9684 9.39811 13.1761 9.40755 13.4311L9.49255 18.8145C9.50199 19.3434 9.07699 19.7778 8.5481 19.7778H6.37589C2.93811 19.7778 0.888672 17.7284 0.888672 14.2811V6.37614C0.888672 2.93836 2.93811 0.888916 6.37589 0.888916H14.2903C17.7281 0.888916 19.7776 2.93836 19.7776 6.37614V14.2906Z" fill="white"/>
</svg>
