<svg width="41" height="38" viewBox="0 0 41 38" fill="none" xmlns="http://www.w3.org/2000/svg">
<path d="M19.9301 19.7505C22.687 19.7505 24.9301 17.6195 24.9301 15.0005C24.9301 12.3815 22.687 10.2505 19.9301 10.2505C17.1733 10.2505 14.9301 12.3815 14.9301 15.0005C14.9301 17.6195 17.1733 19.7505 19.9301 19.7505ZM19.9301 11.7505C21.8165 11.7505 23.3512 13.2085 23.3512 15.0005C23.3512 16.7925 21.8165 18.2505 19.9301 18.2505C18.0438 18.2505 16.5091 16.7925 16.5091 15.0005C16.5091 13.2085 18.0438 11.7505 19.9301 11.7505ZM27.0354 24.4005V25.2665C27.0354 26.0935 26.7165 26.8865 26.1386 27.4995C25.9838 27.6655 25.767 27.7495 25.5501 27.7495C25.3617 27.7495 25.1743 27.6865 25.0238 27.5585C24.6986 27.2825 24.6712 26.8085 24.9618 26.4995C25.2797 26.1615 25.4554 25.7235 25.4554 25.2665V24.4005C25.4554 23.1515 24.5839 22.0715 23.3365 21.7745C23.1323 21.7255 22.9196 21.7525 22.7459 21.8455C20.9965 22.7715 18.8533 22.7675 17.1175 21.8495C16.9354 21.7515 16.7228 21.7264 16.5218 21.7734C15.2733 22.0714 14.4017 23.1515 14.4017 24.4005V25.2665C14.4017 25.7235 14.5775 26.1615 14.8954 26.4995C15.1859 26.8085 15.1586 27.2825 14.8333 27.5585C14.5091 27.8335 14.0091 27.8085 13.7186 27.4995C13.1407 26.8865 12.8217 26.0925 12.8217 25.2665V24.4005C12.8217 22.4635 14.1838 20.7855 16.1343 20.3185C16.7238 20.1765 17.367 20.2575 17.8902 20.5425C19.1438 21.2045 20.7017 21.2085 21.9701 20.5385C22.4859 20.2575 23.127 20.1755 23.7196 20.3195C25.6733 20.7855 27.0354 22.4635 27.0354 24.4005ZM25.5018 10.9215C25.647 10.5315 26.0975 10.3265 26.5091 10.4645C28.0828 10.9925 29.1407 12.4135 29.1407 14.0005C29.1407 15.0665 28.6607 16.0845 27.8249 16.7955C27.6733 16.9235 27.4859 16.9865 27.2986 16.9865C27.0817 16.9865 26.8659 16.9025 26.7101 16.7365C26.4196 16.4275 26.447 15.9535 26.7723 15.6775C27.2744 15.2515 27.5617 14.6405 27.5617 14.0005C27.5617 13.0485 26.927 12.1955 25.9828 11.8785C25.5712 11.7405 25.3565 11.3115 25.5018 10.9215ZM30.1933 21.8335V22.5555C30.1933 22.9695 29.8396 23.3055 29.4038 23.3055C28.968 23.3055 28.6144 22.9695 28.6144 22.5555V21.8335C28.6144 20.8505 27.9291 20.0005 26.948 19.7665C26.5259 19.6655 26.2681 19.2584 26.3744 18.8564C26.4817 18.4544 26.9122 18.2115 27.3322 18.3115C29.0175 18.7135 30.1933 20.1615 30.1933 21.8335ZM12.0354 17.2395C11.1996 16.5285 10.7196 15.5105 10.7196 14.4445C10.7196 12.8575 11.7775 11.4364 13.3512 10.9084C13.7659 10.7704 14.2133 10.9755 14.3585 11.3655C14.5038 11.7565 14.2891 12.1845 13.8775 12.3225C12.9333 12.6395 12.2986 13.4925 12.2986 14.4445C12.2986 15.0835 12.5859 15.6945 13.088 16.1215C13.4133 16.3975 13.4407 16.8715 13.1502 17.1805C12.9954 17.3465 12.7786 17.4305 12.5617 17.4305C12.3744 17.4305 12.1859 17.3675 12.0354 17.2395ZM12.9123 20.2104C11.9312 20.4444 11.2459 21.2945 11.2459 22.2775V23.0005C11.2459 23.4145 10.8923 23.7505 10.4565 23.7505C10.0207 23.7505 9.66699 23.4145 9.66699 23.0005V22.2784C9.66699 20.6064 10.8439 19.1585 12.5281 18.7565C12.9502 18.6585 13.3796 18.8995 13.4859 19.3015C13.5922 19.7015 13.3354 20.1094 12.9123 20.2104Z" fill="#B6C4E0"/>
</svg>
