<svg width="41" height="40" viewBox="0 0 41 40" fill="none" xmlns="http://www.w3.org/2000/svg">
<g filter="url(#filter0_f_4546_21478)">
<ellipse cx="19.6837" cy="19.1976" rx="15.3204" ry="15.2994" fill="url(#paint0_linear_4546_21478)" fill-opacity="0.12"/>
</g>
<g filter="url(#filter1_f_4546_21478)">
<ellipse cx="16.5139" cy="11.615" rx="16.5139" ry="11.615" transform="matrix(0.813656 0.581346 -0.582404 0.812899 13.7246 0)" fill="url(#paint1_linear_4546_21478)" fill-opacity="0.04"/>
<path d="M33.7795 28.6039C31.9274 31.189 28.7558 32.4694 25.115 32.4408C21.4745 32.4122 17.3712 31.0742 13.6705 28.4301C9.96986 25.786 7.37704 22.3398 6.17465 18.9082C4.97219 15.4763 5.16174 12.0653 7.0138 9.48023C8.86586 6.89519 12.0375 5.61481 15.6783 5.64337C19.3188 5.67194 23.4221 7.00995 27.1227 9.65404C30.8234 12.2981 33.4162 15.7444 34.6186 19.176C35.8211 22.6079 35.6315 26.0189 33.7795 28.6039Z" stroke="url(#paint2_linear_4546_21478)" stroke-width="0.132237"/>
</g>
<g filter="url(#filter2_f_4546_21478)">
<path d="M9.72461 30.7244C10.3116 31.5864 14.4551 34.2414 19.6845 34.4968C22.0538 34.4968 27.9902 32.7932 29.613 30.7244C25.937 33.0118 17.0102 34.7931 9.72461 30.7244Z" fill="url(#paint3_linear_4546_21478)"/>
</g>
<g filter="url(#filter3_f_4546_21478)">
<path d="M16.3164 33.8044C17.4456 34.0444 18.6803 34.3623 19.6517 34.3623C20.9178 34.3623 22.0138 34.0218 23.3635 33.6479C20.1983 34.0127 18.4186 33.9853 16.3164 33.8044Z" fill="url(#paint4_linear_4546_21478)" fill-opacity="0.6"/>
</g>
<g filter="url(#filter4_f_4546_21478)">
<path d="M23.8377 31.2289C19.3922 32.7977 14.8044 32.762 11.1355 31.7144C7.45883 30.6645 4.73808 28.6101 3.97096 26.1722C3.20152 23.7269 4.03068 20.4161 6.18581 17.3096C8.33741 14.2081 11.7967 11.3328 16.2418 9.76415C20.686 8.19576 25.181 8.30455 28.8042 9.38879C32.4337 10.4749 35.163 12.5309 36.1123 14.8316C37.0574 17.1218 36.2353 20.4257 34.032 23.5724C31.8341 26.7113 28.2824 29.6603 23.8377 31.2289Z" stroke="url(#paint5_linear_4546_21478)" stroke-width="0.264473"/>
</g>
<g filter="url(#filter5_f_4546_21478)">
<ellipse cx="0.690303" cy="0.673244" rx="0.690303" ry="0.673244" transform="matrix(0.500584 -0.865688 0.866362 0.499416 17.248 30.9856)" fill="#FF8780"/>
</g>
<g filter="url(#filter6_f_4546_21478)">
<path d="M19.0372 29.2362C19.8308 29.6938 20.1019 30.7311 19.6235 31.5584C19.1451 32.3857 18.1098 32.67 17.3161 32.2125C16.5225 31.755 16.2515 30.7177 16.7298 29.8903C17.2082 29.063 18.2435 28.7787 19.0372 29.2362Z" stroke="url(#paint6_linear_4546_21478)" stroke-opacity="0.6" stroke-width="0.528947"/>
</g>
<g filter="url(#filter7_f_4546_21478)">
<ellipse cx="0.690302" cy="0.673243" rx="0.690302" ry="0.673243" transform="matrix(0.500585 -0.865688 0.866363 0.499415 17.248 9.8396)" fill="#FF8780"/>
</g>
<g filter="url(#filter8_f_4546_21478)">
<path d="M19.0372 8.09001C19.8308 8.54753 20.1019 9.58485 19.6235 10.4121C19.1451 11.2394 18.1098 11.5238 17.3161 11.0663C16.5225 10.6087 16.2515 9.57141 16.7298 8.74411C17.2082 7.91681 18.2435 7.63249 19.0372 8.09001Z" stroke="url(#paint7_linear_4546_21478)" stroke-opacity="0.6" stroke-width="0.528947"/>
</g>
<path d="M27.2921 18.8196C27.2921 19.2519 26.9416 19.6022 26.5093 19.6022C26.0771 19.6022 25.7266 19.2519 25.7266 18.8196C25.7266 18.3872 26.0771 18.0369 26.5093 18.0369C26.9416 18.0369 27.2921 18.3872 27.2921 18.8196Z" fill="url(#paint8_linear_4546_21478)"/>
<path fill-rule="evenodd" clip-rule="evenodd" d="M23.202 12.9397C21.8378 13.3949 20.5737 13.4384 19.1987 13.1383C18.6052 13.0396 18.0245 12.8896 17.4566 12.6881C16.3868 12.0097 15.0823 11.8271 13.7777 12.1663C11.8731 12.6621 10.1771 14.2014 9.08131 16.3669C7.20275 20.1241 7.82899 24.4813 10.5164 26.2816C11.2729 26.7773 12.134 27.0381 13.0212 27.0381C13.4387 27.0381 13.8562 26.9859 14.2735 26.8816C16.0739 26.412 17.7176 25.003 18.8134 23.0202C19.9353 22.6027 21.1878 22.5766 22.3358 22.9679C23.4056 24.8987 25.0232 26.2815 26.7975 26.7251C28.102 27.0643 29.4326 26.8556 30.5024 26.1511C33.1636 24.4032 33.7897 20.124 31.9373 16.4191L31.9372 16.4193C30.8675 14.3058 29.1716 12.7927 27.293 12.297C26.3447 12.0453 25.3965 12.0809 24.5334 12.3822C24.2792 12.5089 24.0302 12.6223 23.7852 12.7227C23.7453 12.7454 23.7057 12.7688 23.6664 12.7927C23.5136 12.8462 23.3586 12.8952 23.202 12.9397ZM15.291 19.9155H16.8566V17.8282H15.291V16.2626H13.2037V17.8282H11.6381V19.9155H13.2037V21.4811H15.291V19.9155ZM23.6402 18.8195C23.6402 20.4111 24.9187 21.6896 26.5103 21.6896C28.1019 21.6896 29.3802 20.4112 29.3804 18.8195C29.3804 17.2279 28.1019 15.9494 26.5103 15.9494C24.9187 15.9494 23.6402 17.2279 23.6402 18.8195Z" fill="url(#paint9_linear_4546_21478)"/>
<defs>
<filter id="filter0_f_4546_21478" x="3.56986" y="3.10477" width="32.2275" height="32.1855" filterUnits="userSpaceOnUse" color-interpolation-filters="sRGB">
<feFlood flood-opacity="0" result="BackgroundImageFix"/>
<feBlend mode="normal" in="SourceGraphic" in2="BackgroundImageFix" result="shape"/>
<feGaussianBlur stdDeviation="0.39671" result="effect1_foregroundBlur_4546_21478"/>
</filter>
<filter id="filter1_f_4546_21478" x="4.55619" y="4.78348" width="31.6806" height="28.5173" filterUnits="userSpaceOnUse" color-interpolation-filters="sRGB">
<feFlood flood-opacity="0" result="BackgroundImageFix"/>
<feBlend mode="normal" in="SourceGraphic" in2="BackgroundImageFix" result="shape"/>
<feGaussianBlur stdDeviation="0.39671" result="effect1_foregroundBlur_4546_21478"/>
</filter>
<filter id="filter2_f_4546_21478" x="7.07987" y="28.0796" width="25.1781" height="9.06193" filterUnits="userSpaceOnUse" color-interpolation-filters="sRGB">
<feFlood flood-opacity="0" result="BackgroundImageFix"/>
<feBlend mode="normal" in="SourceGraphic" in2="BackgroundImageFix" result="shape"/>
<feGaussianBlur stdDeviation="1.32237" result="effect1_foregroundBlur_4546_21478"/>
</filter>
<filter id="filter3_f_4546_21478" x="14.7296" y="32.0611" width="10.2206" height="3.88804" filterUnits="userSpaceOnUse" color-interpolation-filters="sRGB">
<feFlood flood-opacity="0" result="BackgroundImageFix"/>
<feBlend mode="normal" in="SourceGraphic" in2="BackgroundImageFix" result="shape"/>
<feGaussianBlur stdDeviation="0.79342" result="effect1_foregroundBlur_4546_21478"/>
</filter>
<filter id="filter4_f_4546_21478" x="2.49875" y="7.38913" width="35.19" height="26.2611" filterUnits="userSpaceOnUse" color-interpolation-filters="sRGB">
<feFlood flood-opacity="0" result="BackgroundImageFix"/>
<feBlend mode="normal" in="SourceGraphic" in2="BackgroundImageFix" result="shape"/>
<feGaussianBlur stdDeviation="0.528947" result="effect1_foregroundBlur_4546_21478"/>
</filter>
<filter id="filter5_f_4546_21478" x="16.4402" y="28.9804" width="3.47321" height="3.48761" filterUnits="userSpaceOnUse" color-interpolation-filters="sRGB">
<feFlood flood-opacity="0" result="BackgroundImageFix"/>
<feBlend mode="normal" in="SourceGraphic" in2="BackgroundImageFix" result="shape"/>
<feGaussianBlur stdDeviation="0.528947" result="effect1_foregroundBlur_4546_21478"/>
</filter>
<filter id="filter6_f_4546_21478" x="15.6996" y="28.225" width="4.95438" height="4.99881" filterUnits="userSpaceOnUse" color-interpolation-filters="sRGB">
<feFlood flood-opacity="0" result="BackgroundImageFix"/>
<feBlend mode="normal" in="SourceGraphic" in2="BackgroundImageFix" result="shape"/>
<feGaussianBlur stdDeviation="0.264473" result="effect1_foregroundBlur_4546_21478"/>
</filter>
<filter id="filter7_f_4546_21478" x="16.4402" y="7.83444" width="3.47321" height="3.48761" filterUnits="userSpaceOnUse" color-interpolation-filters="sRGB">
<feFlood flood-opacity="0" result="BackgroundImageFix"/>
<feBlend mode="normal" in="SourceGraphic" in2="BackgroundImageFix" result="shape"/>
<feGaussianBlur stdDeviation="0.528947" result="effect1_foregroundBlur_4546_21478"/>
</filter>
<filter id="filter8_f_4546_21478" x="15.6996" y="7.07872" width="4.95438" height="4.99881" filterUnits="userSpaceOnUse" color-interpolation-filters="sRGB">
<feFlood flood-opacity="0" result="BackgroundImageFix"/>
<feBlend mode="normal" in="SourceGraphic" in2="BackgroundImageFix" result="shape"/>
<feGaussianBlur stdDeviation="0.264473" result="effect1_foregroundBlur_4546_21478"/>
</filter>
<linearGradient id="paint0_linear_4546_21478" x1="18.5094" y1="34.4969" x2="25.1708" y2="3.03681" gradientUnits="userSpaceOnUse">
<stop stop-color="#FF4E16"/>
<stop offset="1" stop-color="#FB281A" stop-opacity="0"/>
</linearGradient>
<linearGradient id="paint1_linear_4546_21478" x1="20.8004" y1="-3.69784" x2="16.5176" y2="23.2305" gradientUnits="userSpaceOnUse">
<stop stop-color="#FF2416"/>
<stop offset="1" stop-color="#FB501A" stop-opacity="0"/>
</linearGradient>
<linearGradient id="paint2_linear_4546_21478" x1="9.73142" y1="24.7441" x2="30.3206" y2="10.6256" gradientUnits="userSpaceOnUse">
<stop stop-color="#FF3216"/>
<stop offset="1" stop-color="#FF2416" stop-opacity="0"/>
</linearGradient>
<linearGradient id="paint3_linear_4546_21478" x1="19.6688" y1="34.4968" x2="19.6688" y2="31.7243" gradientUnits="userSpaceOnUse">
<stop stop-color="#FB421A"/>
<stop offset="1" stop-color="#1A82FB" stop-opacity="0"/>
<stop offset="1" stop-color="#FB6B1A" stop-opacity="0"/>
<stop offset="1" stop-color="#FB421A" stop-opacity="0"/>
</linearGradient>
<linearGradient id="paint4_linear_4546_21478" x1="19.6831" y1="34.2156" x2="19.6831" y2="33.3767" gradientUnits="userSpaceOnUse">
<stop stop-color="white"/>
<stop offset="1" stop-color="white" stop-opacity="0"/>
</linearGradient>
<linearGradient id="paint5_linear_4546_21478" x1="15.6787" y1="7.72686" x2="21.7945" y2="34.4501" gradientUnits="userSpaceOnUse">
<stop stop-color="#FF2416"/>
<stop offset="1" stop-color="#FF2416" stop-opacity="0"/>
</linearGradient>
<linearGradient id="paint6_linear_4546_21478" x1="16.5007" y1="29.7583" x2="19.85" y2="31.695" gradientUnits="userSpaceOnUse">
<stop stop-color="#FF4016"/>
<stop offset="1" stop-color="#162DFF" stop-opacity="0"/>
<stop offset="1" stop-color="#FF1616" stop-opacity="0"/>
</linearGradient>
<linearGradient id="paint7_linear_4546_21478" x1="16.5007" y1="8.61203" x2="19.85" y2="10.5488" gradientUnits="userSpaceOnUse">
<stop stop-color="#FF4016"/>
<stop offset="1" stop-color="#162DFF" stop-opacity="0"/>
<stop offset="1" stop-color="#FF1616" stop-opacity="0"/>
</linearGradient>
<linearGradient id="paint8_linear_4546_21478" x1="25.7579" y1="17.9848" x2="27.8162" y2="18.8026" gradientUnits="userSpaceOnUse">
<stop stop-color="#FB7D7D"/>
<stop offset="1" stop-color="#E84A4A"/>
</linearGradient>
<linearGradient id="paint9_linear_4546_21478" x1="8.5" y1="11.5" x2="35" y2="29" gradientUnits="userSpaceOnUse">
<stop stop-color="#FB7D7D"/>
<stop offset="1" stop-color="#E84A4A"/>
</linearGradient>
</defs>
</svg>
