<svg width="44" height="43" viewBox="0 0 44 43" fill="none" xmlns="http://www.w3.org/2000/svg">
<circle cx="22.0003" cy="21.2308" r="21.2308" fill="#293347"/>
<path d="M18.2295 17.0173C17.6184 16.843 17.662 16.843 17.7492 16.2764C17.793 15.9278 17.8365 15.6227 17.8365 15.274C17.8365 15.0126 17.9239 14.9253 18.1857 14.9253C18.6658 14.9253 18.6222 14.9253 18.5785 14.446C18.4912 13.7051 18.6222 13.0077 19.0586 12.3975C19.3205 12.0488 19.6261 11.8746 20.0624 11.831C20.1496 11.831 20.237 11.831 20.3243 11.8746C20.4116 11.8746 20.4988 11.9181 20.5861 11.9618C20.5861 11.8746 20.6298 11.7437 20.5861 11.6567C20.3243 10.7851 20.8916 9.8262 21.8082 9.73911C22.1137 9.69549 22.4193 9.9134 22.6811 10.0006C23.2048 10.1313 23.2484 10.6107 23.2921 11.0466C23.3358 11.308 23.3358 11.613 22.943 11.7438C22.8557 11.7874 22.8121 12.0488 22.7684 12.2232C23.2921 12.3539 23.2921 12.1361 23.7722 11.9618C24.2523 12.0488 24.165 12.1797 24.4705 12.1797H27.7439C27.9185 12.1797 28.0494 12.2669 28.2239 12.3104C28.2239 12.1361 28.4858 12.2669 28.6167 12.6155C29.0095 12.5719 29.4024 12.5719 29.7516 12.5284C29.9261 12.5284 30.1444 12.5284 30.3189 12.572C30.3626 12.572 30.4062 12.6591 30.4062 12.6591C30.4062 12.7027 30.3189 12.7898 30.3189 12.7898H29.7516C29.3588 12.7898 28.9659 12.7462 28.6167 12.7898C28.0056 12.877 27.3947 13.0078 26.7837 13.0078C26.1726 12.9642 25.7362 13.5744 25.8671 14.141C25.9108 14.2717 25.9543 14.4025 25.998 14.5332C25.6488 14.6204 25.6052 14.8819 25.5616 15.1434C25.518 15.6228 25.1251 15.8842 24.7759 16.0586C24.5576 16.1457 24.2522 16.0586 23.9903 15.9715C23.5976 15.8407 23.2483 15.6229 22.8554 15.4485C22.7682 15.6664 22.6373 15.8843 22.9864 16.0151C23.0736 16.0587 23.1174 16.1893 23.1174 16.2765C23.0736 16.9303 23.0301 17.5404 22.9428 18.1941C22.899 18.4121 22.7682 18.5428 22.5063 18.4121C22.4626 18.4121 22.288 18.4992 22.288 18.5428C22.3318 18.7607 22.3318 19.0222 22.4626 19.1965C23.0737 19.8939 23.4665 20.7219 23.772 21.55C23.8592 21.7679 24.0339 21.9858 24.1212 22.2473C24.3395 22.901 24.1649 23.5112 24.1212 24.1649C24.0775 24.4263 24.1212 24.6878 24.1212 24.9929C24.1212 25.1672 24.1212 25.3417 24.0775 25.5159C24.0339 25.7339 23.9903 25.9518 23.9466 26.1697C23.9466 26.867 24.2959 27.39 24.9505 27.6515C25.0814 27.6951 25.1687 27.7385 25.256 27.8258C25.3433 27.913 25.3869 28.0438 25.3433 28.1309C25.3433 28.1745 25.1686 28.2617 25.125 28.2617L23.5537 28.1309H22.8989C22.6372 28.1309 22.5062 28.0438 22.5934 27.7387C22.6807 27.2157 22.9427 26.6929 22.8118 26.1263C22.768 25.8648 22.6808 25.6032 22.6372 25.3418C22.5499 24.8624 22.4626 24.4265 22.4626 23.9472C22.4626 23.6856 22.5935 23.4677 22.6372 23.2062C22.7244 22.8575 22.5935 22.7704 22.2444 22.6832C22.1135 22.6832 21.9388 22.5525 21.808 22.4217C21.5461 22.073 21.328 21.7245 21.066 21.3322C21.0224 21.2885 20.9788 21.1579 20.9351 21.1579C20.5859 21.2014 20.455 20.8963 20.2804 20.5912C20.0185 21.1579 19.7566 21.6372 19.5385 22.1166C19.4948 22.2474 19.4948 22.4217 19.4075 22.5524C19.3638 22.6831 19.2765 22.8575 19.1893 22.9882C18.9709 23.337 18.7528 23.642 18.5344 23.9472C18.5344 23.9907 18.4909 23.9907 18.4909 24.0342C18.6218 24.7751 18.0981 25.3417 17.8798 25.9518C17.8361 26.1697 17.5306 26.3004 17.4433 26.5183C17.225 26.9978 17.1378 27.4772 17.3561 28.0002C17.487 28.3052 17.3998 28.4359 17.0506 28.4359H16.3087C16.0467 28.4359 15.9158 28.2616 15.9595 28.0002C16.0466 27.5208 16.1777 27.0413 16.265 26.562C16.3087 26.344 16.265 26.0826 16.3087 25.821C16.3523 25.5596 16.3958 25.3417 16.4395 25.0802C16.5267 24.8187 16.5705 24.5572 16.7014 24.2956C16.8322 23.9906 16.9632 23.6855 17.1377 23.3805C17.2687 23.1625 17.3997 22.9882 17.487 22.7703C17.5306 22.6831 17.5742 22.5523 17.5742 22.4216L17.7052 20.7218C17.7052 20.5911 17.6615 20.4168 17.6615 20.286C17.6615 19.9809 17.6178 19.6758 17.6178 19.3708C17.6178 19.2837 17.6615 19.1529 17.7051 19.1529C18.0107 19.0657 17.8797 18.8478 17.8797 18.7171C17.836 18.3684 17.7925 18.0633 17.7487 17.7147C17.8802 17.4531 17.8366 17.148 18.2295 17.0173ZM24.6016 14.2717C24.7762 13.9666 24.9944 13.7486 25.1254 13.4872C25.169 13.4001 25.1254 13.2257 25.0382 13.1821C24.9945 13.1384 24.8198 13.1821 24.7327 13.2257C24.558 13.3564 24.4707 13.5307 24.2962 13.7486C24.3834 13.8794 24.4707 14.0537 24.6016 14.2717Z" fill="#677AA3"/>
<path d="M16.3453 30.8269C16.3453 30.9475 16.297 31.0439 16.2246 31.1163C16.1523 31.1886 16.0799 31.2369 16.0076 31.261C15.9111 31.3333 15.8147 31.3575 15.6941 31.4056C15.5735 31.4298 15.453 31.4538 15.3082 31.4538H15.2359V30.8268H13.0174V32.7561H15.2359V32.0808H16.3211V32.7319C16.3211 32.8525 16.297 32.949 16.2488 33.0454C16.2006 33.1419 16.1282 33.2143 16.0318 33.2624C15.9353 33.3106 15.8389 33.3589 15.7183 33.3831C15.5977 33.4072 15.4771 33.4313 15.3325 33.4313H12.8968C12.7762 33.4313 12.6316 33.4071 12.511 33.3831C12.3905 33.3589 12.294 33.3107 12.1975 33.2383C12.1011 33.1902 12.0287 33.1177 11.9805 33.0214C11.9323 32.949 11.9082 32.8525 11.9082 32.7319V30.8028C11.9082 30.7064 11.9323 30.6098 11.9805 30.5376C12.0287 30.4411 12.1011 30.3688 12.1975 30.3205C12.294 30.2723 12.3905 30.224 12.511 30.1758C12.6316 30.1517 12.7522 30.1276 12.8968 30.1276H15.3324C15.6459 30.1276 15.887 30.1758 16.0799 30.2964C16.2487 30.417 16.3453 30.5858 16.3453 30.8269ZM21.1922 32.7319C21.1922 32.9731 21.0957 33.1419 20.9029 33.2625C20.7099 33.3831 20.4446 33.4313 20.1312 33.4313H17.7921C17.6715 33.4313 17.5268 33.4072 17.4062 33.3831C17.2857 33.359 17.1651 33.3108 17.0686 33.2625C16.9722 33.2143 16.8998 33.1419 16.8275 33.0455C16.7793 32.9732 16.731 32.8525 16.731 32.7561H20.083V32.1291H17.7438C17.6233 32.1291 17.4786 32.105 17.358 32.0809C17.2374 32.0568 17.141 32.0086 17.0446 31.9603C16.9481 31.912 16.8757 31.8397 16.8275 31.7433C16.7793 31.6468 16.7552 31.5503 16.7552 31.4298V30.8751C16.7552 30.7546 16.7793 30.6341 16.8275 30.5376C16.8757 30.4411 16.9482 30.3688 17.0446 30.2964C17.141 30.2241 17.2375 30.2 17.358 30.1517C17.4786 30.1276 17.5991 30.1035 17.7438 30.1035H20.1312C20.4447 30.1035 20.7099 30.1517 20.8787 30.2723C21.0717 30.3688 21.1681 30.5617 21.1681 30.8029H17.8644V31.4058H20.1312C20.2518 31.4058 20.3965 31.4299 20.517 31.4299C20.6376 31.454 20.7581 31.5022 20.8546 31.5505C20.9511 31.5987 21.0234 31.6711 21.0957 31.7675C21.1681 31.864 21.1922 31.9604 21.1922 32.0568V32.7319H21.1922ZM21.5781 31.7674V30.7787H22.3739V31.7674H21.5781ZM21.5781 33.2383V32.2496H22.3739V33.2383H21.5781ZM27.1726 32.7319C27.1726 32.8525 27.1484 32.949 27.1003 33.0455C27.0521 33.1177 26.9796 33.1902 26.8833 33.2625C26.7868 33.3106 26.6903 33.3589 26.5698 33.3831C26.4492 33.4072 26.3286 33.4313 26.184 33.4313H23.7484C23.6278 33.4313 23.4832 33.4071 23.3625 33.3831C23.242 33.359 23.1456 33.3107 23.0491 33.2384C22.9527 33.1902 22.8803 33.1177 22.8321 33.0214C22.7839 32.9491 22.7598 32.8525 22.7598 32.732V30.8028C22.7598 30.7064 22.7839 30.6099 22.8321 30.5376C22.8803 30.4652 22.9527 30.3929 23.0491 30.3206C23.1456 30.2723 23.242 30.2241 23.3625 30.1759C23.4832 30.1517 23.6037 30.1277 23.7484 30.1277H26.184C26.4974 30.1277 26.7386 30.1759 26.9074 30.2965C27.0762 30.417 27.1727 30.5859 27.1727 30.827H23.869V32.7562H26.0875V32.1292H25.2917C25.0264 32.1292 24.8094 32.081 24.6165 31.9604C24.4236 31.8398 24.3272 31.7192 24.303 31.5504V31.4299H27.1726V32.7319ZM31.9955 32.7561C31.9955 32.8767 31.9714 32.9731 31.9232 33.0454C31.875 33.1178 31.8026 33.1902 31.7062 33.2383C31.6097 33.2866 31.5133 33.3348 31.3927 33.359C31.2721 33.3831 31.1275 33.4072 31.0069 33.4072H28.5472C28.4025 33.4072 28.282 33.3831 28.1614 33.359C28.0408 33.3349 27.9444 33.2867 27.8479 33.2143C27.7514 33.1661 27.6791 33.0937 27.6309 32.9973C27.5827 32.925 27.5585 32.8285 27.5585 32.7079V30.8029C27.5585 30.7065 27.5827 30.61 27.6309 30.5377C27.6791 30.4412 27.7515 30.3688 27.8479 30.3206C27.9444 30.2724 28.0408 30.2241 28.1614 30.1759C28.282 30.1518 28.4025 30.1277 28.5472 30.1277H30.9827C31.2721 30.1277 31.5133 30.1759 31.7062 30.2965C31.8991 30.4172 31.9956 30.5859 31.9956 30.803V32.7561H31.9955V32.7561ZM30.9104 30.8269H28.6919V32.7561H30.9104V30.8269Z" fill="#677AA3"/>
<path fill-rule="evenodd" clip-rule="evenodd" d="M31.0902 9.80209H12.7988V28.0935H31.0902V9.80209ZM11.9082 8.9115V28.9841H31.9808V8.9115H11.9082Z" fill="#677AA3"/>
</svg>
