<svg width="21" height="33" viewBox="0 0 21 33" fill="none" xmlns="http://www.w3.org/2000/svg">
<path fill-rule="evenodd" clip-rule="evenodd" d="M11.2208 23.9468L12.8679 27.47L15.3648 22.0586C16.3626 19.8993 18.3515 16.5156 20.7563 16.4088H20.8131H20.7563C18.3541 16.3004 16.3592 12.9149 15.3673 10.7573L10.4253 0.00012207L8.77734 3.52329L14.2377 15.4704C14.2377 15.4704 15.8624 16.371 16.7458 16.408C15.8624 16.445 14.2377 17.3447 14.2377 17.3447L11.2208 23.9468Z" fill="#A253E1"/>
<path fill-rule="evenodd" clip-rule="evenodd" d="M9.59485 8.86851L7.94778 5.34448L5.45092 10.7558C4.45045 12.9152 2.4607 16.2988 0.0568252 16.4056H0H0.0568252C2.4607 16.5115 4.45475 19.8935 5.44747 22.0545L10.3904 32.8117L12.0375 29.2877L6.47722 17.1702C6.47722 17.1702 4.95327 16.4435 4.06645 16.4065C4.94982 16.3694 6.43847 15.7048 6.43847 15.7048L9.59485 8.86851Z" fill="#A253E1"/>
<path fill-rule="evenodd" clip-rule="evenodd" d="M10.4145 12.116L11.4055 14.2641L12.3965 16.4123L11.4055 18.5605L10.4145 20.7086L9.42264 18.5605L8.43164 16.4123L9.42264 14.2641L10.4145 12.116Z" fill="#A253E1"/>
</svg>
