<svg width="79" height="79" viewBox="0 0 79 79" fill="none" xmlns="http://www.w3.org/2000/svg">
<g filter="url(#filter0_d_4951_19877)">
<circle cx="39.4573" cy="35.2308" r="20.5673" stroke="url(#paint0_linear_4951_19877)" stroke-width="1.32692" shape-rendering="crispEdges"/>
</g>
<path d="M23.0428 34.6688L22.107 33.0644H23.7113L26.8131 38.5995L29.9684 33.0644H31.5193L30.5567 34.5886L31.0647 40.5248L31.9739 41.0328V41.2735H29.7812V41.113L29.9417 40.9258L29.5941 36.2731L26.8131 41.3804L24.059 36.2464L23.5242 40.7922L23.845 41.0863L23.8718 41.2735H22L22.0267 41.113L22.4011 40.6852L23.0428 34.6688Z" fill="url(#paint1_linear_4951_19877)"/>
<path d="M35.6135 37.5243C35.4642 37.3755 35.4608 37.1348 35.6058 36.9818L36.2469 36.3056C36.401 36.1431 36.6602 36.1441 36.8129 36.3078L37.4439 36.9842C37.586 37.1365 37.5827 37.3739 37.4363 37.5221L36.8054 38.1612C36.6541 38.3145 36.4071 38.3154 36.2546 38.1634L35.6135 37.5243Z" fill="#E2C38C"/>
<path d="M33.471 37.2893C33.4069 35.8133 35.3161 34.7312 36.2787 34.3747L36.3054 32.9307C36.145 33.0644 35.6958 33.3906 35.1824 33.626C33.8187 33.9201 31.9201 35.5512 32.1875 37.5299C32.4549 39.5087 34.5674 40.712 35.1824 40.8991C35.6744 41.0489 36.1183 41.3181 36.2787 41.4339V40.2039C35.3696 39.8474 33.5352 38.7653 33.471 37.2893Z" fill="#E2C38C"/>
<path d="M39.5407 37.2893C39.6048 35.8133 37.6956 34.7312 36.733 34.3747L36.7063 32.9307C36.8667 33.0644 37.3159 33.3906 37.8293 33.626C39.1931 33.9201 41.0916 35.5512 40.8242 37.5299C40.5568 39.5087 38.4443 40.712 37.8293 40.8991C37.3373 41.0489 36.8934 41.3181 36.733 41.4339V40.2039C37.6422 39.8474 39.4765 38.7653 39.5407 37.2893Z" fill="#E2C38C"/>
<path fill-rule="evenodd" clip-rule="evenodd" d="M42.5865 33.412L41.918 33.0377V32.9575H45.7417C46.5974 33.0912 47.2124 33.7864 47.3461 34.5084C47.4798 35.2303 47.052 36.2732 46.2765 36.6475C47.4263 36.7812 48.5494 37.9043 48.389 39.2948C48.0253 40.6424 46.5439 41.1576 45.8487 41.2467H41.9447C42.2228 41.1184 42.4884 40.6941 42.5865 40.498V33.412ZM43.7637 36.2464V33.6527C45.5285 33.4922 46.09 34.4014 45.7157 35.4977C45.4162 36.3748 44.2896 36.3623 43.7637 36.2464ZM43.7903 37.1289V39.883C44.0398 40.2218 44.8224 40.7494 45.9562 40.1504C47.1327 39.5289 46.4642 37.7974 45.4214 37.3428C44.7826 37.0644 44.0755 37.1021 43.7903 37.1289Z" fill="url(#paint2_linear_4951_19877)"/>
<path fill-rule="evenodd" clip-rule="evenodd" d="M50.5861 38.8134L49.9443 40.498C49.7126 40.6763 49.2277 41.081 49.1421 41.2735H51.5487C51.5309 41.1844 51.4524 40.974 51.2813 40.8456C51.3669 40.4606 51.7091 39.3661 51.8696 38.8669H53.875L54.7574 41.0061C54.7218 41.0596 54.6451 41.1879 54.6237 41.2735H56.7362C56.6916 41.1665 56.565 40.9419 56.4153 40.8991C56.2656 40.8563 55.6755 39.4374 55.3992 38.7332L56.9768 38.653C57.0214 38.6173 57.0357 38.5193 56.7362 38.4123C56.4367 38.3054 55.6309 38.243 55.2655 38.2252L53.0461 32.9842H51.3348C51.6556 33.2962 52.2546 34.0377 52.0835 34.5084C51.9123 34.979 51.2278 36.9327 50.9069 37.8508C50.8891 37.9221 50.7679 38.0754 50.4256 38.1182C50.0834 38.161 49.3026 38.3856 48.9549 38.4926C48.9282 38.5728 48.9817 38.7332 49.4095 38.7332C49.8373 38.7332 50.3721 38.7867 50.5861 38.8134ZM52.7521 36.2464L52.1906 37.9577H53.5543L52.7521 36.2464Z" fill="url(#paint3_linear_4951_19877)"/>
<path d="M31.9995 29.1872C32.0292 29.1739 32.0545 29.1629 32.0966 29.1449C32.1599 29.1872 32.1332 29.1604 32.1599 29.1872C32.1832 29.2105 32.1866 29.2139 32.1866 29.2139C32.1866 29.225 32.2357 29.2793 32.2357 29.2793C32.236 29.278 32.2294 29.2674 32.2377 29.2793C32.2669 29.3209 32.2669 29.3476 32.2948 29.4056L32.768 31.2442L33.0033 31.2708C33.0033 31.3329 32.9893 31.3994 32.9612 31.4703H32.3914L32.384 31.3539C32.4219 31.3273 32.4773 31.3041 32.5499 31.2841L32.4236 30.8087H31.7324L31.616 31.2442L31.8166 31.2708C31.8166 31.3329 31.8026 31.3994 31.7745 31.4703H31.2047L31.1973 31.3539C31.2617 31.3229 31.3302 31.2985 31.4029 31.2808L31.8835 29.3956C31.9192 29.2941 31.946 29.2407 31.9727 29.2139L31.9995 29.1872ZM32.2279 30.0673L32.0966 29.4156C32.0867 29.4134 32.0726 29.4123 32.0545 29.4123L31.9207 30.0905L31.777 30.5959H32.379L32.2279 30.0673Z" fill="url(#paint4_linear_4951_19877)"/>
<path d="M34.2402 31.2509C34.2881 31.2509 34.3418 31.2376 34.4012 31.211C34.4607 31.1822 34.5094 31.1478 34.5474 31.1079C34.5408 30.6358 34.535 30.2778 34.5301 30.034C34.4277 30.034 34.3517 30.0207 34.3021 29.9941L34.3121 29.8212C34.4524 29.788 34.5623 29.7713 34.6416 29.7713C34.7225 29.7713 34.7737 29.7736 34.7952 29.778C34.7952 29.8179 34.7902 29.8711 34.7803 29.9376C34.772 30.0041 34.7662 30.0407 34.7629 30.0473L34.7332 31.2342C34.8208 31.2409 34.8918 31.2542 34.9463 31.2741L34.9413 31.4437C34.8686 31.4747 34.7985 31.4903 34.7307 31.4903C34.663 31.4903 34.6217 31.4891 34.6069 31.4869C34.5755 31.4027 34.5573 31.3251 34.5524 31.2542C34.4714 31.3362 34.3963 31.3994 34.3269 31.4437C34.2592 31.488 34.2146 31.5102 34.1931 31.5102C34.0478 31.5102 33.9421 31.4581 33.876 31.3539C33.8116 31.2475 33.7794 31.0924 33.7794 30.8885C33.7794 30.8863 33.7868 30.6025 33.8017 30.0373C33.7059 30.0373 33.6175 30.0229 33.5366 29.9941L33.5465 29.8212C33.6869 29.788 33.7959 29.7713 33.8735 29.7713C33.9512 29.7713 34.0007 29.7736 34.0222 29.778C34.0222 29.8312 34.0172 29.8899 34.0073 29.9542C33.9974 30.0185 33.9916 30.0495 33.99 30.0473L33.9925 30.7655C33.9925 30.9339 34.0082 31.0569 34.0395 31.1345C34.0709 31.2121 34.1378 31.2509 34.2402 31.2509Z" fill="url(#paint5_linear_4951_19877)"/>
<path d="M35.7532 31.2642L35.7334 30.0107H35.5427L35.5352 29.8944C35.5517 29.8788 35.5996 29.85 35.6789 29.8079L35.8821 29.3823C35.9151 29.3868 35.9407 29.3979 35.9589 29.4156L35.9564 29.7813C36.0803 29.7813 36.1818 29.7924 36.2611 29.8146C36.2611 29.8744 36.2471 29.9398 36.219 30.0107H35.9514C35.9481 30.2767 35.9448 30.6801 35.9415 31.2209C36.034 31.2276 36.1265 31.2498 36.219 31.2874L36.2165 31.4038C36.1934 31.4238 36.1339 31.447 36.0382 31.4736C35.944 31.5002 35.8664 31.5135 35.8053 31.5135C35.797 31.4958 35.7863 31.4581 35.7731 31.4005C35.7599 31.3406 35.7532 31.2952 35.7532 31.2642Z" fill="url(#paint6_linear_4951_19877)"/>
<path d="M37.499 31.3107C37.6377 31.3107 37.731 31.2531 37.7789 31.1378C37.8285 31.0204 37.8533 30.8541 37.8533 30.6391C37.8533 30.2978 37.7971 30.0839 37.6848 29.9974C37.6386 29.962 37.5733 29.9442 37.4891 29.9442C37.4065 29.9442 37.328 29.9675 37.2537 30.0141C37.1877 30.1847 37.1546 30.3831 37.1546 30.6092C37.1546 30.8264 37.1761 30.9938 37.219 31.1112C37.2686 31.2442 37.3619 31.3107 37.499 31.3107ZM36.9267 30.6391C36.9267 30.3576 36.9746 30.1382 37.0704 29.9808C37.1662 29.8212 37.314 29.7414 37.5139 29.7414C37.7137 29.7414 37.8582 29.8146 37.9474 29.9609C38.0366 30.1049 38.0812 30.3188 38.0812 30.6025C38.0812 30.8863 38.0333 31.109 37.9375 31.2708C37.8434 31.4326 37.6997 31.5135 37.5064 31.5135C37.3132 31.5135 37.1678 31.4382 37.0704 31.2874C36.9746 31.1367 36.9267 30.9206 36.9267 30.6391Z" fill="url(#paint7_linear_4951_19877)"/>
<path d="M39.444 31.5135C38.9584 31.5135 38.7156 31.1046 38.7156 30.2867C38.7156 29.8988 38.7743 29.604 38.8915 29.4023C39.0104 29.2006 39.1996 29.0997 39.4589 29.0997C39.667 29.0997 39.8519 29.1773 40.0138 29.3325C40.0138 29.4566 40.0022 29.614 39.9791 29.8046C39.956 29.8112 39.9081 29.8146 39.8354 29.8146L39.7611 29.4023C39.6438 29.3735 39.5497 29.3591 39.4787 29.3591C39.3482 29.3591 39.2334 29.3835 39.1343 29.4322L39.0872 29.4555C39.0773 29.4777 39.0649 29.5109 39.0501 29.5552C39.0352 29.5974 39.0154 29.6871 38.9906 29.8245C38.9675 29.962 38.9559 30.1027 38.9559 30.2468C38.9559 30.5593 38.9939 30.8076 39.0699 30.9915C39.1475 31.1755 39.2706 31.2675 39.439 31.2675C39.5596 31.2675 39.6504 31.2509 39.7116 31.2176C39.7281 31.2065 39.752 31.1899 39.7834 31.1678L39.8354 30.7688L39.9791 30.7788C40.0039 31.0071 40.0163 31.1921 40.0163 31.334C39.9816 31.3695 39.9065 31.4082 39.7908 31.4504C39.6769 31.4925 39.5613 31.5135 39.444 31.5135Z" fill="url(#paint8_linear_4951_19877)"/>
<path d="M41.0613 29C41.1125 29 41.1489 29.0022 41.1703 29.0066C41.1703 29.0465 41.1654 29.0986 41.1555 29.1629C41.1472 29.225 41.1414 29.2615 41.1381 29.2726C41.1381 29.3214 41.1365 29.4222 41.1332 29.5752C41.1299 29.7281 41.1282 29.8467 41.1282 29.9309C41.1992 29.88 41.2694 29.8356 41.3388 29.7979C41.4098 29.7603 41.4544 29.7414 41.4726 29.7414C41.6311 29.7414 41.7459 29.7946 41.8169 29.901C41.888 30.0052 41.9235 30.1648 41.9235 30.3798C41.9235 30.4418 41.9169 30.73 41.9037 31.2442L42.1118 31.2708C42.1118 31.3329 42.0977 31.3994 42.0696 31.4703H41.4998L41.4924 31.3539C41.5684 31.3185 41.6427 31.2919 41.7154 31.2741C41.7055 30.6934 41.6964 30.3709 41.6881 30.3066C41.6815 30.2401 41.6699 30.1825 41.6534 30.1337C41.6369 30.085 41.6121 30.0506 41.5791 30.0307C41.5461 30.0107 41.5023 30.0008 41.4478 30.0008C41.3355 30.0008 41.2281 30.0362 41.1257 30.1071L41.1109 31.2442L41.319 31.2708C41.319 31.3329 41.3049 31.3994 41.2769 31.4703H40.707L40.6996 31.3539C40.7756 31.3185 40.8499 31.2919 40.9226 31.2741L40.8929 29.2627C40.802 29.256 40.7293 29.2427 40.6748 29.2228L40.6847 29.0499C40.769 29.0166 40.8945 29 41.0613 29Z" fill="url(#paint9_linear_4951_19877)"/>
<path d="M43.3683 31.2841C43.441 31.2841 43.5549 31.2376 43.7102 31.1445C43.7416 31.2021 43.7581 31.2531 43.7597 31.2974C43.6755 31.3639 43.5929 31.416 43.512 31.4537C43.431 31.4914 43.3732 31.5102 43.3386 31.5102C43.147 31.5102 43.0008 31.4337 42.9 31.2808C42.7993 31.1256 42.7489 30.9095 42.7489 30.6325C42.7489 30.3554 42.7976 30.1382 42.8951 29.9808C42.9942 29.8212 43.142 29.7414 43.3386 29.7414C43.4905 29.7414 43.6061 29.8146 43.6854 29.9609C43.7663 30.1071 43.8068 30.3033 43.8068 30.5493C43.7936 30.5804 43.7828 30.6014 43.7746 30.6125L42.9768 30.5959C42.9785 30.8198 43.0074 30.9904 43.0636 31.1079C43.1214 31.2254 43.2229 31.2841 43.3683 31.2841ZM43.5813 30.4064C43.5813 30.2601 43.5615 30.147 43.5219 30.0673C43.4822 29.9852 43.4162 29.9442 43.3237 29.9442C43.2312 29.9442 43.1486 29.9675 43.0759 30.0141C43.0264 30.147 42.995 30.2834 42.9818 30.423C43.1123 30.4208 43.3121 30.4152 43.5813 30.4064Z" fill="url(#paint10_linear_4951_19877)"/>
<path d="M44.7079 31.2575C44.7657 31.2908 44.8359 31.3074 44.9185 31.3074C45.0027 31.3074 45.0688 31.2863 45.1167 31.2442C45.1646 31.2021 45.1885 31.1445 45.1885 31.0713C45.1885 30.9982 45.1662 30.9372 45.1216 30.8885C45.077 30.8397 45.0225 30.7965 44.9581 30.7588C44.8937 30.7211 44.8293 30.6812 44.7649 30.6391C44.7005 30.597 44.646 30.5416 44.6014 30.4729C44.5568 30.4042 44.5345 30.3244 44.5345 30.2335C44.5345 30.0806 44.5725 29.9609 44.6484 29.8744C44.7244 29.7858 44.8293 29.7414 44.9631 29.7414C45.0985 29.7414 45.2257 29.7824 45.3446 29.8644C45.3462 29.8866 45.3471 29.9465 45.3471 30.044C45.3471 30.1393 45.3396 30.2213 45.3248 30.29C45.2851 30.3077 45.2381 30.3166 45.1836 30.3166L45.1018 29.9775C45.0655 29.9531 45.0159 29.9409 44.9532 29.9409C44.892 29.9409 44.8433 29.9631 44.807 30.0074C44.7706 30.0495 44.7525 30.1038 44.7525 30.1703C44.7525 30.2346 44.7748 30.2911 44.8194 30.3399C44.8656 30.3886 44.9209 30.433 44.9854 30.4729C45.0498 30.5106 45.1142 30.5516 45.1786 30.5959C45.243 30.638 45.2975 30.6945 45.3421 30.7655C45.3884 30.8342 45.4115 30.914 45.4115 31.0048C45.4115 31.1644 45.3652 31.2897 45.2727 31.3805C45.1819 31.4692 45.0696 31.5135 44.9358 31.5135C44.8631 31.5135 44.7855 31.498 44.7029 31.467C44.6203 31.4337 44.551 31.3916 44.4948 31.3406C44.4948 31.1921 44.5047 31.0603 44.5246 30.945C44.5625 30.9361 44.6137 30.9317 44.6782 30.9317L44.7079 31.2575Z" fill="url(#paint11_linear_4951_19877)"/>
<path d="M46.3235 31.2575C46.3814 31.2908 46.4515 31.3074 46.5341 31.3074C46.6184 31.3074 46.6844 31.2863 46.7323 31.2442C46.7802 31.2021 46.8042 31.1445 46.8042 31.0713C46.8042 30.9982 46.7819 30.9372 46.7373 30.8885C46.6927 30.8397 46.6382 30.7965 46.5738 30.7588C46.5094 30.7211 46.4449 30.6812 46.3805 30.6391C46.3161 30.597 46.2616 30.5416 46.217 30.4729C46.1724 30.4042 46.1501 30.3244 46.1501 30.2335C46.1501 30.0806 46.1881 29.9609 46.2641 29.8744C46.3401 29.7858 46.4449 29.7414 46.5787 29.7414C46.7142 29.7414 46.8413 29.7824 46.9602 29.8644C46.9619 29.8866 46.9627 29.9465 46.9627 30.044C46.9627 30.1393 46.9553 30.2213 46.9404 30.29C46.9008 30.3077 46.8537 30.3166 46.7992 30.3166L46.7175 29.9775C46.6811 29.9531 46.6316 29.9409 46.5688 29.9409C46.5077 29.9409 46.459 29.9631 46.4226 30.0074C46.3863 30.0495 46.3681 30.1038 46.3681 30.1703C46.3681 30.2346 46.3904 30.2911 46.435 30.3399C46.4813 30.3886 46.5366 30.433 46.601 30.4729C46.6654 30.5106 46.7298 30.5516 46.7943 30.5959C46.8587 30.638 46.9132 30.6945 46.9578 30.7655C47.004 30.8342 47.0271 30.914 47.0271 31.0048C47.0271 31.1644 46.9809 31.2897 46.8884 31.3805C46.7976 31.4692 46.6853 31.5135 46.5515 31.5135C46.4788 31.5135 46.4012 31.498 46.3186 31.467C46.236 31.4337 46.1666 31.3916 46.1105 31.3406C46.1105 31.1921 46.1204 31.0603 46.1402 30.945C46.1782 30.9361 46.2294 30.9317 46.2938 30.9317L46.3235 31.2575Z" fill="url(#paint12_linear_4951_19877)"/>
<path d="M30.3439 30.7648L22.4824 30.6044C24.9425 30.5331 29.9588 30.3904 30.3439 30.3904C30.5578 30.5402 30.433 30.7024 30.3439 30.7648Z" fill="url(#paint13_linear_4951_19877)"/>
<path d="M48.0038 30.7648L55.8652 30.6044C53.4052 30.5331 48.3888 30.3904 48.0038 30.3904C47.7899 30.5402 47.9146 30.7024 48.0038 30.7648Z" fill="url(#paint14_linear_4951_19877)"/>
<defs>
<filter id="filter0_d_4951_19877" x="0.534254" y="0.730769" width="77.8456" height="77.8462" filterUnits="userSpaceOnUse" color-interpolation-filters="sRGB">
<feFlood flood-opacity="0" result="BackgroundImageFix"/>
<feColorMatrix in="SourceAlpha" type="matrix" values="0 0 0 0 0 0 0 0 0 0 0 0 0 0 0 0 0 0 127 0" result="hardAlpha"/>
<feOffset dy="4.42308"/>
<feGaussianBlur stdDeviation="8.84615"/>
<feComposite in2="hardAlpha" operator="out"/>
<feColorMatrix type="matrix" values="0 0 0 0 0.694118 0 0 0 0 0.596078 0 0 0 0 0.384314 0 0 0 0.3 0"/>
<feBlend mode="normal" in2="BackgroundImageFix" result="effect1_dropShadow_4951_19877"/>
<feBlend mode="normal" in="SourceGraphic" in2="effect1_dropShadow_4951_19877" result="shape"/>
</filter>
<linearGradient id="paint0_linear_4951_19877" x1="20.8804" y1="14" x2="48.3035" y2="56.4615" gradientUnits="userSpaceOnUse">
<stop stop-color="#FFD888" stop-opacity="0.62"/>
<stop offset="1" stop-color="#A26F07"/>
</linearGradient>
<linearGradient id="paint1_linear_4951_19877" x1="19.6857" y1="33.055" x2="29.8407" y2="44.5702" gradientUnits="userSpaceOnUse">
<stop stop-color="#F8D17F"/>
<stop offset="1" stop-color="#B0801C"/>
</linearGradient>
<linearGradient id="paint2_linear_4951_19877" x1="40.4129" y1="32.9481" x2="50.169" y2="40.1658" gradientUnits="userSpaceOnUse">
<stop stop-color="#F8D17F"/>
<stop offset="1" stop-color="#B0801C"/>
</linearGradient>
<linearGradient id="paint3_linear_4951_19877" x1="47.0809" y1="32.9748" x2="57.2465" y2="42.3107" gradientUnits="userSpaceOnUse">
<stop stop-color="#F8D17F"/>
<stop offset="1" stop-color="#B0801C"/>
</linearGradient>
<linearGradient id="paint4_linear_4951_19877" x1="27.5241" y1="28.9971" x2="28.5347" y2="35.0147" gradientUnits="userSpaceOnUse">
<stop stop-color="#F8D17F"/>
<stop offset="1" stop-color="#B0801C"/>
</linearGradient>
<linearGradient id="paint5_linear_4951_19877" x1="27.5241" y1="28.9971" x2="28.5347" y2="35.0147" gradientUnits="userSpaceOnUse">
<stop stop-color="#F8D17F"/>
<stop offset="1" stop-color="#B0801C"/>
</linearGradient>
<linearGradient id="paint6_linear_4951_19877" x1="27.5241" y1="28.9971" x2="28.5347" y2="35.0147" gradientUnits="userSpaceOnUse">
<stop stop-color="#F8D17F"/>
<stop offset="1" stop-color="#B0801C"/>
</linearGradient>
<linearGradient id="paint7_linear_4951_19877" x1="27.5241" y1="28.9971" x2="28.5347" y2="35.0147" gradientUnits="userSpaceOnUse">
<stop stop-color="#F8D17F"/>
<stop offset="1" stop-color="#B0801C"/>
</linearGradient>
<linearGradient id="paint8_linear_4951_19877" x1="27.5241" y1="28.9971" x2="28.5347" y2="35.0147" gradientUnits="userSpaceOnUse">
<stop stop-color="#F8D17F"/>
<stop offset="1" stop-color="#B0801C"/>
</linearGradient>
<linearGradient id="paint9_linear_4951_19877" x1="27.5241" y1="28.9971" x2="28.5347" y2="35.0147" gradientUnits="userSpaceOnUse">
<stop stop-color="#F8D17F"/>
<stop offset="1" stop-color="#B0801C"/>
</linearGradient>
<linearGradient id="paint10_linear_4951_19877" x1="27.5241" y1="28.9971" x2="28.5347" y2="35.0147" gradientUnits="userSpaceOnUse">
<stop stop-color="#F8D17F"/>
<stop offset="1" stop-color="#B0801C"/>
</linearGradient>
<linearGradient id="paint11_linear_4951_19877" x1="27.5241" y1="28.9971" x2="28.5347" y2="35.0147" gradientUnits="userSpaceOnUse">
<stop stop-color="#F8D17F"/>
<stop offset="1" stop-color="#B0801C"/>
</linearGradient>
<linearGradient id="paint12_linear_4951_19877" x1="27.5241" y1="28.9971" x2="28.5347" y2="35.0147" gradientUnits="userSpaceOnUse">
<stop stop-color="#F8D17F"/>
<stop offset="1" stop-color="#B0801C"/>
</linearGradient>
<linearGradient id="paint13_linear_4951_19877" x1="20.6309" y1="30.39" x2="20.6765" y2="31.3093" gradientUnits="userSpaceOnUse">
<stop stop-color="#F8D17F"/>
<stop offset="1" stop-color="#B0801C"/>
</linearGradient>
<linearGradient id="paint14_linear_4951_19877" x1="57.7168" y1="30.39" x2="57.6712" y2="31.3093" gradientUnits="userSpaceOnUse">
<stop stop-color="#F8D17F"/>
<stop offset="1" stop-color="#B0801C"/>
</linearGradient>
</defs>
</svg>
