<svg width="39" height="38" viewBox="0 0 39 38" fill="none" xmlns="http://www.w3.org/2000/svg">
<path fill-rule="evenodd" clip-rule="evenodd" d="M14.8549 25.9519C15.5689 25.9519 16.1499 26.5319 16.1499 27.2459C16.1499 27.9599 15.5689 28.5409 14.8549 28.5409C14.1409 28.5409 13.5609 27.9599 13.5609 27.2459C13.5609 26.5319 14.1409 25.9519 14.8549 25.9519ZM26.1352 25.9519C26.8502 25.9519 27.4312 26.5319 27.4312 27.2459C27.4312 27.9599 26.8502 28.5409 26.1352 28.5409C25.4212 28.5409 24.8412 27.9599 24.8412 27.2459C24.8412 26.5319 25.4212 25.9519 26.1352 25.9519ZM10.5791 9.00949L12.6591 9.36949C12.9941 9.42849 13.2491 9.70649 13.2781 10.0465L13.5131 12.8475L14.387 12.8479C14.5296 12.8479 14.6706 12.848 14.8102 12.8481L16.4145 12.8488C16.5424 12.8489 16.6689 12.8489 16.7939 12.849L18.5653 12.85C18.6766 12.85 18.7865 12.8501 18.8952 12.8502L20.1365 12.851C20.2348 12.851 20.3319 12.8511 20.4278 12.8512L21.5196 12.852C21.6058 12.852 21.6908 12.8521 21.7747 12.8522L22.7266 12.853C22.8015 12.8531 22.8753 12.8531 22.948 12.8532L23.5737 12.8538C23.6401 12.8539 23.7054 12.854 23.7698 12.854L24.4943 12.8549C24.5508 12.8549 24.6064 12.855 24.661 12.8551L25.2728 12.8559C25.3202 12.856 25.3668 12.8561 25.4125 12.8562L25.8013 12.8568C25.842 12.8569 25.882 12.8569 25.9211 12.857L26.3542 12.8579C26.3873 12.858 26.4197 12.858 26.4514 12.8581L26.718 12.8588C26.7456 12.8589 26.7725 12.8589 26.7988 12.859L27.0846 12.8599C27.106 12.86 27.1268 12.8601 27.1471 12.8601L27.3149 12.8608C27.3319 12.8609 27.3485 12.861 27.3645 12.8611L27.5343 12.862C27.5466 12.8621 27.5585 12.8621 27.57 12.8622L27.6625 12.8629C27.6716 12.863 27.6804 12.8631 27.6888 12.8631L27.7554 12.8639C27.7618 12.8639 27.7679 12.864 27.7738 12.8641L27.8191 12.8648C27.8234 12.8649 27.8274 12.865 27.8312 12.8651L27.8599 12.8658C27.8625 12.8659 27.8649 12.8659 27.8672 12.866L27.888 12.867C27.8892 12.8671 27.8904 12.8672 27.8915 12.8672C27.9012 12.8682 27.9027 12.8683 27.9041 12.8685C28.4611 12.9495 28.9511 13.2405 29.2851 13.6885C29.6191 14.1355 29.7591 14.6865 29.6791 15.2385L28.7301 21.7965C28.5511 23.0445 27.4671 23.9855 26.2071 23.9855H15.2861C13.9691 23.9855 12.8541 22.9575 12.7471 21.6425L11.8311 10.7485L10.3241 10.4885C9.91512 10.4165 9.64212 10.0295 9.71212 9.62049C9.78412 9.21149 10.1791 8.94549 10.5791 9.00949ZM14.1863 14.3478L13.6391 14.3475L14.2421 21.5195C14.2861 22.0715 14.7371 22.4855 15.2881 22.4855H26.2051C26.7261 22.4855 27.1711 22.0975 27.2451 21.5825L28.1951 15.0235C28.2171 14.8675 28.1781 14.7115 28.0831 14.5855C27.9891 14.4585 27.8511 14.3765 27.6951 14.3545C27.6879 14.3548 27.6706 14.355 27.6438 14.3552L27.535 14.3559C27.5123 14.356 27.4873 14.356 27.46 14.3561L26.8935 14.357C26.8457 14.357 26.796 14.3571 26.7445 14.3571L25.4125 14.357C25.3382 14.357 25.2625 14.357 25.1854 14.3569L23.6653 14.356C23.5742 14.3559 23.4821 14.3559 23.3891 14.3558L22.529 14.3551C22.431 14.355 22.3323 14.3549 22.2329 14.3549L21.3219 14.3541C21.219 14.354 21.1156 14.3539 21.0118 14.3538L20.3842 14.3532C20.2789 14.3531 20.1733 14.353 20.0674 14.3529L19.1097 14.352C19.0029 14.3519 18.8961 14.3518 18.7892 14.3517L18.1486 14.3511C18.042 14.351 17.9355 14.3509 17.8292 14.3508L17.194 14.3502C17.0886 14.3502 16.9836 14.3501 16.8789 14.35L15.9484 14.3492C15.8465 14.3491 15.7451 14.349 15.6443 14.3489L14.4684 14.348C14.3735 14.348 14.2795 14.3479 14.1863 14.3478ZM24.599 16.5438C25.013 16.5438 25.349 16.8798 25.349 17.2938C25.349 17.7078 25.013 18.0438 24.599 18.0438H21.827C21.412 18.0438 21.077 17.7078 21.077 17.2938C21.077 16.8798 21.412 16.5438 21.827 16.5438H24.599Z" fill="#B6C4E0"/>
</svg>
