<svg width="42" height="39" viewBox="0 0 42 39" fill="none" xmlns="http://www.w3.org/2000/svg">
<path d="M17.836 27.7733V24.7156C17.836 23.9351 18.4733 23.3023 19.2596 23.3023H22.1338C22.5114 23.3023 22.8735 23.4512 23.1405 23.7163C23.4074 23.9813 23.5574 24.3408 23.5574 24.7156V27.7733C23.5551 28.0978 23.6832 28.4099 23.9135 28.6402C24.1438 28.8705 24.4572 29 24.7841 29H26.745C27.6608 29.0023 28.5399 28.6428 29.1883 28.0008C29.8368 27.3588 30.2012 26.487 30.2012 25.5778V16.8669C30.2012 16.1325 29.8732 15.4358 29.3058 14.9647L22.6352 9.67587C21.4748 8.74856 19.8123 8.7785 18.6866 9.74698L12.1682 14.9647C11.5739 15.422 11.2187 16.1206 11.2012 16.8669V25.5689C11.2012 27.4639 12.7486 29 14.6573 29H16.5735C17.2524 29 17.8042 28.4562 17.8091 27.7822L17.836 27.7733Z" fill="url(#paint0_linear_5391_11845)"/>
<g filter="url(#filter0_f_5391_11845)">
<ellipse cx="20.3849" cy="19.1976" rx="15.3204" ry="15.2994" fill="url(#paint1_linear_5391_11845)" fill-opacity="0.12"/>
</g>
<g filter="url(#filter1_f_5391_11845)">
<ellipse cx="16.5139" cy="11.615" rx="16.5139" ry="11.615" transform="matrix(0.813656 0.581346 -0.582404 0.812899 14.4248 0)" fill="url(#paint2_linear_5391_11845)" fill-opacity="0.04"/>
<path d="M34.4797 28.6039C32.6276 31.189 29.456 32.4694 25.8152 32.4408C22.1747 32.4122 18.0714 31.0742 14.3707 28.4301C10.6701 25.786 8.07723 22.3398 6.87485 18.9082C5.67238 15.4763 5.86193 12.0653 7.714 9.48023C9.56606 6.89519 12.7377 5.61481 16.3785 5.64337C20.019 5.67194 24.1223 7.00995 27.8229 9.65404C31.5236 12.2981 34.1164 15.7444 35.3188 19.176C36.5213 22.6079 36.3317 26.0189 34.4797 28.6039Z" stroke="url(#paint3_linear_5391_11845)" stroke-width="0.132237"/>
</g>
<g filter="url(#filter2_f_5391_11845)">
<path d="M10.4248 30.7244C11.0118 31.5864 15.1553 34.2414 20.3847 34.4968C22.754 34.4968 28.6904 32.7932 30.3132 30.7244C26.6372 33.0118 17.7104 34.7931 10.4248 30.7244Z" fill="url(#paint4_linear_5391_11845)"/>
</g>
<g filter="url(#filter3_f_5391_11845)">
<path d="M17.0166 33.8044C18.1458 34.0444 19.3805 34.3623 20.3519 34.3623C21.618 34.3623 22.714 34.0218 24.0637 33.6479C20.8985 34.0127 19.1188 33.9853 17.0166 33.8044Z" fill="url(#paint5_linear_5391_11845)" fill-opacity="0.6"/>
</g>
<g filter="url(#filter4_f_5391_11845)">
<path d="M24.5388 31.2289C20.0934 32.7977 15.5056 32.762 11.8367 31.7144C8.16 30.6645 5.43926 28.6101 4.67214 26.1722C3.90269 23.7269 4.73185 20.4161 6.88699 17.3096C9.03858 14.2081 12.4979 11.3328 16.9429 9.76415C21.3871 8.19576 25.8822 8.30455 29.5054 9.38879C33.1349 10.4749 35.8641 12.5309 36.8135 14.8316C37.7586 17.1218 36.9365 20.4257 34.7332 23.5724C32.5353 26.7113 28.9836 29.6603 24.5388 31.2289Z" stroke="url(#paint6_linear_5391_11845)" stroke-width="0.264473"/>
</g>
<g filter="url(#filter5_f_5391_11845)">
<ellipse cx="0.690303" cy="0.673244" rx="0.690303" ry="0.673244" transform="matrix(0.500584 -0.865688 0.866362 0.499416 17.9492 30.9856)" fill="#FFC480"/>
</g>
<g filter="url(#filter6_f_5391_11845)">
<path d="M19.7383 29.2362C20.532 29.6938 20.803 30.7311 20.3246 31.5584C19.8463 32.3857 18.811 32.67 18.0173 32.2125C17.2236 31.755 16.9526 30.7177 17.431 29.8903C17.9094 29.063 18.9447 28.7787 19.7383 29.2362Z" stroke="url(#paint7_linear_5391_11845)" stroke-opacity="0.6" stroke-width="0.528947"/>
</g>
<g filter="url(#filter7_f_5391_11845)">
<ellipse cx="0.690302" cy="0.673243" rx="0.690302" ry="0.673243" transform="matrix(0.500585 -0.865688 0.866363 0.499415 17.9492 9.8396)" fill="#FFC480"/>
</g>
<g filter="url(#filter8_f_5391_11845)">
<path d="M19.7383 8.09001C20.532 8.54753 20.803 9.58485 20.3246 10.4121C19.8463 11.2394 18.811 11.5238 18.0173 11.0663C17.2236 10.6087 16.9526 9.57141 17.431 8.74411C17.9094 7.91681 18.9447 7.63249 19.7383 8.09001Z" stroke="url(#paint8_linear_5391_11845)" stroke-opacity="0.6" stroke-width="0.528947"/>
</g>
<defs>
<filter id="filter0_f_5391_11845" x="4.27103" y="3.10477" width="32.2275" height="32.1855" filterUnits="userSpaceOnUse" color-interpolation-filters="sRGB">
<feFlood flood-opacity="0" result="BackgroundImageFix"/>
<feBlend mode="normal" in="SourceGraphic" in2="BackgroundImageFix" result="shape"/>
<feGaussianBlur stdDeviation="0.39671" result="effect1_foregroundBlur_5391_11845"/>
</filter>
<filter id="filter1_f_5391_11845" x="5.25638" y="4.78348" width="31.6806" height="28.5173" filterUnits="userSpaceOnUse" color-interpolation-filters="sRGB">
<feFlood flood-opacity="0" result="BackgroundImageFix"/>
<feBlend mode="normal" in="SourceGraphic" in2="BackgroundImageFix" result="shape"/>
<feGaussianBlur stdDeviation="0.39671" result="effect1_foregroundBlur_5391_11845"/>
</filter>
<filter id="filter2_f_5391_11845" x="7.78007" y="28.0796" width="25.1781" height="9.06193" filterUnits="userSpaceOnUse" color-interpolation-filters="sRGB">
<feFlood flood-opacity="0" result="BackgroundImageFix"/>
<feBlend mode="normal" in="SourceGraphic" in2="BackgroundImageFix" result="shape"/>
<feGaussianBlur stdDeviation="1.32237" result="effect1_foregroundBlur_5391_11845"/>
</filter>
<filter id="filter3_f_5391_11845" x="15.4298" y="32.0611" width="10.2206" height="3.88804" filterUnits="userSpaceOnUse" color-interpolation-filters="sRGB">
<feFlood flood-opacity="0" result="BackgroundImageFix"/>
<feBlend mode="normal" in="SourceGraphic" in2="BackgroundImageFix" result="shape"/>
<feGaussianBlur stdDeviation="0.79342" result="effect1_foregroundBlur_5391_11845"/>
</filter>
<filter id="filter4_f_5391_11845" x="3.19992" y="7.38913" width="35.191" height="26.2611" filterUnits="userSpaceOnUse" color-interpolation-filters="sRGB">
<feFlood flood-opacity="0" result="BackgroundImageFix"/>
<feBlend mode="normal" in="SourceGraphic" in2="BackgroundImageFix" result="shape"/>
<feGaussianBlur stdDeviation="0.528947" result="effect1_foregroundBlur_5391_11845"/>
</filter>
<filter id="filter5_f_5391_11845" x="17.1423" y="28.9804" width="3.47126" height="3.48761" filterUnits="userSpaceOnUse" color-interpolation-filters="sRGB">
<feFlood flood-opacity="0" result="BackgroundImageFix"/>
<feBlend mode="normal" in="SourceGraphic" in2="BackgroundImageFix" result="shape"/>
<feGaussianBlur stdDeviation="0.528947" result="effect1_foregroundBlur_5391_11845"/>
</filter>
<filter id="filter6_f_5391_11845" x="16.4007" y="28.225" width="4.95438" height="4.99881" filterUnits="userSpaceOnUse" color-interpolation-filters="sRGB">
<feFlood flood-opacity="0" result="BackgroundImageFix"/>
<feBlend mode="normal" in="SourceGraphic" in2="BackgroundImageFix" result="shape"/>
<feGaussianBlur stdDeviation="0.264473" result="effect1_foregroundBlur_5391_11845"/>
</filter>
<filter id="filter7_f_5391_11845" x="17.1423" y="7.83444" width="3.47126" height="3.48761" filterUnits="userSpaceOnUse" color-interpolation-filters="sRGB">
<feFlood flood-opacity="0" result="BackgroundImageFix"/>
<feBlend mode="normal" in="SourceGraphic" in2="BackgroundImageFix" result="shape"/>
<feGaussianBlur stdDeviation="0.528947" result="effect1_foregroundBlur_5391_11845"/>
</filter>
<filter id="filter8_f_5391_11845" x="16.4007" y="7.07872" width="4.95438" height="4.99881" filterUnits="userSpaceOnUse" color-interpolation-filters="sRGB">
<feFlood flood-opacity="0" result="BackgroundImageFix"/>
<feBlend mode="normal" in="SourceGraphic" in2="BackgroundImageFix" result="shape"/>
<feGaussianBlur stdDeviation="0.264473" result="effect1_foregroundBlur_5391_11845"/>
</filter>
<linearGradient id="paint0_linear_5391_11845" x1="10.6133" y1="8.86645" x2="29.6133" y2="29.3665" gradientUnits="userSpaceOnUse">
<stop stop-color="#F2D7A3"/>
<stop offset="1" stop-color="#C09C5F"/>
</linearGradient>
<linearGradient id="paint1_linear_5391_11845" x1="19.2105" y1="34.4969" x2="25.872" y2="3.03681" gradientUnits="userSpaceOnUse">
<stop stop-color="#FF8616"/>
<stop offset="1" stop-color="#FB6B1A" stop-opacity="0"/>
</linearGradient>
<linearGradient id="paint2_linear_5391_11845" x1="20.8004" y1="-3.69784" x2="16.5176" y2="23.2305" gradientUnits="userSpaceOnUse">
<stop stop-color="#FF6A16"/>
<stop offset="1" stop-color="#FB5E1A" stop-opacity="0"/>
</linearGradient>
<linearGradient id="paint3_linear_5391_11845" x1="10.4316" y1="24.7441" x2="31.0208" y2="10.6256" gradientUnits="userSpaceOnUse">
<stop stop-color="#FF7816"/>
<stop offset="1" stop-color="#FF4E16" stop-opacity="0"/>
</linearGradient>
<linearGradient id="paint4_linear_5391_11845" x1="20.369" y1="34.4968" x2="20.369" y2="31.7243" gradientUnits="userSpaceOnUse">
<stop stop-color="#FB5E1A"/>
<stop offset="1" stop-color="#1A82FB" stop-opacity="0"/>
<stop offset="1" stop-color="#FB6B1A" stop-opacity="0"/>
</linearGradient>
<linearGradient id="paint5_linear_5391_11845" x1="20.3833" y1="34.2156" x2="20.3833" y2="33.3767" gradientUnits="userSpaceOnUse">
<stop stop-color="white"/>
<stop offset="1" stop-color="white" stop-opacity="0"/>
</linearGradient>
<linearGradient id="paint6_linear_5391_11845" x1="16.3799" y1="7.72686" x2="22.4957" y2="34.4501" gradientUnits="userSpaceOnUse">
<stop stop-color="#FFA216"/>
<stop offset="1" stop-color="#FF6A16" stop-opacity="0"/>
</linearGradient>
<linearGradient id="paint7_linear_5391_11845" x1="17.2019" y1="29.7583" x2="20.5512" y2="31.695" gradientUnits="userSpaceOnUse">
<stop stop-color="#FFA216"/>
<stop offset="1" stop-color="#FF6A16" stop-opacity="0"/>
</linearGradient>
<linearGradient id="paint8_linear_5391_11845" x1="17.2019" y1="8.61203" x2="20.5512" y2="10.5488" gradientUnits="userSpaceOnUse">
<stop stop-color="#FFA216"/>
<stop offset="1" stop-color="#FF6A16" stop-opacity="0"/>
</linearGradient>
</defs>
</svg>
