<svg width="79" height="79" viewBox="0 0 79 79" fill="none" xmlns="http://www.w3.org/2000/svg">
<g filter="url(#filter0_d_4546_22196)">
<circle cx="39.1526" cy="35.2308" r="20.5673" stroke="url(#paint0_linear_4546_22196)" stroke-width="1.32692" shape-rendering="crispEdges"/>
</g>
<path fill-rule="evenodd" clip-rule="evenodd" d="M32.3942 37.8251L35.9133 41.7672C36.2396 42.1324 36.026 42.7122 35.5403 42.7809L32.6183 43.1964C32.4564 43.2197 32.2927 43.1774 32.1622 43.0799L30.2909 41.6826C30.0638 41.5128 29.9825 41.2106 30.0946 40.9508L31.3687 37.9906C31.546 37.5781 32.0945 37.4892 32.3942 37.8251ZM44.3635 27.4477L46.1166 28.3205C46.3585 28.4406 46.4927 28.7041 46.4484 28.9695L46.0594 31.2948C45.9873 31.7256 45.498 31.9451 45.1262 31.714L41.8361 29.6663C41.4465 29.4236 41.4514 28.8567 41.8459 28.6214L43.772 27.471C43.9517 27.3631 44.1752 27.3545 44.3635 27.4477ZM31.5196 27.2975C31.7504 27.2975 31.9357 27.3074 32.212 27.5274C32.5598 27.8044 45.4937 36.9162 47.9645 38.6568C48.2021 38.8241 48.2876 39.1287 48.1725 39.3947C47.8013 40.2533 47.0171 42.0809 46.6811 42.8636C46.585 43.0891 46.3634 43.2326 46.1172 43.2326H44.3315C44.1592 43.2326 43.9948 43.1608 43.8785 43.0346L30.4811 28.5356C30.1918 28.223 30.302 27.718 30.6966 27.555C31.0234 27.4195 31.3626 27.2975 31.5196 27.2975ZM33.7466 24.4029C33.6327 24.2926 33.4825 24.2331 33.3231 24.2331H28.0571C27.7321 24.3949 27.4416 24.5825 27.4416 25.2291V29.4426V30.8302C27.4416 30.9252 27.4637 31.019 27.5068 31.1042L27.9198 31.9267C28.0066 32.0995 28.0066 32.3024 27.9198 32.4746L27.4416 33.4264V34.0393L28.0571 34.6522V35.2651L27.6219 35.6984C27.5062 35.8136 27.4416 35.9693 27.4416 36.1317V38.0757C27.4416 38.2382 27.5062 38.3944 27.6219 38.5091L27.8768 38.7628C27.9925 38.878 28.0571 39.0337 28.0571 39.1961V41.0911C28.0571 41.2726 27.974 41.4478 27.8331 41.5624C27.4213 41.8977 27.4416 42.0816 27.4416 42.6197V45.2152C27.4416 45.4886 27.6275 45.7282 27.8909 45.8048C28.9016 46.0978 29.0654 46.297 30.5193 46.297C31.9738 46.297 32.9815 46.297 32.9815 46.297C33.3594 46.297 33.7374 45.9881 33.9725 45.8097C34.135 45.6866 34.3566 45.64 34.54 45.7295C34.8312 45.8723 35.2073 46.297 35.6985 46.297C36.0937 46.297 36.7228 45.6841 37.0601 45.6841C37.2743 45.6841 37.8166 46.1205 37.8166 46.1205C37.8757 46.1499 37.9298 46.1885 37.9766 46.2351L38.341 46.7303C38.4568 46.8455 38.6131 46.9099 38.7762 46.9099H39.5106C39.6534 46.9099 39.7925 46.8633 39.9008 46.7707C40.1089 46.5924 40.5158 46.3056 40.9836 46.297H43.8994C43.9979 46.297 44.0933 46.2749 44.1807 46.229C44.35 46.1407 44.6658 45.8661 44.9175 45.7442C45.1588 45.6271 45.4481 45.6798 45.6322 45.8729C45.6666 45.909 45.7005 45.9458 45.7319 45.9795C45.8482 46.1064 46.012 46.297 46.1837 46.297H47.4997C47.6628 46.297 47.8198 46.2326 47.9349 46.1174L48.1067 45.8649C48.2692 45.7031 48.5061 45.6436 48.7259 45.7135C48.9259 45.7766 49.5587 46.1621 50.0789 46.2817C50.4642 46.3699 50.8323 46.0782 50.8323 45.6841V37.7166C50.8323 37.3783 50.5565 37.1037 50.2167 37.1037H49.6012L50.0364 36.6704C50.1521 36.5552 50.2167 36.3995 50.2167 36.2371V34.1839C50.2167 34.0889 50.1946 33.9952 50.1515 33.91L49.7994 33.2088C49.6812 32.9729 49.7274 32.6879 49.9145 32.5016L50.2167 32.2006V31.5877L50.6519 31.1544C50.7677 31.0392 50.8323 30.8835 50.8323 30.7211V28.5987C50.8323 28.5484 50.8261 28.4988 50.8138 28.4498L50.3011 26.4083C50.2488 26.1999 50.3103 25.9786 50.463 25.8266L50.8323 25.4589V24.846L50.3608 24.3765C50.2672 24.2834 50.146 24.2227 50.0148 24.2037L48.071 23.9199L47.5834 24.2674L47.3225 23.8875C47.2073 23.7201 47.0178 23.6202 46.814 23.6202H43.4457C43.066 23.6202 42.8308 23.8636 42.8308 24.2288C42.8308 24.3177 42.8302 24.846 42.2147 24.846C41.5991 24.846 41.5991 24.2331 41.5991 24.2331C41.5991 24.2331 41.5991 23.6202 40.8918 23.6202H37.0139C36.8071 23.6202 36.6144 23.722 36.5012 23.8942C36.2636 24.2552 35.8401 24.846 35.6148 24.846C35.2898 24.846 35.2098 24.846 34.8281 24.846C34.2975 24.846 33.9343 24.5843 33.7466 24.4029Z" fill="url(#paint1_linear_4546_22196)"/>
<defs>
<filter id="filter0_d_4546_22196" x="0.229567" y="0.730769" width="77.8456" height="77.8462" filterUnits="userSpaceOnUse" color-interpolation-filters="sRGB">
<feFlood flood-opacity="0" result="BackgroundImageFix"/>
<feColorMatrix in="SourceAlpha" type="matrix" values="0 0 0 0 0 0 0 0 0 0 0 0 0 0 0 0 0 0 127 0" result="hardAlpha"/>
<feOffset dy="4.42308"/>
<feGaussianBlur stdDeviation="8.84615"/>
<feComposite in2="hardAlpha" operator="out"/>
<feColorMatrix type="matrix" values="0 0 0 0 0.694118 0 0 0 0 0.596078 0 0 0 0 0.384314 0 0 0 0.3 0"/>
<feBlend mode="normal" in2="BackgroundImageFix" result="effect1_dropShadow_4546_22196"/>
<feBlend mode="normal" in="SourceGraphic" in2="effect1_dropShadow_4546_22196" result="shape"/>
</filter>
<linearGradient id="paint0_linear_4546_22196" x1="20.5757" y1="14" x2="47.9988" y2="56.4615" gradientUnits="userSpaceOnUse">
<stop stop-color="#FFD888" stop-opacity="0.62"/>
<stop offset="1" stop-color="#A26F07"/>
</linearGradient>
<linearGradient id="paint1_linear_4546_22196" x1="22.0138" y1="23.5938" x2="50.6404" y2="50.7766" gradientUnits="userSpaceOnUse">
<stop stop-color="#F8D17F"/>
<stop offset="1" stop-color="#B0801C"/>
</linearGradient>
</defs>
</svg>
