<svg width="41" height="41" viewBox="0 0 41 41" fill="none" xmlns="http://www.w3.org/2000/svg">
<rect width="41" height="41" rx="9" fill="#323D55"/>
<path d="M28.1616 15.4094C29.0207 14.8958 29.6635 14.0871 29.97 13.1343C29.1628 13.6133 28.2796 13.9507 27.3586 14.1319C26.7374 13.4748 25.9174 13.0403 25.0249 12.8953C24.1324 12.7503 23.2169 12.9028 22.4197 13.3294C21.6225 13.7561 20.9877 14.4331 20.6132 15.2561C20.2387 16.0791 20.1453 17.0024 20.3474 17.8838C18.7124 17.8017 17.1129 17.3767 15.6527 16.6364C14.1926 15.8961 12.9044 14.857 11.8719 13.5866C11.3468 14.4923 11.1861 15.564 11.4225 16.5839C11.6589 17.6038 12.2746 18.4955 13.1446 19.0779C12.4917 19.0569 11.8532 18.8801 11.2825 18.5623V18.614C11.2827 19.5637 11.6114 20.4841 12.2127 21.2191C12.8141 21.9541 13.6512 22.4585 14.5821 22.6467C13.9765 22.8115 13.3412 22.8357 12.7248 22.7176C12.9881 23.5344 13.4998 24.2486 14.1886 24.7606C14.8773 25.2726 15.7087 25.5567 16.5668 25.5734C15.1099 26.7169 13.3108 27.3369 11.4589 27.3339C11.1301 27.3339 10.8024 27.3147 10.4766 27.2774C12.3572 28.4858 14.546 29.1272 16.7814 29.125C18.3211 29.1356 19.8475 28.8401 21.272 28.2558C22.6965 27.6714 23.9907 26.8098 25.0794 25.721C26.1681 24.6323 27.0296 23.338 27.6138 21.9135C28.198 20.4889 28.4934 18.9625 28.4827 17.4228C28.4827 17.2446 28.4789 17.0673 28.4702 16.8909C29.2757 16.3089 29.9708 15.5878 30.523 14.7615C29.7726 15.0941 28.9767 15.3125 28.1616 15.4094Z" fill="white"/>
</svg>
