<svg width="79" height="79" viewBox="0 0 79 79" fill="none" xmlns="http://www.w3.org/2000/svg">
<g filter="url(#filter0_d_4546_22322)">
<circle cx="39.5394" cy="35.2308" r="20.5673" stroke="url(#paint0_linear_4546_22322)" stroke-width="1.32692" shape-rendering="crispEdges"/>
</g>
<path d="M50.6275 23.933C50.5915 23.9501 50.5606 23.9763 50.5378 24.009C47.4396 27.8817 44.3404 31.7545 41.245 35.6273C41.147 35.7124 41.2221 35.8909 41.3539 35.8699C43.5869 35.8726 45.819 35.8699 48.0521 35.8708C48.1485 35.8758 48.2446 35.8576 48.3326 35.8178C48.4205 35.778 48.4976 35.7177 48.5574 35.6419C49.2661 34.7566 49.9765 33.8712 50.6852 32.9841C50.7825 32.8557 50.8294 32.6961 50.817 32.5355C50.8152 29.7183 50.817 26.9021 50.8143 24.085C50.8289 23.9842 50.7227 23.8964 50.6275 23.9321V23.933ZM28.9153 23.9458C28.8448 23.9806 28.8475 24.0666 28.8457 24.1335C28.8475 26.9479 28.8466 29.7641 28.8466 32.5794C28.8405 32.7338 28.8921 32.8849 28.9913 33.0033L35.9861 41.7468C36.0959 41.8859 36.268 41.9757 36.4484 41.9729C38.6961 41.9729 40.9437 41.9757 43.1914 41.9729C43.3214 41.9912 43.3947 41.8136 43.2976 41.7303C38.6054 35.8571 33.9041 29.9884 29.211 24.1143C29.1378 24.0282 29.0517 23.8652 28.9162 23.9458H28.9153Z" fill="url(#paint1_linear_4546_22322)"/>
<path d="M48.434 44.0071H49.2202L49.2227 46.4178C49.2227 46.4488 49.2479 46.4743 49.2792 46.4743L49.7294 46.474C49.7607 46.474 49.7859 46.4488 49.7859 46.4175L49.7832 44.0071H50.7692C50.7982 44.0071 50.8147 43.9733 50.7962 43.9506L50.4587 43.5278C50.4305 43.4923 50.3877 43.4718 50.3425 43.4717H48.434C48.4027 43.4717 48.3775 43.4968 48.3775 43.5282V43.951C48.3775 43.9816 48.4027 44.0071 48.434 44.0071ZM29.4587 46.4181L31.765 43.5282C31.7832 43.5055 31.7668 43.4717 31.7378 43.4717H31.1612C31.116 43.4717 31.073 43.4925 31.0449 43.5278L29.4087 45.5778V43.5278C29.4087 43.4965 29.3835 43.4713 29.3524 43.4713H28.902C28.8709 43.4713 28.8457 43.4965 28.8457 43.5278V46.4178C28.8457 46.4491 28.8709 46.4743 28.902 46.4743H29.3425C29.3877 46.4743 29.4304 46.4536 29.4587 46.4181ZM31.0847 46.4181L31.878 45.4241L32.6713 46.4181C32.6995 46.4536 32.7425 46.4743 32.7878 46.4743H33.2282C33.2595 46.4743 33.2847 46.4491 33.2847 46.4178V43.5278C33.2847 43.4968 33.2595 43.4713 33.2282 43.4713H32.8588C32.7683 43.4713 32.6827 43.5125 32.626 43.5833L30.3644 46.4175C30.3462 46.4401 30.3625 46.474 30.3915 46.474H30.9682C31.0137 46.4743 31.0564 46.4536 31.0847 46.4181ZM32.7213 44.3066V45.6381L32.19 44.9725L32.7213 44.3066ZM45.5984 46.4175L43.2922 43.5275C43.2641 43.4922 43.2212 43.4715 43.1761 43.4713H42.7353C42.7041 43.4713 42.6789 43.4965 42.6789 43.5278V46.4178C42.6789 46.4491 42.7041 46.4743 42.7353 46.4743H43.1757C43.2209 46.4743 43.2639 46.4536 43.2919 46.4181L44.0852 45.4241L44.8784 46.4181C44.9067 46.4536 44.9494 46.4743 44.9947 46.4743H45.5714C45.6004 46.4743 45.6166 46.4405 45.5984 46.4175ZM43.7727 44.9725L43.2412 45.6385V44.3066L43.7727 44.9725ZM37.4263 43.3965C36.557 43.3965 35.8523 44.1021 35.8523 44.9728C35.8523 45.8435 36.557 46.5493 37.4263 46.5493C38.2958 46.5493 39.0004 45.8435 39.0004 44.9728C39.0008 44.1021 38.2958 43.3965 37.4263 43.3965ZM37.4263 46.0135C36.8678 46.0135 36.4153 45.5475 36.4153 44.9728C36.4153 44.3981 36.8678 43.9318 37.4263 43.9318C37.985 43.9318 38.4375 44.3978 38.4375 44.9728C38.4378 45.5475 37.985 46.0135 37.4263 46.0135ZM47.4235 43.5278V45.5778L45.7874 43.5275C45.7591 43.4922 45.7164 43.4715 45.6711 43.4713H45.2301C45.1991 43.4713 45.1737 43.4965 45.1737 43.5278V44.9205C45.1737 44.9543 45.1851 44.9871 45.2064 45.0136L45.6749 45.6008C45.6956 45.6266 45.7371 45.612 45.7371 45.5791V44.3671L47.3735 46.4181C47.4017 46.4536 47.4445 46.4743 47.4897 46.4743H47.9302C47.9614 46.4743 47.9865 46.4491 47.9865 46.4178V43.5278C47.9865 43.4968 47.9614 43.4713 47.9302 43.4713H47.4799C47.4487 43.4713 47.4235 43.4968 47.4235 43.5278ZM41.9219 44.1541V43.5278C41.9219 43.4965 41.8968 43.4713 41.8656 43.4713H39.5609C39.5298 43.4713 39.5046 43.4965 39.5046 43.5278V46.4178C39.5046 46.4491 39.5298 46.4743 39.5609 46.4743H40.0113C40.0424 46.4743 40.0676 46.4491 40.0676 46.4178V44.0075H41.3589L40.4873 45.1001C40.4711 45.1205 40.4711 45.1498 40.4873 45.1706L41.4831 46.4185C41.5114 46.454 41.5541 46.4746 41.5994 46.4746H42.1761C42.2051 46.4746 42.2213 46.4408 42.2031 46.4181L41.1796 45.1358L41.8891 44.248C41.9101 44.2208 41.9219 44.188 41.9219 44.1541ZM34.017 46.4743H35.3533C35.3985 46.4743 35.4415 46.4536 35.4695 46.4181L35.807 45.995C35.8251 45.9723 35.809 45.9385 35.78 45.9385H34.5237V43.5278C34.5237 43.4965 34.4985 43.4713 34.4673 43.4713H34.017C33.9858 43.4713 33.9607 43.4965 33.9607 43.5278V46.4178C33.9607 46.4488 33.9862 46.4743 34.017 46.4743Z" fill="url(#paint2_linear_4546_22322)"/>
<defs>
<filter id="filter0_d_4546_22322" x="0.616285" y="0.730769" width="77.8456" height="77.8462" filterUnits="userSpaceOnUse" color-interpolation-filters="sRGB">
<feFlood flood-opacity="0" result="BackgroundImageFix"/>
<feColorMatrix in="SourceAlpha" type="matrix" values="0 0 0 0 0 0 0 0 0 0 0 0 0 0 0 0 0 0 127 0" result="hardAlpha"/>
<feOffset dy="4.42308"/>
<feGaussianBlur stdDeviation="8.84615"/>
<feComposite in2="hardAlpha" operator="out"/>
<feColorMatrix type="matrix" values="0 0 0 0 0.694118 0 0 0 0 0.596078 0 0 0 0 0.384314 0 0 0 0.3 0"/>
<feBlend mode="normal" in2="BackgroundImageFix" result="effect1_dropShadow_4546_22322"/>
<feBlend mode="normal" in="SourceGraphic" in2="effect1_dropShadow_4546_22322" result="shape"/>
</filter>
<linearGradient id="paint0_linear_4546_22322" x1="20.9624" y1="14" x2="48.3855" y2="56.4615" gradientUnits="userSpaceOnUse">
<stop stop-color="#FFD888" stop-opacity="0.62"/>
<stop offset="1" stop-color="#A26F07"/>
</linearGradient>
<linearGradient id="paint1_linear_4546_22322" x1="23.7471" y1="23.9035" x2="45.7457" y2="49.2225" gradientUnits="userSpaceOnUse">
<stop stop-color="#F8D17F"/>
<stop offset="1" stop-color="#B0801C"/>
</linearGradient>
<linearGradient id="paint2_linear_4546_22322" x1="23.7505" y1="43.3929" x2="24.9026" y2="50.9789" gradientUnits="userSpaceOnUse">
<stop stop-color="#F8D17F"/>
<stop offset="1" stop-color="#B0801C"/>
</linearGradient>
</defs>
</svg>
