<svg width="27" height="27" viewBox="0 0 27 27" fill="none" xmlns="http://www.w3.org/2000/svg">
<path fill-rule="evenodd" clip-rule="evenodd" d="M4.60209 2.02539H12.7737H14.0107C16.0974 2.02539 16.5972 2.52519 17.4843 3.39983L22.932 8.79761C23.8692 9.72223 24.4564 10.3095 24.4564 12.4586V13.6956V21.7173L20.8079 18.0938V9.55979L17.5718 6.36111L13.261 10.6343L4.60209 2.02539ZM22.4073 24.4037L17.4593 19.4932V11.1591L13.261 15.3324L9.06275 11.1591V20.1804L5.72662 16.8693V7.848L2.07812 4.22449V12.7335V13.9705C2.07812 16.1196 2.66538 16.6944 3.6025 17.6315L9.05026 23.0293C9.93739 23.9039 10.4372 24.4037 12.5238 24.4037H13.7608H22.4073ZM7.22601 24.4037L2.07812 19.2933V24.4037H7.22601ZM19.296 2.02539L24.4439 7.13579V2.02539H19.296Z" fill="url(#paint0_linear_4546_22247)"/>
<defs>
<linearGradient id="paint0_linear_4546_22247" x1="-3.1145" y1="2" x2="24.3855" y2="28" gradientUnits="userSpaceOnUse">
<stop stop-color="#F8D17F"/>
<stop offset="1" stop-color="#B0801C"/>
</linearGradient>
</defs>
</svg>
