<svg width="42" height="58" viewBox="0 0 42 58" fill="none" xmlns="http://www.w3.org/2000/svg">
<path d="M2.74316 21.3163V13.8262L21.1347 2.9248L39.3285 13.8262V21.3163L21.1347 10.5385L2.74316 21.3163Z" fill="white"/>
<path d="M2.71875 44.0586V22.6512L13.4471 16.3477L19.8249 20.1051L8.99758 26.3839V40.3506L21.1103 47.2721L32.9511 40.3506V26.3839L22.3216 20.1051L28.6745 16.3477L39.3288 22.6512V44.0586L21.1103 54.8364L2.71875 44.0586Z" fill="white"/>
<path d="M21.0604 19.3628L14.7568 15.6795L21.0604 11.8232L27.3392 15.6795L21.0604 19.3628Z" fill="white"/>
<path d="M17.6738 22.6512L20.9863 20.7725L24.2493 22.6512V44.0091L20.9863 45.9867L17.6738 44.0091V22.6512Z" fill="white"/>
<path d="M1 45.1228V12.9645L21.144 1L41.0362 12.9645V45.1228L21.144 57L1 45.1228Z" stroke="white" stroke-width="1.01357"/>
</svg>
