<svg width="78" height="79" viewBox="0 0 78 79" fill="none" xmlns="http://www.w3.org/2000/svg">
<g filter="url(#filter0_d_4546_22336)">
<circle cx="39.0003" cy="35.2308" r="20.5673" stroke="url(#paint0_linear_4546_22336)" stroke-width="1.32692" shape-rendering="crispEdges"/>
</g>
<path d="M35.0752 31.0173C34.4641 30.843 34.5077 30.843 34.5949 30.2764C34.6387 29.9278 34.6822 29.6227 34.6822 29.274C34.6822 29.0126 34.7696 28.9253 35.0314 28.9253C35.5115 28.9253 35.4679 28.9253 35.4242 28.446C35.3369 27.7051 35.4679 27.0077 35.9043 26.3975C36.1662 26.0488 36.4718 25.8746 36.9081 25.831C36.9953 25.831 37.0827 25.831 37.17 25.8746C37.2573 25.8746 37.3445 25.9181 37.4318 25.9618C37.4318 25.8746 37.4755 25.7437 37.4318 25.6567C37.17 24.7851 37.7373 23.8262 38.6539 23.7391C38.9594 23.6955 39.265 23.9134 39.5268 24.0006C40.0505 24.1313 40.0941 24.6107 40.1378 25.0466C40.1815 25.308 40.1815 25.613 39.7887 25.7438C39.7014 25.7874 39.6578 26.0488 39.6141 26.2232C40.1378 26.3539 40.1378 26.1361 40.6179 25.9618C41.098 26.0488 41.0107 26.1797 41.3162 26.1797H44.5896C44.7642 26.1797 44.8951 26.2669 45.0696 26.3104C45.0696 26.1361 45.3315 26.2669 45.4624 26.6155C45.8552 26.5719 46.2481 26.5719 46.5973 26.5284C46.7718 26.5284 46.9901 26.5284 47.1646 26.572C47.2083 26.572 47.2519 26.6591 47.2519 26.6591C47.2519 26.7027 47.1646 26.7898 47.1646 26.7898H46.5973C46.2045 26.7898 45.8116 26.7462 45.4624 26.7898C44.8513 26.877 44.2404 27.0078 43.6294 27.0078C43.0183 26.9642 42.5819 27.5744 42.7128 28.141C42.7565 28.2717 42.8 28.4025 42.8437 28.5332C42.4945 28.6204 42.4509 28.8819 42.4073 29.1434C42.3637 29.6228 41.9708 29.8842 41.6216 30.0586C41.4033 30.1457 41.0979 30.0586 40.836 29.9715C40.4433 29.8407 40.094 29.6229 39.7011 29.4485C39.6139 29.6664 39.483 29.8843 39.8321 30.0151C39.9193 30.0587 39.9631 30.1893 39.9631 30.2765C39.9193 30.9303 39.8758 31.5404 39.7885 32.1941C39.7448 32.4121 39.6139 32.5428 39.352 32.4121C39.3083 32.4121 39.1337 32.4992 39.1337 32.5428C39.1775 32.7607 39.1775 33.0222 39.3083 33.1965C39.9194 33.8939 40.3122 34.7219 40.6177 35.55C40.7049 35.7679 40.8796 35.9858 40.9669 36.2473C41.1852 36.901 41.0106 37.5112 40.9669 38.1649C40.9232 38.4263 40.9669 38.6878 40.9669 38.9929C40.9669 39.1672 40.9669 39.3417 40.9232 39.5159C40.8796 39.7339 40.836 39.9518 40.7923 40.1697C40.7923 40.867 41.1416 41.39 41.7962 41.6515C41.9271 41.6951 42.0144 41.7385 42.1017 41.8258C42.189 41.913 42.2326 42.0438 42.189 42.1309C42.189 42.1745 42.0143 42.2617 41.9707 42.2617L40.3994 42.1309H39.7446C39.4829 42.1309 39.3519 42.0438 39.4391 41.7387C39.5264 41.2157 39.7884 40.6929 39.6575 40.1263C39.6137 39.8648 39.5265 39.6032 39.4829 39.3418C39.3956 38.8624 39.3083 38.4265 39.3083 37.9472C39.3083 37.6856 39.4392 37.4677 39.4829 37.2062C39.5701 36.8575 39.4392 36.7704 39.0901 36.6832C38.9592 36.6832 38.7845 36.5525 38.6537 36.4217C38.3918 36.073 38.1737 35.7245 37.9117 35.3322C37.8681 35.2885 37.8245 35.1579 37.7808 35.1579C37.4316 35.2014 37.3007 34.8963 37.1261 34.5912C36.8642 35.1579 36.6023 35.6372 36.3842 36.1166C36.3405 36.2474 36.3405 36.4217 36.2532 36.5524C36.2095 36.6831 36.1222 36.8575 36.035 36.9882C35.8166 37.337 35.5985 37.642 35.3801 37.9472C35.3801 37.9907 35.3366 37.9907 35.3366 38.0342C35.4675 38.7751 34.9438 39.3417 34.7255 39.9518C34.6818 40.1697 34.3763 40.3004 34.289 40.5183C34.0707 40.9978 33.9835 41.4772 34.2018 42.0002C34.3327 42.3052 34.2455 42.4359 33.8963 42.4359H33.1544C32.8924 42.4359 32.7615 42.2616 32.8052 42.0002C32.8923 41.5208 33.0234 41.0413 33.1107 40.562C33.1544 40.344 33.1107 40.0826 33.1544 39.821C33.198 39.5596 33.2415 39.3417 33.2852 39.0802C33.3724 38.8187 33.4162 38.5572 33.5471 38.2956C33.6779 37.9906 33.8089 37.6855 33.9834 37.3805C34.1144 37.1625 34.2454 36.9882 34.3327 36.7703C34.3763 36.6831 34.4199 36.5523 34.4199 36.4216L34.5509 34.7218C34.5509 34.5911 34.5072 34.4168 34.5072 34.286C34.5072 33.9809 34.4635 33.6758 34.4635 33.3708C34.4635 33.2837 34.5072 33.1529 34.5508 33.1529C34.8564 33.0657 34.7254 32.8478 34.7254 32.7171C34.6817 32.3684 34.6382 32.0633 34.5944 31.7147C34.7259 31.4531 34.6823 31.148 35.0752 31.0173ZM41.4473 28.2717C41.6219 27.9666 41.8401 27.7486 41.9711 27.4872C42.0147 27.4001 41.9711 27.2257 41.8839 27.1821C41.8402 27.1384 41.6655 27.1821 41.5784 27.2257C41.4037 27.3564 41.3164 27.5307 41.1419 27.7486C41.2292 27.8794 41.3164 28.0537 41.4473 28.2717Z" fill="url(#paint1_linear_4546_22336)"/>
<path d="M33.191 44.8269C33.191 44.9475 33.1427 45.0439 33.0703 45.1163C32.998 45.1886 32.9256 45.2369 32.8533 45.261C32.7568 45.3333 32.6604 45.3575 32.5398 45.4056C32.4192 45.4298 32.2987 45.4538 32.154 45.4538H32.0816V44.8268H29.8631V46.7561H32.0816V46.0808H33.1668V46.7319C33.1668 46.8525 33.1427 46.949 33.0945 47.0454C33.0463 47.1419 32.9739 47.2143 32.8775 47.2624C32.781 47.3106 32.6846 47.3589 32.564 47.3831C32.4434 47.4072 32.3229 47.4313 32.1782 47.4313H29.7425C29.622 47.4313 29.4773 47.4071 29.3567 47.3831C29.2362 47.3589 29.1397 47.3107 29.0432 47.2383C28.9468 47.1902 28.8744 47.1177 28.8262 47.0214C28.778 46.949 28.7539 46.8525 28.7539 46.7319V44.8028C28.7539 44.7064 28.778 44.6098 28.8262 44.5376C28.8744 44.4411 28.9468 44.3688 29.0432 44.3205C29.1397 44.2723 29.2362 44.224 29.3567 44.1758C29.4773 44.1517 29.5979 44.1276 29.7425 44.1276H32.1781C32.4916 44.1276 32.7327 44.1758 32.9256 44.2964C33.0944 44.417 33.191 44.5858 33.191 44.8269ZM38.0379 46.7319C38.0379 46.9731 37.9415 47.1419 37.7486 47.2625C37.5556 47.3831 37.2903 47.4313 36.9769 47.4313H34.6378C34.5172 47.4313 34.3725 47.4072 34.2519 47.3831C34.1314 47.359 34.0108 47.3108 33.9143 47.2625C33.8179 47.2143 33.7455 47.1419 33.6732 47.0455C33.625 46.9732 33.5767 46.8525 33.5767 46.7561H36.9287V46.1291H34.5895C34.469 46.1291 34.3243 46.105 34.2037 46.0809C34.0832 46.0568 33.9867 46.0086 33.8903 45.9603C33.7938 45.912 33.7215 45.8397 33.6732 45.7433C33.6251 45.6468 33.6009 45.5503 33.6009 45.4298V44.8751C33.6009 44.7546 33.6251 44.6341 33.6732 44.5376C33.7215 44.4411 33.7939 44.3688 33.8903 44.2964C33.9867 44.2241 34.0832 44.2 34.2037 44.1517C34.3243 44.1276 34.4448 44.1035 34.5895 44.1035H36.9769C37.2904 44.1035 37.5556 44.1517 37.7244 44.2723C37.9174 44.3688 38.0138 44.5617 38.0138 44.8029H34.7101V45.4058H36.9769C37.0975 45.4058 37.2422 45.4299 37.3627 45.4299C37.4833 45.454 37.6038 45.5022 37.7003 45.5505C37.7968 45.5987 37.8691 45.6711 37.9415 45.7675C38.0138 45.864 38.0379 45.9604 38.0379 46.0568V46.7319H38.0379ZM38.4238 45.7674V44.7787H39.2196V45.7674H38.4238ZM38.4238 47.2383V46.2496H39.2196V47.2383H38.4238ZM44.0183 46.7319C44.0183 46.8525 43.9941 46.949 43.946 47.0455C43.8978 47.1177 43.8253 47.1902 43.729 47.2625C43.6325 47.3106 43.536 47.3589 43.4155 47.3831C43.2949 47.4072 43.1743 47.4313 43.0297 47.4313H40.5941C40.4735 47.4313 40.3289 47.4071 40.2083 47.3831C40.0877 47.359 39.9913 47.3107 39.8948 47.2384C39.7984 47.1902 39.726 47.1177 39.6778 47.0214C39.6296 46.9491 39.6055 46.8525 39.6055 46.732V44.8028C39.6055 44.7064 39.6296 44.6099 39.6778 44.5376C39.726 44.4652 39.7984 44.3929 39.8948 44.3206C39.9913 44.2723 40.0877 44.2241 40.2083 44.1759C40.3289 44.1517 40.4494 44.1277 40.5941 44.1277H43.0297C43.3431 44.1277 43.5843 44.1759 43.7531 44.2965C43.9219 44.417 44.0184 44.5859 44.0184 44.827H40.7147V46.7562H42.9332V46.1292H42.1374C41.8722 46.1292 41.6551 46.081 41.4622 45.9604C41.2693 45.8398 41.1729 45.7192 41.1487 45.5504V45.4299H44.0183V46.7319ZM48.8412 46.7561C48.8412 46.8767 48.8171 46.9731 48.7689 47.0454C48.7207 47.1178 48.6483 47.1902 48.5519 47.2383C48.4554 47.2866 48.359 47.3348 48.2384 47.359C48.1178 47.3831 47.9732 47.4072 47.8526 47.4072H45.3929C45.2482 47.4072 45.1277 47.3831 45.0071 47.359C44.8865 47.3349 44.7901 47.2867 44.6936 47.2143C44.5971 47.1661 44.5248 47.0937 44.4766 46.9973C44.4284 46.925 44.4042 46.8285 44.4042 46.7079V44.8029C44.4042 44.7065 44.4284 44.61 44.4766 44.5377C44.5248 44.4412 44.5972 44.3688 44.6936 44.3206C44.7901 44.2724 44.8865 44.2241 45.0071 44.1759C45.1277 44.1518 45.2482 44.1277 45.3929 44.1277H47.8284C48.1178 44.1277 48.359 44.1759 48.5519 44.2965C48.7448 44.4172 48.8413 44.5859 48.8413 44.803V46.7561H48.8412V46.7561ZM47.7561 44.8269H45.5376V46.7561H47.7561V44.8269Z" fill="url(#paint2_linear_4546_22336)"/>
<path fill-rule="evenodd" clip-rule="evenodd" d="M47.9359 23.8021H29.6445V42.0935H47.9359V23.8021ZM28.7539 22.9115V42.9841H48.8265V22.9115H28.7539Z" fill="url(#paint3_linear_4546_22336)"/>
<defs>
<filter id="filter0_d_4546_22336" x="0.0772228" y="0.730769" width="77.8456" height="77.8462" filterUnits="userSpaceOnUse" color-interpolation-filters="sRGB">
<feFlood flood-opacity="0" result="BackgroundImageFix"/>
<feColorMatrix in="SourceAlpha" type="matrix" values="0 0 0 0 0 0 0 0 0 0 0 0 0 0 0 0 0 0 127 0" result="hardAlpha"/>
<feOffset dy="4.42308"/>
<feGaussianBlur stdDeviation="8.84615"/>
<feComposite in2="hardAlpha" operator="out"/>
<feColorMatrix type="matrix" values="0 0 0 0 0.694118 0 0 0 0 0.596078 0 0 0 0 0.384314 0 0 0 0.3 0"/>
<feBlend mode="normal" in2="BackgroundImageFix" result="effect1_dropShadow_4546_22336"/>
<feBlend mode="normal" in="SourceGraphic" in2="effect1_dropShadow_4546_22336" result="shape"/>
</filter>
<linearGradient id="paint0_linear_4546_22336" x1="20.4234" y1="14" x2="47.8465" y2="56.4615" gradientUnits="userSpaceOnUse">
<stop stop-color="#FFD888" stop-opacity="0.62"/>
<stop offset="1" stop-color="#A26F07"/>
</linearGradient>
<linearGradient id="paint1_linear_4546_22336" x1="29.4427" y1="23.7122" x2="51.3738" y2="39.738" gradientUnits="userSpaceOnUse">
<stop stop-color="#F8D17F"/>
<stop offset="1" stop-color="#B0801C"/>
</linearGradient>
<linearGradient id="paint2_linear_4546_22336" x1="24.0929" y1="44.0997" x2="25.4855" y2="52.0475" gradientUnits="userSpaceOnUse">
<stop stop-color="#F8D17F"/>
<stop offset="1" stop-color="#B0801C"/>
</linearGradient>
<linearGradient id="paint3_linear_4546_22336" x1="24.0963" y1="22.8887" x2="48.7629" y2="46.2099" gradientUnits="userSpaceOnUse">
<stop stop-color="#F8D17F"/>
<stop offset="1" stop-color="#B0801C"/>
</linearGradient>
</defs>
</svg>
