<svg width="28" height="27" viewBox="0 0 28 27" fill="none" xmlns="http://www.w3.org/2000/svg">
<path d="M10.0752 9.01734C9.46411 8.84297 9.50772 8.84297 9.59494 8.27641C9.63869 7.92779 9.68223 7.62271 9.68223 7.27402C9.68223 7.01263 9.76959 6.92533 10.0314 6.92533C10.5115 6.92533 10.4679 6.92533 10.4242 6.44596C10.3369 5.7051 10.4679 5.00772 10.9043 4.39754C11.1662 4.04885 11.4718 3.87459 11.9081 3.83101C11.9953 3.83101 12.0827 3.83101 12.17 3.87462C12.2573 3.87462 12.3445 3.91814 12.4318 3.96175C12.4318 3.87462 12.4755 3.74374 12.4318 3.65668C12.17 2.78511 12.7373 1.8262 13.6539 1.73911C13.9594 1.69549 14.265 1.9134 14.5268 2.00056C15.0505 2.13127 15.0941 2.61071 15.1378 3.04657C15.1815 3.30795 15.1815 3.61303 14.7887 3.74377C14.7014 3.78739 14.6578 4.04885 14.6141 4.22317C15.1378 4.35389 15.1378 4.13608 15.6179 3.96175C16.098 4.04885 16.0107 4.17973 16.3162 4.17973H19.5896C19.7642 4.17973 19.8951 4.26686 20.0696 4.31037C20.0696 4.13608 20.3315 4.26686 20.4624 4.61548C20.8552 4.57194 21.2481 4.57194 21.5973 4.52835C21.7718 4.52835 21.9901 4.52835 22.1646 4.57204C22.2083 4.57204 22.2519 4.6591 22.2519 4.6591C22.2519 4.70272 22.1646 4.78985 22.1646 4.78985H21.5973C21.2045 4.78985 20.8116 4.74623 20.4624 4.78985C19.8513 4.87701 19.2404 5.00783 18.6294 5.00783C18.0183 4.96421 17.5819 5.57439 17.7128 6.14096C17.7565 6.27174 17.8 6.40252 17.8437 6.5332C17.4945 6.62036 17.4509 6.88189 17.4073 7.14338C17.3637 7.62282 16.9708 7.88424 16.6216 8.05864C16.4033 8.14573 16.0979 8.05864 15.836 7.97147C15.4433 7.84073 15.094 7.62285 14.7011 7.44852C14.6139 7.66643 14.483 7.88427 14.8321 8.01505C14.9193 8.05867 14.9631 8.18935 14.9631 8.27655C14.9193 8.93031 14.8758 9.54042 14.7885 10.1941C14.7448 10.4121 14.6139 10.5428 14.352 10.4121C14.3083 10.4121 14.1337 10.4992 14.1337 10.5428C14.1775 10.7607 14.1775 11.0222 14.3083 11.1965C14.9194 11.8939 15.3122 12.7219 15.6177 13.55C15.7049 13.7679 15.8796 13.9858 15.9669 14.2473C16.1852 14.901 16.0106 15.5112 15.9669 16.1649C15.9232 16.4263 15.9669 16.6878 15.9669 16.9929C15.9669 17.1672 15.9669 17.3417 15.9232 17.5159C15.8796 17.7339 15.836 17.9518 15.7923 18.1697C15.7923 18.867 16.1416 19.39 16.7962 19.6515C16.9271 19.6951 17.0144 19.7385 17.1017 19.8258C17.189 19.913 17.2326 20.0438 17.189 20.1309C17.189 20.1745 17.0143 20.2617 16.9707 20.2617L15.3994 20.1309H14.7446C14.4829 20.1309 14.3519 20.0438 14.4391 19.7387C14.5264 19.2157 14.7884 18.6929 14.6575 18.1263C14.6137 17.8648 14.5265 17.6032 14.4829 17.3418C14.3956 16.8624 14.3083 16.4265 14.3083 15.9472C14.3083 15.6856 14.4392 15.4677 14.4829 15.2062C14.5701 14.8575 14.4392 14.7704 14.0901 14.6832C13.9592 14.6832 13.7845 14.5525 13.6537 14.4217C13.3918 14.073 13.1737 13.7245 12.9117 13.3322C12.8681 13.2885 12.8245 13.1579 12.7808 13.1579C12.4316 13.2014 12.3007 12.8963 12.1261 12.5912C11.8642 13.1579 11.6023 13.6372 11.3842 14.1166C11.3405 14.2474 11.3405 14.4217 11.2532 14.5524C11.2095 14.6831 11.1222 14.8575 11.035 14.9882C10.8166 15.337 10.5985 15.642 10.3801 15.9472C10.3801 15.9907 10.3366 15.9907 10.3366 16.0342C10.4675 16.7751 9.94382 17.3417 9.72549 17.9518C9.68181 18.1697 9.37629 18.3004 9.289 18.5183C9.07074 18.9978 8.98348 19.4772 9.20181 20.0002C9.33271 20.3052 9.24549 20.4359 8.89629 20.4359H8.15436C7.89241 20.4359 7.76148 20.2616 7.80516 20.0002C7.89234 19.5208 8.02342 19.0413 8.11068 18.562C8.15436 18.344 8.11068 18.0826 8.15436 17.821C8.19797 17.5596 8.24154 17.3417 8.28519 17.0802C8.37241 16.8187 8.41616 16.5572 8.54706 16.2956C8.67793 15.9906 8.8089 15.6855 8.98345 15.3805C9.11442 15.1625 9.24539 14.9882 9.33271 14.7703C9.37632 14.6831 9.41993 14.5523 9.41993 14.4216L9.5509 12.7218C9.5509 12.5911 9.50723 12.4168 9.50723 12.286C9.50723 11.9809 9.46354 11.6758 9.46354 11.3708C9.46354 11.2837 9.50723 11.1529 9.55084 11.1529C9.85635 11.0657 9.72538 10.8478 9.72538 10.7171C9.6817 10.3684 9.6382 10.0633 9.59445 9.71468C9.72591 9.45312 9.68233 9.14805 10.0752 9.01734ZM16.4473 6.27167C16.6219 5.9666 16.8401 5.74862 16.9711 5.48719C17.0147 5.40006 16.9711 5.22567 16.8839 5.18212C16.8402 5.13843 16.6655 5.18212 16.5784 5.22567C16.4037 5.35645 16.3164 5.53074 16.1419 5.74862C16.2292 5.87943 16.3164 6.05372 16.4473 6.27167Z" fill="url(#paint0_linear_4546_22345)"/>
<path d="M8.19095 22.8269C8.19095 22.9475 8.14269 23.0439 8.07032 23.1163C7.99796 23.1886 7.9256 23.2369 7.85333 23.261C7.7568 23.3333 7.66036 23.3575 7.53978 23.4056C7.41917 23.4298 7.29868 23.4538 7.15395 23.4538H7.08163V22.8268H4.86311V24.7561H7.08165V24.0808H8.1668V24.7319C8.1668 24.8525 8.14267 24.949 8.09448 25.0454C8.04629 25.1419 7.97387 25.2143 7.87748 25.2624C7.78105 25.3106 7.68459 25.3589 7.564 25.3831C7.4434 25.4072 7.32285 25.4313 7.1782 25.4313H4.74254C4.62195 25.4313 4.47726 25.4071 4.35671 25.3831C4.23618 25.3589 4.13968 25.3107 4.04324 25.2383C3.9468 25.1902 3.87444 25.1177 3.82625 25.0214C3.77802 24.949 3.75391 24.8525 3.75391 24.7319V22.8028C3.75391 22.7064 3.77804 22.6098 3.82625 22.5376C3.87444 22.4411 3.94684 22.3688 4.04324 22.3205C4.13968 22.2723 4.23622 22.224 4.35671 22.1758C4.4773 22.1517 4.59787 22.1276 4.74254 22.1276H7.17809C7.49158 22.1276 7.73272 22.1758 7.92562 22.2964C8.09442 22.417 8.19095 22.5858 8.19095 22.8269ZM13.0379 24.7319C13.0379 24.9731 12.9415 25.1419 12.7486 25.2625C12.5556 25.3831 12.2903 25.4313 11.9769 25.4313H9.63778C9.51715 25.4313 9.37249 25.4072 9.25191 25.3831C9.13138 25.359 9.01079 25.3108 8.91435 25.2625C8.81787 25.2143 8.74553 25.1419 8.67319 25.0455C8.625 24.9732 8.57675 24.8525 8.57675 24.7561H11.9287V24.1291H9.58952C9.46898 24.1291 9.3243 24.105 9.20372 24.0809C9.08315 24.0568 8.98669 24.0086 8.89025 23.9603C8.79382 23.912 8.72145 23.8397 8.67322 23.7433C8.62505 23.6468 8.60088 23.5503 8.60088 23.4298V22.8751C8.60088 22.7546 8.62505 22.6341 8.67322 22.5376C8.72145 22.4411 8.79385 22.3688 8.89025 22.2964C8.98665 22.2241 9.08319 22.2 9.20372 22.1517C9.32433 22.1276 9.44485 22.1035 9.58952 22.1035H11.9769C12.2904 22.1035 12.5556 22.1517 12.7244 22.2723C12.9174 22.3688 13.0138 22.5617 13.0138 22.8029H9.71015V23.4058H11.9769C12.0975 23.4058 12.2422 23.4299 12.3627 23.4299C12.4833 23.454 12.6038 23.5022 12.7003 23.5505C12.7968 23.5987 12.8691 23.6711 12.9415 23.7675C13.0138 23.864 13.0379 23.9604 13.0379 24.0568V24.7319H13.0379ZM13.4238 23.7674V22.7787H14.2196V23.7674H13.4238ZM13.4238 25.2383V24.2496H14.2196V25.2383H13.4238ZM19.0183 24.7319C19.0183 24.8525 18.9941 24.949 18.946 25.0455C18.8978 25.1177 18.8253 25.1902 18.729 25.2625C18.6325 25.3106 18.536 25.3589 18.4155 25.3831C18.2949 25.4072 18.1743 25.4313 18.0297 25.4313H15.5941C15.4735 25.4313 15.3289 25.4071 15.2083 25.3831C15.0877 25.359 14.9913 25.3107 14.8948 25.2384C14.7984 25.1902 14.726 25.1177 14.6778 25.0214C14.6296 24.9491 14.6055 24.8525 14.6055 24.732V22.8028C14.6055 22.7064 14.6296 22.6099 14.6778 22.5376C14.726 22.4652 14.7984 22.3929 14.8948 22.3206C14.9913 22.2723 15.0877 22.2241 15.2083 22.1759C15.3289 22.1517 15.4494 22.1277 15.5941 22.1277H18.0297C18.3431 22.1277 18.5843 22.1759 18.7531 22.2965C18.9219 22.417 19.0184 22.5859 19.0184 22.827H15.7147V24.7562H17.9332V24.1292H17.1374C16.8722 24.1292 16.6551 24.081 16.4622 23.9604C16.2693 23.8398 16.1729 23.7192 16.1487 23.5504V23.4299H19.0183V24.7319ZM23.8412 24.7561C23.8412 24.8767 23.8171 24.9731 23.7689 25.0454C23.7207 25.1178 23.6483 25.1902 23.5519 25.2383C23.4554 25.2866 23.359 25.3348 23.2384 25.359C23.1178 25.3831 22.9732 25.4072 22.8526 25.4072H20.3929C20.2482 25.4072 20.1277 25.3831 20.0071 25.359C19.8865 25.3349 19.7901 25.2867 19.6936 25.2143C19.5971 25.1661 19.5248 25.0937 19.4766 24.9973C19.4284 24.925 19.4042 24.8285 19.4042 24.7079V22.8029C19.4042 22.7065 19.4284 22.61 19.4766 22.5377C19.5248 22.4412 19.5972 22.3688 19.6936 22.3206C19.7901 22.2724 19.8865 22.2241 20.0071 22.1759C20.1277 22.1518 20.2482 22.1277 20.3929 22.1277H22.8284C23.1178 22.1277 23.359 22.1759 23.5519 22.2965C23.7448 22.4172 23.8413 22.5859 23.8413 22.803V24.7561H23.8412V24.7561ZM22.7561 22.8269H20.5376V24.7561H22.7561V22.8269Z" fill="url(#paint1_linear_4546_22345)"/>
<path fill-rule="evenodd" clip-rule="evenodd" d="M22.9359 1.80209H4.6445V20.0935H22.9359V1.80209ZM3.75391 0.911499V20.9841H23.8265V0.911499H3.75391Z" fill="url(#paint2_linear_4546_22345)"/>
<defs>
<linearGradient id="paint0_linear_4546_22345" x1="4.44275" y1="1.71218" x2="26.3738" y2="17.738" gradientUnits="userSpaceOnUse">
<stop stop-color="#F8D17F"/>
<stop offset="1" stop-color="#B0801C"/>
</linearGradient>
<linearGradient id="paint1_linear_4546_22345" x1="-0.907133" y1="22.0997" x2="0.485512" y2="30.0475" gradientUnits="userSpaceOnUse">
<stop stop-color="#F8D17F"/>
<stop offset="1" stop-color="#B0801C"/>
</linearGradient>
<linearGradient id="paint2_linear_4546_22345" x1="-0.903719" y1="0.888725" x2="23.7629" y2="24.2099" gradientUnits="userSpaceOnUse">
<stop stop-color="#F8D17F"/>
<stop offset="1" stop-color="#B0801C"/>
</linearGradient>
</defs>
</svg>
