<svg width="22" height="24" viewBox="0 0 22 24" fill="none" xmlns="http://www.w3.org/2000/svg">
<path d="M22.7789 0.933095C22.7429 0.950252 22.712 0.976432 22.6891 1.00909C19.5909 4.88185 16.4918 8.75462 13.3963 12.6274C13.2984 12.7125 13.3734 12.8911 13.5053 12.87C15.7383 12.8728 17.9704 12.87 20.2034 12.8709C20.2998 12.8759 20.396 12.8577 20.4839 12.8179C20.5719 12.7781 20.649 12.7178 20.7088 12.642C21.4174 11.7567 22.1279 10.8714 22.8365 9.9842C22.9338 9.85579 22.9807 9.69621 22.9684 9.53558C22.9666 6.71844 22.9684 3.90222 22.9656 1.08508C22.9803 0.984366 22.8741 0.896474 22.7789 0.93218V0.933095ZM1.06665 0.945913C0.996155 0.980704 0.998901 1.06677 0.99707 1.1336C0.998901 3.94799 0.997986 6.76422 0.997986 9.57953C0.991859 9.73389 1.04343 9.88501 1.14264 10.0034L8.13743 18.7469C8.24729 18.8861 8.41941 18.9758 8.59978 18.973C10.8474 18.973 13.0951 18.9758 15.3428 18.973C15.4728 18.9914 15.546 18.8137 15.449 18.7304C10.7568 12.8572 6.05547 6.98853 1.36237 1.11437C1.28913 1.02831 1.20307 0.865345 1.06757 0.945913H1.06665Z" fill="#677AA3"/>
<path d="M20.5854 21.0071H21.3716L21.3741 23.4178C21.3741 23.4488 21.3992 23.4743 21.4306 23.4743L21.8807 23.474C21.9121 23.474 21.9372 23.4488 21.9372 23.4175L21.9346 21.0071H22.9205C22.9495 21.0071 22.966 20.9733 22.9475 20.9506L22.6101 20.5278C22.5819 20.4923 22.5391 20.4718 22.4939 20.4717H20.5854C20.5541 20.4717 20.5289 20.4968 20.5289 20.5282V20.951C20.5289 20.9816 20.5541 21.0071 20.5854 21.0071ZM1.61007 23.4181L3.91638 20.5282C3.93455 20.5055 3.91821 20.4717 3.88921 20.4717H3.31255C3.26738 20.4717 3.22438 20.4925 3.19622 20.5278L1.56007 22.5778V20.5278C1.56007 20.4965 1.5349 20.4713 1.50373 20.4713H1.0534C1.02224 20.4713 0.99707 20.4965 0.99707 20.5278V23.4178C0.99707 23.4491 1.02224 23.4743 1.0534 23.4743H1.4939C1.53907 23.4743 1.58173 23.4536 1.61007 23.4181ZM3.23605 23.4181L4.02938 22.4241L4.8227 23.4181C4.85087 23.4536 4.89387 23.4743 4.9392 23.4743H5.37953C5.41087 23.4743 5.43603 23.4491 5.43603 23.4178V20.5278C5.43603 20.4968 5.41087 20.4713 5.37953 20.4713H5.0102C4.9197 20.4713 4.83404 20.5125 4.77737 20.5833L2.51572 23.4175C2.49756 23.4401 2.51389 23.474 2.54289 23.474H3.11955C3.16505 23.4743 3.20772 23.4536 3.23605 23.4181ZM4.8727 21.3066V22.6381L4.34138 21.9725L4.8727 21.3066ZM17.7498 23.4175L15.4436 20.5275C15.4154 20.4922 15.3726 20.4715 15.3274 20.4713H14.8866C14.8555 20.4713 14.8303 20.4965 14.8303 20.5278V23.4178C14.8303 23.4491 14.8555 23.4743 14.8866 23.4743H15.3271C15.3723 23.4743 15.4153 23.4536 15.4433 23.4181L16.2366 22.4241L17.0298 23.4181C17.0581 23.4536 17.1008 23.4743 17.1461 23.4743H17.7228C17.7518 23.4743 17.7679 23.4405 17.7498 23.4175ZM15.9241 21.9725L15.3926 22.6385V21.3066L15.9241 21.9725ZM9.57766 20.3965C8.70834 20.3965 8.00368 21.1021 8.00368 21.9728C8.00368 22.8435 8.70834 23.5493 9.57766 23.5493C10.4472 23.5493 11.1518 22.8435 11.1518 21.9728C11.1522 21.1021 10.4472 20.3965 9.57766 20.3965ZM9.57766 23.0135C9.01917 23.0135 8.56667 22.5475 8.56667 21.9728C8.56667 21.3981 9.01917 20.9318 9.57766 20.9318C10.1363 20.9318 10.5888 21.3978 10.5888 21.9728C10.5892 22.5475 10.1363 23.0135 9.57766 23.0135ZM19.5749 20.5278V22.5778L17.9388 20.5275C17.9104 20.4922 17.8678 20.4715 17.8224 20.4713H17.3814C17.3504 20.4713 17.3251 20.4965 17.3251 20.5278V21.9205C17.3251 21.9543 17.3364 21.9871 17.3578 22.0136L17.8263 22.6008C17.8469 22.6266 17.8884 22.612 17.8884 22.5791V21.3671L19.5249 23.4181C19.5531 23.4536 19.5959 23.4743 19.6411 23.4743H20.0816C20.1127 23.4743 20.1379 23.4491 20.1379 23.4178V20.5278C20.1379 20.4968 20.1127 20.4713 20.0816 20.4713H19.6312C19.6001 20.4713 19.5749 20.4968 19.5749 20.5278ZM14.0733 21.1541V20.5278C14.0733 20.4965 14.0481 20.4713 14.017 20.4713H11.7123C11.6811 20.4713 11.656 20.4965 11.656 20.5278V23.4178C11.656 23.4491 11.6811 23.4743 11.7123 23.4743H12.1626C12.1938 23.4743 12.219 23.4491 12.219 23.4178V21.0075H13.5103L12.6386 22.1001C12.6225 22.1205 12.6225 22.1498 12.6386 22.1706L13.6345 23.4185C13.6628 23.454 13.7055 23.4746 13.7508 23.4746H14.3275C14.3565 23.4746 14.3726 23.4408 14.3545 23.4181L13.331 22.1358L14.0405 21.248C14.0615 21.2208 14.0733 21.188 14.0733 21.1541ZM6.16836 23.4743H7.50468C7.54985 23.4743 7.59285 23.4536 7.62085 23.4181L7.95834 22.995C7.97651 22.9723 7.96034 22.9385 7.93134 22.9385H6.67502V20.5278C6.67502 20.4965 6.64986 20.4713 6.61869 20.4713H6.16836C6.13719 20.4713 6.11203 20.4965 6.11203 20.5278V23.4178C6.11203 23.4488 6.13753 23.4743 6.16836 23.4743Z" fill="#677AA3"/>
</svg>
