<svg width="43" height="43" viewBox="0 0 43 43" fill="none" xmlns="http://www.w3.org/2000/svg">
<circle cx="21.5394" cy="21.2308" r="21.2308" fill="#293347"/>
<path d="M32.3189 9.93297C32.2829 9.95013 32.252 9.97631 32.2292 10.009C29.131 13.8817 26.0318 17.7545 22.9364 21.6273C22.8384 21.7124 22.9135 21.8909 23.0453 21.8699C25.2783 21.8726 27.5104 21.8699 29.7435 21.8708C29.8399 21.8758 29.9361 21.8576 30.024 21.8178C30.1119 21.778 30.189 21.7177 30.2488 21.6419C30.9575 20.7566 31.6679 19.8712 32.3766 18.9841C32.4739 18.8557 32.5208 18.6961 32.5084 18.5355C32.5066 15.7183 32.5084 12.9021 32.5057 10.085C32.5203 9.98424 32.4141 9.89635 32.3189 9.93206V9.93297ZM10.6067 9.94579C10.5362 9.98058 10.5389 10.0666 10.5371 10.1335C10.5389 12.9479 10.538 15.7641 10.538 18.5794C10.5319 18.7338 10.5835 18.8849 10.6827 19.0033L17.6775 27.7468C17.7873 27.8859 17.9595 27.9757 18.1398 27.9729C20.3875 27.9729 22.6352 27.9757 24.8828 27.9729C25.0128 27.9912 25.0861 27.8136 24.989 27.7303C20.2968 21.8571 15.5955 15.9884 10.9024 10.1143C10.8292 10.0282 10.7431 9.86522 10.6076 9.94579H10.6067Z" fill="#677AA3"/>
<path d="M30.1254 30.0071H30.9116L30.9141 32.4178C30.9141 32.4488 30.9393 32.4743 30.9706 32.4743L31.4208 32.474C31.4521 32.474 31.4773 32.4488 31.4773 32.4175L31.4746 30.0071H32.4606C32.4896 30.0071 32.5061 29.9733 32.4876 29.9506L32.1501 29.5278C32.1219 29.4923 32.0791 29.4718 32.0339 29.4717H30.1254C30.0941 29.4717 30.0689 29.4968 30.0689 29.5282V29.951C30.0689 29.9816 30.0941 30.0071 30.1254 30.0071ZM11.1501 32.4181L13.4564 29.5282C13.4746 29.5055 13.4583 29.4717 13.4293 29.4717H12.8526C12.8074 29.4717 12.7644 29.4925 12.7363 29.5278L11.1001 31.5778V29.5278C11.1001 29.4965 11.0749 29.4713 11.0438 29.4713H10.5934C10.5623 29.4713 10.5371 29.4965 10.5371 29.5278V32.4178C10.5371 32.4491 10.5623 32.4743 10.5934 32.4743H11.0339C11.0791 32.4743 11.1218 32.4536 11.1501 32.4181ZM12.7761 32.4181L13.5694 31.4241L14.3627 32.4181C14.3909 32.4536 14.4339 32.4743 14.4792 32.4743H14.9196C14.9509 32.4743 14.9761 32.4491 14.9761 32.4178V29.5278C14.9761 29.4968 14.9509 29.4713 14.9196 29.4713H14.5502C14.4597 29.4713 14.3741 29.5125 14.3174 29.5833L12.0558 32.4175C12.0376 32.4401 12.0539 32.474 12.0829 32.474H12.6596C12.7051 32.4743 12.7478 32.4536 12.7761 32.4181ZM14.4127 30.3066V31.6381L13.8814 30.9725L14.4127 30.3066ZM27.2898 32.4175L24.9837 29.5275C24.9555 29.4922 24.9127 29.4715 24.8675 29.4713H24.4267C24.3955 29.4713 24.3703 29.4965 24.3703 29.5278V32.4178C24.3703 32.4491 24.3955 32.4743 24.4267 32.4743H24.8672C24.9123 32.4743 24.9553 32.4536 24.9833 32.4181L25.7766 31.4241L26.5698 32.4181C26.5981 32.4536 26.6408 32.4743 26.6861 32.4743H27.2628C27.2918 32.4743 27.308 32.4405 27.2898 32.4175ZM25.4641 30.9725L24.9327 31.6385V30.3066L25.4641 30.9725ZM19.1177 29.3965C18.2484 29.3965 17.5437 30.1021 17.5437 30.9728C17.5437 31.8435 18.2484 32.5493 19.1177 32.5493C19.9872 32.5493 20.6919 31.8435 20.6919 30.9728C20.6922 30.1021 19.9872 29.3965 19.1177 29.3965ZM19.1177 32.0135C18.5592 32.0135 18.1067 31.5475 18.1067 30.9728C18.1067 30.3981 18.5592 29.9318 19.1177 29.9318C19.6764 29.9318 20.1289 30.3978 20.1289 30.9728C20.1292 31.5475 19.6764 32.0135 19.1177 32.0135ZM29.115 29.5278V31.5778L27.4788 29.5275C27.4505 29.4922 27.4078 29.4715 27.3625 29.4713H26.9215C26.8905 29.4713 26.8651 29.4965 26.8651 29.5278V30.9205C26.8651 30.9543 26.8765 30.9871 26.8978 31.0136L27.3663 31.6008C27.387 31.6266 27.4285 31.612 27.4285 31.5791V30.3671L29.065 32.4181C29.0931 32.4536 29.136 32.4743 29.1811 32.4743H29.6216C29.6528 32.4743 29.6779 32.4491 29.6779 32.4178V29.5278C29.6779 29.4968 29.6528 29.4713 29.6216 29.4713H29.1713C29.1401 29.4713 29.115 29.4968 29.115 29.5278ZM23.6133 30.1541V29.5278C23.6133 29.4965 23.5882 29.4713 23.557 29.4713H21.2524C21.2212 29.4713 21.196 29.4965 21.196 29.5278V32.4178C21.196 32.4491 21.2212 32.4743 21.2524 32.4743H21.7027C21.7338 32.4743 21.759 32.4491 21.759 32.4178V30.0075H23.0503L22.1787 31.1001C22.1625 31.1205 22.1625 31.1498 22.1787 31.1706L23.1745 32.4185C23.2028 32.454 23.2455 32.4746 23.2908 32.4746H23.8675C23.8965 32.4746 23.9127 32.4408 23.8945 32.4181L22.871 31.1358L23.5805 30.248C23.6015 30.2208 23.6133 30.188 23.6133 30.1541ZM15.7084 32.4743H17.0447C17.0899 32.4743 17.1329 32.4536 17.1609 32.4181L17.4984 31.995C17.5165 31.9723 17.5004 31.9385 17.4714 31.9385H16.2151V29.5278C16.2151 29.4965 16.1899 29.4713 16.1587 29.4713H15.7084C15.6772 29.4713 15.6521 29.4965 15.6521 29.5278V32.4178C15.6521 32.4488 15.6776 32.4743 15.7084 32.4743Z" fill="#677AA3"/>
</svg>
