<svg width="24" height="24" viewBox="0 0 24 24" fill="none" xmlns="http://www.w3.org/2000/svg">
<rect width="24" height="24" fill="#E5E5E5"/>
<g id="Frame 1888">
<rect width="3917" height="3120" transform="translate(-993 -2514)" fill="#283042"/>
<g id="Facebook page">
<g id="Group 1573">
<rect id="Rectangle 909" x="2" y="2" width="20" height="20" rx="3.95833" fill="white"/>
<g id="Group 1572">
<g id="Group 1571">
<path id="Vector 188" d="M17.5671 7.16113H6.3125V8.20538H8.40099V13.1945H6.3125V14.1228H17.5671L16.3488 10.6419L17.5671 7.16113Z" fill="#323D55"/>
<path id="Vector 189" d="M6.83398 12.6145V8.20544H7.87823V12.6145H6.83398Z" fill="#323D55"/>
<path id="Rectangle 908" d="M6.83398 14.1201H7.87652V18.2666H6.83398V14.1201Z" fill="#323D55"/>
<path id="Rectangle 907" d="M6.83398 6.02229C6.83398 5.81818 6.99945 5.65271 7.20356 5.65271H7.50865C7.71276 5.65271 7.87823 5.81818 7.87823 6.02229V6.69695H6.83398V6.02229Z" fill="#323D55"/>
</g>
</g>
</g>
</g>
</g>
<g id="Frame 313607">
<rect width="3917" height="3120" transform="translate(-993 -2514)" fill="#283042"/>
<g id="Facebook page_2">
<g id="Group 1573_2">
<rect id="Rectangle 909_2" x="2" y="2" width="20" height="20" rx="3.95833" fill="white"/>
<g id="Group 1572_2">
<g id="Group 1571_2">
<path id="Vector 188_2" d="M17.5671 7.16113H6.3125V8.20538H8.40099V13.1945H6.3125V14.1228H17.5671L16.3488 10.6419L17.5671 7.16113Z" fill="#323D55"/>
<path id="Vector 189_2" d="M6.83398 12.6145V8.20544H7.87823V12.6145H6.83398Z" fill="#323D55"/>
<path id="Rectangle 908_2" d="M6.83398 14.1201H7.87652V18.2666H6.83398V14.1201Z" fill="#323D55"/>
<path id="Rectangle 907_2" d="M6.83398 6.02229C6.83398 5.81818 6.99945 5.65271 7.20356 5.65271H7.50865C7.71276 5.65271 7.87823 5.81818 7.87823 6.02229V6.69695H6.83398V6.02229Z" fill="#323D55"/>
</g>
</g>
</g>
</g>
</g>
<g id="Frame 313608">
<rect width="3917" height="3120" transform="translate(-993 -2514)" fill="#283042"/>
<g id="Facebook page_3">
<g id="Group 1573_3">
<rect id="Rectangle 909_3" x="2" y="2" width="20" height="20" rx="3.95833" fill="white"/>
<g id="Group 1572_3">
<g id="Group 1571_3">
<path id="Vector 188_3" d="M17.5671 7.16113H6.3125V8.20538H8.40099V13.1945H6.3125V14.1228H17.5671L16.3488 10.6419L17.5671 7.16113Z" fill="#323D55"/>
<path id="Vector 189_3" d="M6.83398 12.6145V8.20544H7.87823V12.6145H6.83398Z" fill="#323D55"/>
<path id="Rectangle 908_3" d="M6.83398 14.1201H7.87652V18.2666H6.83398V14.1201Z" fill="#323D55"/>
<path id="Rectangle 907_3" d="M6.83398 6.02229C6.83398 5.81818 6.99945 5.65271 7.20356 5.65271H7.50865C7.71276 5.65271 7.87823 5.81818 7.87823 6.02229V6.69695H6.83398V6.02229Z" fill="#323D55"/>
</g>
</g>
</g>
</g>
</g>
</svg>
