<svg width="20" height="20" viewBox="0 0 20 20" fill="none" xmlns="http://www.w3.org/2000/svg">
<path d="M19.761 9.77606C19.4399 4.29829 14.4627 0.0766307 8.72995 1.02108C4.78217 1.67274 1.61829 4.87439 1.0044 8.82217C0.645509 11.1077 1.11775 13.2705 2.1472 15.0555L1.30663 18.1816C1.11774 18.8899 1.76939 19.5322 2.46827 19.3338L5.54717 18.4838C6.94495 19.3055 8.57884 19.7777 10.3261 19.7777C15.6527 19.7777 20.0727 15.0838 19.761 9.77606ZM14.9444 13.8466C14.8594 14.0166 14.7555 14.1772 14.6233 14.3283C14.3872 14.5833 14.1322 14.7722 13.8488 14.8855C13.5655 15.0083 13.2538 15.065 12.9233 15.065C12.4416 15.065 11.9222 14.9516 11.3838 14.7155C10.8361 14.4794 10.2977 14.1677 9.75942 13.7805C9.21164 13.3838 8.70162 12.9399 8.21051 12.4583C7.7194 11.9672 7.28493 11.4477 6.88827 10.9094C6.50105 10.371 6.1894 9.83272 5.96273 9.29439C5.73606 8.75606 5.62274 8.23663 5.62274 7.74551C5.62274 7.4244 5.6794 7.11274 5.79274 6.8294C5.90607 6.53662 6.08553 6.27218 6.34053 6.03607C6.64275 5.73385 6.97329 5.59218 7.32273 5.59218C7.45496 5.59218 7.58715 5.62051 7.70993 5.67718C7.83271 5.73385 7.94607 5.81884 8.03107 5.94162L9.1266 7.4905C9.2116 7.61327 9.27772 7.71717 9.3155 7.82106C9.36272 7.92495 9.38161 8.01939 9.38161 8.11383C9.38161 8.22717 9.34385 8.34052 9.27774 8.45385C9.21163 8.56718 9.1266 8.6805 9.01327 8.79383L8.65437 9.17161C8.59771 9.22827 8.57886 9.28495 8.57886 9.36051C8.57886 9.39828 8.58827 9.43606 8.59771 9.47384C8.6166 9.51161 8.62608 9.53995 8.63552 9.56829C8.72052 9.72884 8.87161 9.92716 9.07939 10.1727C9.29661 10.4183 9.52331 10.6733 9.76887 10.9188C10.0239 11.1738 10.2694 11.4005 10.5244 11.6177C10.77 11.8255 10.9777 11.9672 11.1383 12.0522C11.1666 12.0616 11.195 12.0805 11.2233 12.0899C11.2611 12.1088 11.2989 12.1088 11.3461 12.1088C11.4311 12.1088 11.4878 12.0805 11.5444 12.0238L11.9033 11.665C12.026 11.5422 12.1394 11.4572 12.2433 11.4005C12.3566 11.3344 12.4605 11.2966 12.5833 11.2966C12.6777 11.2966 12.7722 11.3155 12.8761 11.3627C12.98 11.4099 13.0933 11.4666 13.2066 11.5516L14.7744 12.6661C14.8972 12.7511 14.9822 12.855 15.0388 12.9683C15.0861 13.0911 15.1144 13.2044 15.1144 13.3366C15.0577 13.4972 15.02 13.6766 14.9444 13.8466Z" fill="white"/>
</svg>
